<?xml version="1.0" encoding="UTF-8" standalone="no"?>
<!DOCTYPE svg  PUBLIC '-//W3C//DTD SVG 1.1//EN'  'http://www.w3.org/Graphics/SVG/1.1/DTD/svg11.dtd'>
<svg xmlns="http://www.w3.org/2000/svg">
<defs>
<font id="SamsungOne-500" horiz-adv-x="0">
<font-face underline-position="-102" font-weight="500" descent="-205" panose-1="2 11 6 3 3 3 3 2 2 4" units-per-em="1024" unicode-range="U+000D-2081" bbox="-520 -250 1261 984" x-height="536" underline-thickness="32" font-family="SamsungOne" ascent="819" cap-height="724"/>
<missing-glyph horiz-adv-x="1024"/>
<glyph glyph-name=".notdef" horiz-adv-x="1024"/>
<glyph glyph-name="uni0000"/>
<glyph glyph-name="uni0000"/>
<glyph glyph-name="nonmarkingreturn" unicode=""/>
<glyph glyph-name="space" horiz-adv-x="227" unicode=" "/>
<glyph glyph-name="exclam" horiz-adv-x="349" unicode="!" d="M130.5 2.5q-15.5 15.5 -15.5 43.5t15.5 44t43.5 16t43.5 -15.5t15.5 -43.5q0 -29 -15.5 -44.5t-43.5 -15.5t-43.5 15.5zM126 724h95l-15 -526h-65z"/>
<glyph glyph-name="quotedbl" horiz-adv-x="369" unicode='&quot;' d="M216 724h86l-17 -237h-51zM66 724h86l-17 -237h-51z"/>
<glyph glyph-name="numbersign" horiz-adv-x="659" unicode="#" d="M414 458h-138l-30 -192h137zM483 458l-31 -192h125v-60h-135l-32 -206h-69l33 206h-138l-32 -206h-69l33 206h-130v60h139l31 192h-129v60h138l33 206h69l-33 -206h138l32 206h69l-33 -206h128v-60h-137z"/>
<glyph glyph-name="dollar" horiz-adv-x="546" unicode="$" d="M383.5 116q25.5 29 25.5 81q0 48 -24 75t-80 42v-234q53 7 78.5 36zM160 460.5q24 -27.5 79 -43.5v228q-53 -5 -78 -32t-25 -77q0 -48 24 -75.5zM441 71.5q-48 -51.5 -136 -62.5v-94h-66v92q-50 2 -100 16t-90 37l27 67q80 -45 163 -49v255l-17 4q-85 23 -125.5 68.5 t-40.5 117.5q0 84 48 134.5t135 58.5v93h66v-92q81 -6 164 -40l-26 -67q-74 29 -138 35v-246l18 -5q85 -23 125.5 -68t40.5 -119q0 -84 -48 -135.5z"/>
<glyph glyph-name="percent" horiz-adv-x="925" unicode="%" d="M773.5 87.5q18.5 38.5 18.5 119.5t-18.5 119t-56.5 38q-39 0 -57.5 -38t-18.5 -119q0 -82 18.5 -120t57.5 -38q38 0 56.5 38.5zM605 42.5q-38 55.5 -38 164.5t38 164t112 55t111.5 -55t37.5 -164t-37.5 -164.5t-111.5 -55.5t-112 55.5zM264.5 398q18.5 38 18.5 119 t-18.5 119.5t-56.5 38.5t-56.5 -38.5t-18.5 -119.5t18.5 -119t56.5 -38t56.5 38zM613 724h78l-379 -724h-78zM96.5 353q-37.5 55 -37.5 164t37.5 164.5t111.5 55.5t112 -55.5t38 -164.5t-38 -164t-112 -55t-111.5 55z"/>
<glyph glyph-name="ampersand" horiz-adv-x="646" unicode="&amp;" d="M347 82.5q38 21.5 70 65.5l-150 175l-50 -39q-38 -31 -53.5 -57.5t-15.5 -60.5q0 -52 28.5 -78.5t83.5 -26.5q49 0 87 21.5zM281 429l39 31q48 38 65 62t17 54q0 89 -105 89q-51 0 -77 -22t-26 -64q0 -28 13 -54t50 -68zM554 -12l-89 103q-41 -53 -92.5 -78.5 t-117.5 -25.5q-91 0 -142 46.5t-51 129.5q0 50 20 87.5t67 75.5l69 54l-30 36q-42 49 -59 85t-17 77q0 75 49 117t137 42q87 0 136 -40.5t49 -113.5q0 -49 -27 -90t-95 -95l-32 -26l128 -151l70 147h81l-85 -181l-14 -27l103 -122z"/>
<glyph glyph-name="quotesingle" horiz-adv-x="218" unicode="&apos;" d="M66 724h86l-17 -237h-51z"/>
<glyph glyph-name="parenleft" horiz-adv-x="329" unicode="(" d="M100 104q-39 117 -39 237q0 121 39 238.5t111 210.5l61 -46q-63 -84 -95.5 -185.5t-32.5 -216.5t32.5 -216.5t95.5 -185.5l-61 -46q-72 93 -111 210z"/>
<glyph glyph-name="parenright" horiz-adv-x="329" unicode=")" d="M58 -60q62 84 94.5 186t32.5 216t-32.5 216t-94.5 186l61 46q71 -93 110 -210.5t39 -238.5q0 -120 -39 -237t-110 -210z"/>
<glyph glyph-name="asterisk" horiz-adv-x="537" unicode="*" d="M314 502l101 -127l-57 -46l-90 137l-90 -137l-57 46l102 127l-158 44l24 71l152 -58l-9 165h73l-9 -165l151 58l24 -71z"/>
<glyph glyph-name="plus" horiz-adv-x="572" unicode="+" d="M517 330h-192v-208h-78v208h-192v77h192v208h78v-208h192v-77z"/>
<glyph glyph-name="comma" horiz-adv-x="235" unicode="," d="M10 -138q39 42 56 82.5t17 92.5q0 33 -5 61h88q4 -34 4 -60q0 -64 -29.5 -117t-91.5 -100z"/>
<glyph glyph-name="hyphen" horiz-adv-x="406" unicode="-" d="M54 332h298v-71h-298v71z"/>
<glyph glyph-name="period" horiz-adv-x="249" unicode="." d="M80.5 2.5q-15.5 15.5 -15.5 43.5t15.5 44t43.5 16t43.5 -15.5t15.5 -43.5q0 -29 -15.5 -44.5t-43.5 -15.5t-43.5 15.5z"/>
<glyph glyph-name="slash" horiz-adv-x="440" unicode="/" d="M346 739h70l-320 -825h-71z"/>
<glyph glyph-name="zero" horiz-adv-x="621" unicode="0" d="M429 134q38 73 38 228t-38 228t-119 73q-80 0 -118 -73t-38 -228t38 -228t119 -73q80 0 118 73zM129 78.5q-60 91.5 -60 283.5t59.5 283.5t181.5 91.5t182 -91.5t60 -283.5t-59.5 -283.5t-181.5 -91.5t-182 91.5z"/>
<glyph glyph-name="one" horiz-adv-x="441" unicode="1" d="M310 724v-724h-82v634l-168 -58l-24 70l204 78h70z"/>
<glyph glyph-name="two" horiz-adv-x="530" unicode="2" d="M468 72v-72h-426v73l252 306q46 57 64.5 93.5t18.5 72.5q0 53 -34.5 84t-95.5 31q-43 0 -87 -14.5t-81 -40.5l-39 65q38 30 97 48.5t115 18.5q94 0 151 -50.5t57 -133.5q0 -49 -23.5 -99.5t-79.5 -118.5l-219 -263h330z"/>
<glyph glyph-name="three" horiz-adv-x="560" unicode="3" d="M429 376q57 -59 57 -155q0 -69 -30 -122.5t-84 -82.5t-126 -29q-52 0 -108.5 15.5t-97.5 41.5l33 71q42 -24 87 -37.5t86 -13.5q73 0 113.5 41.5t40.5 115.5q0 69 -39 108t-109 39q-38 0 -68 -9l-31 40l219 253h-320v72h413v-72l-188 -215q95 -2 152 -61z"/>
<glyph glyph-name="four" horiz-adv-x="578" unicode="4" d="M352 230v419l-232 -419h232zM526 230v-73h-94v-157h-80v157h-320v73l284 494h116v-494h94z"/>
<glyph glyph-name="five" horiz-adv-x="551" unicode="5" d="M381 427.5q49 -28.5 75.5 -80.5t26.5 -120q0 -71 -30 -125.5t-85 -84.5t-127 -30q-51 0 -103.5 14.5t-89.5 38.5l33 71q37 -22 79.5 -34.5t80.5 -12.5q73 0 115 43t42 119q0 73 -39.5 114t-108.5 41q-34 0 -66 -9.5t-56 -27.5l-51 28l22 352h353v-72h-282l-16 -220 q57 24 114 24q64 0 113 -28.5z"/>
<glyph glyph-name="six" horiz-adv-x="564" unicode="6" d="M395.5 102.5q38.5 42.5 38.5 117.5q0 77 -40.5 120.5t-112.5 43.5q-61 0 -119 -32q-24 -51 -24 -118q0 -82 40 -128t111 -46q68 0 106.5 42.5zM416 422.5q49 -28.5 76 -80t27 -119.5q0 -70 -29 -123.5t-81 -83t-121 -29.5q-70 0 -123.5 30.5t-82.5 86t-29 128.5 q0 71 30 141t99 160l156 204l67 -49l-157 -197q-31 -38 -47 -62q46 22 102 22q64 0 113 -28.5z"/>
<glyph glyph-name="seven" horiz-adv-x="492" unicode="7" d="M455 724v-72l-287 -662l-76 32l280 630h-351v72h434z"/>
<glyph glyph-name="eight" horiz-adv-x="584" unicode="8" d="M405.5 93.5q41.5 34.5 41.5 93.5q0 49 -42.5 92.5t-116.5 69.5q-71 -25 -111 -67.5t-40 -92.5q0 -61 41 -95.5t114 -34.5q72 0 113.5 34.5zM385 464.5q32 37.5 32 83.5q0 55 -33.5 86.5t-91.5 31.5t-91.5 -31t-33.5 -85q0 -47 35 -84.5t95 -57.5q56 19 88 56.5zM166.5 11 q-54.5 24 -84 68t-29.5 101q0 63 42.5 117t112.5 80q-56 20 -90 69.5t-34 109.5q0 54 25.5 95t73 63.5t109.5 22.5t109.5 -22.5t73 -63.5t25.5 -95q0 -60 -34 -108t-90 -68q70 -21 112.5 -73.5t42.5 -119.5q0 -59 -29.5 -104.5t-84 -70.5t-125.5 -25t-125.5 24z"/>
<glyph glyph-name="nine" horiz-adv-x="564" unicode="9" d="M170.5 383.5q40.5 -43.5 112.5 -43.5q62 0 119 33q25 52 25 117q0 82 -40 128t-111 46q-69 0 -107.5 -42.5t-38.5 -117.5q0 -77 40.5 -120.5zM399.5 706.5q53.5 -30.5 82.5 -86t29 -128.5q0 -71 -30 -141t-99 -160l-156 -204l-67 49l158 197q32 41 47 63q-21 -11 -48 -17 t-55 -6q-64 0 -113 28.5t-76 80t-27 119.5q0 70 29 123.5t81 83t121 29.5q70 0 123.5 -30.5z"/>
<glyph glyph-name="colon" horiz-adv-x="289" unicode=":" d="M100.5 347.5q-15.5 15.5 -15.5 43.5t15.5 44t43.5 16t43.5 -15.5t15.5 -43.5q0 -29 -15.5 -44.5t-43.5 -15.5t-43.5 15.5zM100.5 2.5q-15.5 15.5 -15.5 43.5t15.5 44t43.5 16t43.5 -15.5t15.5 -43.5q0 -29 -15.5 -44.5t-43.5 -15.5t-43.5 15.5z"/>
<glyph glyph-name="semicolon" horiz-adv-x="289" unicode=";" d="M100.5 347.5q-15.5 15.5 -15.5 43.5t15.5 44t43.5 16t43.5 -15.5t15.5 -43.5q0 -29 -15.5 -44.5t-43.5 -15.5t-43.5 15.5zM35 -138q39 42 56 82.5t17 92.5q0 33 -5 61h88q4 -34 4 -60q0 -64 -29.5 -117t-91.5 -100z"/>
<glyph glyph-name="less" horiz-adv-x="428" unicode="&lt;" d="M53 365l263 299l60 -55l-219 -244l219 -244l-60 -55z"/>
<glyph glyph-name="equal" horiz-adv-x="572" unicode="=" d="M78 288h416v-76h-416v76zM78 518h416v-76h-416v76z"/>
<glyph glyph-name="greater" horiz-adv-x="428" unicode="&gt;" d="M53 121l218 244l-218 244l59 55l264 -299l-264 -299z"/>
<glyph glyph-name="question" horiz-adv-x="515" unicode="?" d="M185 2.5q-16 15.5 -16 43.5q0 29 16 44.5t44 15.5t43.5 -15.5t15.5 -43.5t-15.5 -44t-43.5 -16t-44 15.5zM185 258q0 56 23.5 94.5t86.5 88.5q40 32 54.5 55t14.5 57q0 105 -116 105q-77 0 -160 -52l-34 70q87 61 196 61q95 0 148 -47t53 -132q0 -50 -22.5 -86.5 t-79.5 -80.5q-50 -39 -67 -66t-17 -70q0 -22 3 -57h-80q-3 38 -3 60z"/>
<glyph glyph-name="at" horiz-adv-x="806" unicode="@" d="M469 476q-26 10 -50 10q-44 0 -67 -32t-23 -93t22.5 -92t66.5 -31q27 0 51 15v223zM532 510v-209q0 -61 52 -61q42 0 65.5 40t23.5 112q0 132 -70 205.5t-195 73.5t-194.5 -81.5t-69.5 -227.5q0 -147 72.5 -229t202.5 -82q84 0 148 35l26 -59q-33 -19 -78.5 -30 t-95.5 -11q-103 0 -182 47t-122 132t-43 197t42 197t118 132t176 47q99 0 174 -43t116 -121.5t41 -181.5q0 -94 -41 -151.5t-108 -57.5q-28 0 -50.5 10.5t-33.5 29.5q-34 -42 -98 -42q-68 0 -106.5 47.5t-38.5 132.5q0 86 42 134t117 48q60 0 110 -33z"/>
<glyph glyph-name="A" horiz-adv-x="667" unicode="A" d="M457 266l-125 370l-124 -370h249zM482 192h-299l-64 -192h-89l257 724h93l257 -724h-90z"/>
<glyph glyph-name="B" horiz-adv-x="645" unicode="B" d="M473 108q33 33 33 98q0 64 -34 96.5t-100 32.5h-194v-260h198q64 0 97 33zM178 649v-241h158q64 0 97 29.5t33 87.5q0 61 -34 92.5t-100 31.5h-154zM593 206q0 -97 -58.5 -151.5t-162.5 -54.5h-233h-44v724h83h158q102 0 159 -52t57 -146q0 -57 -23.5 -93.5t-69.5 -50.5 q134 -35 134 -176z"/>
<glyph glyph-name="C" horiz-adv-x="600" unicode="C" d="M200 31q-72 43 -110 124t-38 193q0 117 39 205t110.5 136t166.5 48q49 0 97.5 -13t88.5 -36l-31 -67q-81 39 -157 39q-107 0 -167 -80t-60 -225q0 -143 61 -216t179 -73q89 0 150 35l31 -66q-31 -22 -80.5 -34.5t-106.5 -12.5q-101 0 -173 43z"/>
<glyph glyph-name="D" horiz-adv-x="690" unicode="D" d="M478.5 147.5q62.5 72.5 62.5 214.5t-63 214.5t-187 72.5h-113v-574h116q122 0 184.5 72.5zM542.5 632q85.5 -92 85.5 -270t-86.5 -270t-250.5 -92h-196v724h200q162 0 247.5 -92z"/>
<glyph glyph-name="E" horiz-adv-x="575" unicode="E" d="M531 75v-75h-436v724h424v-75h-341v-241h255v-76h-255v-257h353z"/>
<glyph glyph-name="F" horiz-adv-x="537" unicode="F" d="M178 649v-254h273v-76h-273v-319h-83v724h417v-75h-334z"/>
<glyph glyph-name="G" horiz-adv-x="668" unicode="G" d="M593 383v-346q-37 -24 -91.5 -37t-114.5 -13q-102 0 -175 44.5t-111.5 129t-38.5 201.5t38.5 201.5t111.5 129t175 44.5q54 0 104.5 -12.5t85.5 -34.5l-25 -69q-86 40 -167 40q-117 0 -176.5 -75.5t-59.5 -223.5t60 -224t178 -76q66 0 123 19v227h-132v75h215z"/>
<glyph glyph-name="H" horiz-adv-x="701" unicode="H" d="M605 724v-724h-83v330h-344v-330h-83v724h83v-319h344v319h83z"/>
<glyph glyph-name="I" horiz-adv-x="277" unicode="I" d="M97 724h83v-724h-83v724z"/>
<glyph glyph-name="J" horiz-adv-x="455" unicode="J" d="M78 -1q-41 12 -69 34l31 67q62 -37 124 -37q58 0 88 30t30 89v542h83v-543q0 -92 -52.5 -143t-147.5 -51q-46 0 -87 12z"/>
<glyph glyph-name="K" horiz-adv-x="619" unicode="K" d="M271 330l-93 -111v-219h-83v724h83v-398l321 398h101l-274 -329l290 -395h-101z"/>
<glyph glyph-name="L" horiz-adv-x="528" unicode="L" d="M498 76v-76h-403v724h83v-648h320z"/>
<glyph glyph-name="M" horiz-adv-x="845" unicode="M" d="M750 724v-724h-81v593l-204 -443h-87l-203 443v-593h-80v724h100l228 -494l226 494h101z"/>
<glyph glyph-name="N" horiz-adv-x="723" unicode="N" d="M627 724v-724h-78l-373 583v-583h-81v724h78l373 -582v582h81z"/>
<glyph glyph-name="O" horiz-adv-x="713" unicode="O" d="M511.5 138q52.5 76 52.5 224t-52.5 224t-155.5 76t-155 -76t-52 -224t52 -224t155 -76t155.5 76zM137.5 82.5q-75.5 95.5 -75.5 279.5t75.5 279.5t218.5 95.5t219 -95.5t76 -279.5t-76 -279.5t-219 -95.5t-218.5 95.5z"/>
<glyph glyph-name="P" horiz-adv-x="596" unicode="P" d="M449.5 372.5q35.5 40.5 35.5 118.5q0 77 -36.5 117.5t-107.5 40.5h-163v-317h167q69 0 104.5 40.5zM512 662.5q60 -61.5 60 -171.5t-61 -172t-170 -62h-163v-257h-83v724h83h167q107 0 167 -61.5z"/>
<glyph glyph-name="Q" horiz-adv-x="713" unicode="Q" d="M201 138q52 -76 155 -76t155.5 76t52.5 224t-52.5 224t-155.5 76t-155 -76t-52 -224t52 -224zM604 -154l-136 159q-49 -18 -112 -18q-143 0 -218.5 95.5t-75.5 279.5t75.5 279.5t218.5 95.5t219 -95.5t76 -279.5q0 -228 -116 -320l126 -137z"/>
<glyph glyph-name="R" horiz-adv-x="632" unicode="R" d="M178 351h158q68 0 103 37.5t35 111.5q0 73 -36 111t-106 38h-154v-298zM317 277h-139v-277h-83v724h83h158q106 0 165.5 -59t59.5 -164q0 -86 -40 -141.5t-115 -74.5l190 -285h-102z"/>
<glyph glyph-name="S" horiz-adv-x="561" unicode="S" d="M148 3q-59 15 -104 43l29 71q94 -54 194 -54q75 0 116.5 32.5t41.5 90.5q0 49 -28 79.5t-86 45.5l-82 23q-92 25 -135 73.5t-43 126.5q0 93 61.5 147.5t167.5 54.5q53 0 108 -11.5t101 -33.5l-29 -71q-102 41 -182 41q-68 0 -105.5 -30.5t-37.5 -84.5q0 -49 27.5 -79.5 t85.5 -45.5l82 -23q92 -26 135.5 -74t43.5 -126q0 -97 -65 -153.5t-177 -56.5q-60 0 -119 15z"/>
<glyph glyph-name="T" horiz-adv-x="527" unicode="T" d="M497 648h-192v-648h-83v648h-192v76h275h192v-76z"/>
<glyph glyph-name="U" horiz-adv-x="685" unicode="U" d="M156 58q-66 71 -66 198v468h83v-467q0 -96 43 -145.5t126 -49.5q84 0 126.5 49.5t42.5 145.5v467h83v-468q0 -128 -66.5 -198.5t-186.5 -70.5q-119 0 -185 71z"/>
<glyph glyph-name="V" horiz-adv-x="631" unicode="V" d="M597 724l-235 -724h-93l-235 724h90l193 -631l191 631h89z"/>
<glyph glyph-name="W" horiz-adv-x="895" unicode="W" d="M859 724l-184 -724h-93l-136 598l-134 -598h-93l-183 724h87l143 -625l136 624h91l137 -622l142 623h87z"/>
<glyph glyph-name="X" horiz-adv-x="607" unicode="X" d="M478 0l-176 299l-175 -299h-96l226 365l-219 359h98l169 -288l173 288h96l-223 -355l225 -369h-98z"/>
<glyph glyph-name="Y" horiz-adv-x="587" unicode="Y" d="M561 724l-227 -467v-257h-83v257l-225 467h92l176 -372l176 372h91z"/>
<glyph glyph-name="Z" horiz-adv-x="552" unicode="Z" d="M505 74v-74h-461v75l363 575h-351v74h445v-74l-363 -576h367z"/>
<glyph glyph-name="bracketleft" horiz-adv-x="351" unicode="[" d="M172 710v-736h148v-66h-225v868h225v-66h-148z"/>
<glyph glyph-name="backslash" horiz-adv-x="440" unicode="\" d="M344 -86l-321 825h71l321 -825h-71z"/>
<glyph glyph-name="bracketright" horiz-adv-x="351" unicode="]" d="M256 776v-868h-225v66h148v736h-148v66h225z"/>
<glyph glyph-name="asciicircum" horiz-adv-x="415" unicode="^" d="M164 724h86l143 -197h-93l-92 139l-94 -139h-92z"/>
<glyph glyph-name="underscore" horiz-adv-x="598" unicode="_" d="M95 -73h407v-76h-407v76z"/>
<glyph glyph-name="grave" horiz-adv-x="500" unicode="`" d="M121 774v10h93l93 -159v-10h-62z"/>
<glyph glyph-name="a" horiz-adv-x="529" unicode="a" d="M365 125v147q-124 -1 -183 -29.5t-59 -87.5q0 -46 26.5 -69.5t78.5 -23.5q80 0 137 63zM392 505.5q53 -43.5 53 -127.5v-378h-74v67q-26 -39 -67 -58.5t-94 -19.5q-80 0 -124 42t-44 118q0 95 78.5 140.5t244.5 46.5v35q0 50 -31.5 76t-92.5 26q-67 0 -126 -28l-21 67 q73 37 157 37q88 0 141 -43.5z"/>
<glyph glyph-name="b" horiz-adv-x="575" unicode="b" d="M403.5 112q33.5 51 33.5 152q0 102 -35 154.5t-104 52.5q-37 0 -67.5 -15t-58.5 -47v-289q25 -28 59.5 -43.5t72.5 -15.5q66 0 99.5 51zM468 474q53 -75 53 -209q0 -131 -55.5 -204.5t-155.5 -73.5q-44 0 -81.5 18t-62.5 51v-56h-75v770h81v-296q27 37 64.5 56t83.5 19 q95 0 148 -75z"/>
<glyph glyph-name="c" horiz-adv-x="480" unicode="c" d="M114 62q-64 74 -64 206q0 84 29.5 147.5t83 98.5t123.5 35q40 0 80 -11.5t73 -32.5l-31 -66q-65 35 -124 35q-71 0 -110.5 -52.5t-39.5 -146.5q0 -104 41.5 -157.5t121.5 -53.5q60 0 118 33l30 -64q-29 -22 -69 -33.5t-85 -11.5q-113 0 -177 74z"/>
<glyph glyph-name="d" horiz-adv-x="575" unicode="d" d="M344.5 80q30.5 15 58.5 47v289q-25 28 -59.5 43.5t-72.5 15.5q-66 0 -99.5 -51.5t-33.5 -151.5q0 -103 35 -155t104 -52q37 0 67.5 15zM484 770v-770h-75v40v30q-54 -83 -154 -83q-95 0 -148 75t-53 209q0 131 55.5 204.5t155.5 73.5q42 0 77.5 -16t60.5 -45v282h81z"/>
<glyph glyph-name="e" horiz-adv-x="539" unicode="e" d="M136 311h273q-1 78 -37 121.5t-99 43.5q-123 0 -137 -165zM487 245h-352q4 -90 45.5 -135.5t117.5 -45.5q75 0 137 40l31 -64q-32 -25 -77.5 -38.5t-95.5 -13.5q-114 0 -177.5 74t-63.5 206q0 133 58.5 207t164.5 74q102 0 159 -68t57 -190q0 -29 -4 -46z"/>
<glyph glyph-name="f" horiz-adv-x="363" unicode="f" d="M110 467h-91v69h91v64q0 83 49 130t137 47q31 0 53 -5v-72q-32 4 -53 4q-52 0 -78.5 -26.5t-26.5 -77.5v-64h139v-69h-139v-467h-81v467z"/>
<glyph glyph-name="g" horiz-adv-x="578" unicode="g" d="M347 110q31 15 59 47v258q-26 29 -60.5 44.5t-72.5 15.5q-67 0 -101 -47.5t-34 -140.5q0 -95 35.5 -143.5t105.5 -48.5q37 0 68 15zM487 536v-536q0 -104 -62 -162t-172 -58q-41 0 -81 8.5t-68 23.5l24 70q58 -28 123 -28q76 0 115.5 37t39.5 109v91q-54 -74 -149 -74 t-149 71t-54 198q0 124 56.5 193.5t156.5 69.5q45 0 82.5 -18.5t62.5 -51.5v57h75z"/>
<glyph glyph-name="h" horiz-adv-x="583" unicode="h" d="M453.5 503.5q43.5 -45.5 43.5 -125.5v-378h-81v371q0 100 -109 100q-38 0 -70.5 -12.5t-64.5 -38.5v-420h-81v770h81v-286q32 32 72.5 48.5t86.5 16.5q79 0 122.5 -45.5z"/>
<glyph glyph-name="i" horiz-adv-x="267" unicode="i" d="M93 536h81v-536h-81v536zM91.5 644q-14.5 15 -14.5 41q0 27 14.5 42t41.5 15t41.5 -15t14.5 -41q0 -27 -14.5 -42t-41.5 -15t-41.5 15z"/>
<glyph glyph-name="j" horiz-adv-x="267" unicode="j" d="M-45 -152q55 19 84 41t41.5 55t12.5 86v506h81v-507q0 -72 -17 -117t-58 -75.5t-116 -56.5zM91.5 644q-14.5 15 -14.5 41q0 27 14.5 42t41.5 15t41.5 -15t14.5 -41q0 -27 -14.5 -42t-41.5 -15t-41.5 15z"/>
<glyph glyph-name="k" horiz-adv-x="539" unicode="k" d="M247 248l-75 -84v-164h-81v770h81v-506l232 272h99l-201 -226l212 -310h-98z"/>
<glyph glyph-name="l" horiz-adv-x="307" unicode="l" d="M89 113v657h81v-650q0 -28 13 -40.5t41 -12.5q18 0 39 4l8 -69q-32 -8 -65 -8q-117 0 -117 119z"/>
<glyph glyph-name="m" horiz-adv-x="884" unicode="m" d="M756 503.5q42 -45.5 42 -125.5v-378h-81v371q0 49 -26 74.5t-76 25.5q-36 0 -68 -13t-64 -40q3 -19 3 -40v-378h-81v371q0 49 -26.5 74.5t-76.5 25.5q-36 0 -67 -12.5t-63 -38.5v-420h-81v536h75v-59q66 72 160 72q51 0 88 -21.5t55 -61.5q72 83 170 83q75 0 117 -45.5z "/>
<glyph glyph-name="n" horiz-adv-x="581" unicode="n" d="M451.5 503.5q43.5 -45.5 43.5 -125.5v-378h-81v371q0 49 -27.5 74.5t-80.5 25.5q-38 0 -70 -12.5t-64 -38.5v-420h-81v536h75v-59q66 72 164 72q78 0 121.5 -45.5z"/>
<glyph glyph-name="o" horiz-adv-x="556" unicode="o" d="M382.5 112.5q35.5 52.5 35.5 155.5q0 102 -35.5 155t-103.5 53q-70 0 -105.5 -53t-35.5 -155q0 -103 35.5 -155.5t104.5 -52.5t104.5 52.5zM112 58.5q-58 71.5 -58 209.5t58.5 209.5t166.5 71.5q107 0 165 -71.5t58 -209.5q0 -137 -58 -209t-166 -72t-166 71.5z"/>
<glyph glyph-name="p" horiz-adv-x="575" unicode="p" d="M403.5 112q33.5 51 33.5 152q0 102 -35 154.5t-104 52.5q-37 0 -67.5 -15t-58.5 -47v-289q25 -28 59.5 -43.5t72.5 -15.5q66 0 99.5 51zM468 474q53 -75 53 -209q0 -131 -55.5 -204.5t-155.5 -73.5q-42 0 -77.5 16t-60.5 45v-255h-81v743h75v-40v-30q27 41 66 62t88 21 q95 0 148 -75z"/>
<glyph glyph-name="q" horiz-adv-x="575" unicode="q" d="M344.5 80q30.5 15 58.5 47v289q-25 28 -59.5 43.5t-72.5 15.5q-66 0 -99.5 -51.5t-33.5 -151.5q0 -103 35 -155t104 -52q37 0 67.5 15zM484 536v-743h-81v268q-54 -74 -148 -74q-95 0 -148 75t-53 209q0 131 55.5 204.5t155.5 73.5q44 0 81.5 -18t62.5 -51v56h75z"/>
<glyph glyph-name="r" horiz-adv-x="399" unicode="r" d="M377 534l-18 -79q-38 11 -69 11q-39 0 -67 -16t-51 -51v-399h-81v536h75v-76q56 87 145 87q36 0 66 -13z"/>
<glyph glyph-name="s" horiz-adv-x="464" unicode="s" d="M122.5 0.5q-47.5 12.5 -83.5 35.5l29 69q70 -44 153 -44q57 0 86.5 21t29.5 62q0 32 -18.5 51t-58.5 29l-71 17q-73 17 -108 53.5t-35 95.5q0 74 49.5 116t138.5 42q44 0 88 -11t79 -29l-32 -69q-70 36 -137 36q-52 0 -79 -20t-27 -58q0 -30 19 -48.5t59 -28.5l71 -17 q73 -17 107.5 -54.5t34.5 -98.5q0 -76 -52 -119t-144 -43q-51 0 -98.5 12.5z"/>
<glyph glyph-name="t" horiz-adv-x="385" unicode="t" d="M153 37.5q-42 44.5 -42 132.5v297h-91v69h91v158h81v-158h160v-69h-160v-285q0 -60 24 -88t74 -28q27 0 55 9l14 -70q-37 -12 -82 -12q-82 0 -124 44.5z"/>
<glyph glyph-name="u" horiz-adv-x="573" unicode="u" d="M482 536v-536h-75v66q-58 -79 -161 -79q-76 0 -119 45t-43 125v379h81v-371q0 -49 26.5 -74.5t78.5 -25.5q40 0 71.5 14.5t59.5 45.5v411h81z"/>
<glyph glyph-name="v" horiz-adv-x="520" unicode="v" d="M491 536l-186 -536h-89l-187 536h88l145 -449l143 449h86z"/>
<glyph glyph-name="w" horiz-adv-x="781" unicode="w" d="M749 536l-157 -536h-90l-113 423l-112 -423h-89l-157 536h87l116 -448l114 448h85l116 -448l115 448h85z"/>
<glyph glyph-name="x" horiz-adv-x="507" unicode="x" d="M379 0l-128 208l-125 -208h-93l175 271l-168 265h95l120 -198l124 198h94l-174 -262l176 -274h-96z"/>
<glyph glyph-name="y" horiz-adv-x="516" unicode="y" d="M487 536l-187 -539q-53 -150 -239 -216l-29 71q71 25 116 59.5t70 83.5l-189 541h88l142 -441l142 441h86z"/>
<glyph glyph-name="z" horiz-adv-x="464" unicode="z" d="M421 69v-69h-379v69l282 398h-274v69h367v-69l-282 -398h286z"/>
<glyph glyph-name="braceleft" horiz-adv-x="374" unicode="{" d="M209.5 -70q-38.5 25 -55.5 67.5t-17 110.5v122q0 40 -27.5 59t-84.5 20v66q57 1 84.5 20t27.5 59v123q0 68 17 110t55.5 67t106.5 40l19 -68q-48 -11 -74 -28t-37 -45t-11 -76v-123q0 -46 -19 -73.5t-59 -37.5q78 -21 78 -113v-122q0 -48 11 -76.5t37 -45.5t74 -28 l-19 -68q-68 15 -106.5 40z"/>
<glyph glyph-name="bar" horiz-adv-x="254" unicode="|" d="M95 816h63v-1066h-63v1066z"/>
<glyph glyph-name="braceright" horiz-adv-x="374" unicode="}" d="M39 -42q49 11 75 28t36.5 45.5t10.5 76.5v122q0 47 19.5 75t59.5 38q-40 10 -59.5 37.5t-19.5 73.5v123q0 48 -10.5 76t-36.5 45t-75 28l20 68q67 -15 105.5 -40t55.5 -67t17 -110v-123q0 -40 27.5 -59t84.5 -20v-66q-57 -1 -84.5 -20t-27.5 -59v-122q0 -68 -17 -110.5 t-55 -67.5t-106 -40z"/>
<glyph glyph-name="asciitilde" horiz-adv-x="572" unicode="~" d="M324.5 300.5q-20.5 8.5 -46.5 25.5q-23 15 -40 22t-38 7q-48 0 -95 -57l-50 51q68 81 145 81q28 0 49 -9t46 -25q23 -15 40 -22t37 -7q48 0 95 57l50 -51q-67 -81 -145 -81q-27 0 -47.5 8.5z"/>
<glyph glyph-name="uni00A0" horiz-adv-x="227" unicode=" "/>
<glyph glyph-name="exclamdown" horiz-adv-x="349" unicode="¡" d="M223 -190h-95l15 526h65zM218.5 531.5q15.5 -15.5 15.5 -43.5t-15.5 -44t-43.5 -16t-43.5 15.5t-15.5 43.5q0 29 15.5 44.5t43.5 15.5t43.5 -15.5z"/>
<glyph glyph-name="cent" horiz-adv-x="475" unicode="¢" d="M157.5 163q25.5 -45 79.5 -58v353q-105 -24 -105 -171q0 -79 25.5 -124zM372 39.5q-34 -11.5 -69 -13.5v-111h-66v115q-89 14 -138 80t-49 172q0 100 51 167t136 81v115h66v-112q73 -5 124 -38l-30 -62q-47 24 -94 28v-362q51 3 101 32l29 -61q-27 -19 -61 -30.5z"/>
<glyph glyph-name="sterling" horiz-adv-x="531" unicode="£" d="M150 74h319v-74h-401v74l33 39q66 76 66 191q0 17 -1 25h-107v71h94q-9 26 -21 49q-15 33 -22 56.5t-7 56.5q0 83 50.5 129t142.5 46q111 0 175 -63l-41 -68q-53 52 -134 52q-107 0 -107 -95q0 -23 6 -42t19 -51q17 -40 25 -70h167v-71h-157v-12q0 -142 -99 -243z"/>
<glyph glyph-name="currency" horiz-adv-x="591" unicode="¤" d="M399.5 181q35.5 45 35.5 132t-35.5 131.5t-103.5 44.5q-69 0 -104 -44.5t-35 -131.5t35 -132t104 -45q68 0 103.5 45zM467 135l70 -87l-56 -44l-69 85q-48 -27 -116 -27q-67 0 -117 27l-69 -85l-56 44l70 87q-53 67 -53 178q0 110 53 177l-70 87l56 44l69 -85 q50 27 117 27q68 0 116 -27l69 85l56 -44l-70 -87q53 -65 53 -177q0 -113 -53 -178z"/>
<glyph glyph-name="yen" horiz-adv-x="539" unicode="¥" d="M338 333h114v-65h-143v-79h143v-66h-143v-123h-81v123h-142v66h142v79h-142v65h113l-174 391h90l155 -387l155 387h89z"/>
<glyph glyph-name="brokenbar" horiz-adv-x="254" unicode="¦" d="M95 198h63v-448h-63v448zM95 816h63v-447h-63v447z"/>
<glyph glyph-name="section" horiz-adv-x="532" unicode="§" d="M308 154q29 -9 44 -16q36 41 36 97q0 46 -23 72.5t-76 41.5l-62 18q-20 6 -46 17q-37 -40 -37 -96q0 -46 23.5 -73t78.5 -43zM464 -29q0 -87 -52.5 -135.5t-147.5 -48.5q-48 0 -100 13t-97 37l31 71q92 -46 166 -46q60 0 89 25.5t29 79.5q0 44 -21.5 68.5t-71.5 38.5 l-62 18q-82 23 -121 68t-39 116q0 87 55 145q-50 47 -50 128q0 89 54 138t151 49q44 0 88 -9.5t79 -27.5l-29 -71q-70 33 -140 33q-62 0 -91.5 -26t-29.5 -80q0 -44 21.5 -69.5t70.5 -38.5l62 -18q80 -23 118 -67.5t38 -115.5q0 -86 -53 -145q53 -46 53 -130z"/>
<glyph glyph-name="dieresis" horiz-adv-x="500" unicode="¨" d="M304 641.5q-14 14.5 -14 39.5q0 26 14 40.5t39 14.5t39 -14t14 -40t-14 -40.5t-39 -14.5t-39 14.5zM118 641.5q-14 14.5 -14 39.5q0 26 14 40.5t39 14.5t39 -14.5t14 -39.5q0 -26 -14 -40.5t-39 -14.5t-39 14.5z"/>
<glyph glyph-name="copyright" horiz-adv-x="831" unicode="©" d="M313.5 226.5q-41.5 48.5 -41.5 135.5t40.5 135.5t113.5 48.5q29 0 56.5 -7.5t48.5 -20.5l-26 -53q-43 23 -80 23q-44 0 -66.5 -31t-22.5 -91q0 -130 97 -130q40 0 78 23l23 -52q-20 -14 -47.5 -21.5t-57.5 -7.5q-74 0 -115.5 48.5zM612.5 128q69.5 83 69.5 234t-69.5 234 t-196.5 83q-128 0 -197.5 -83t-69.5 -234t69.5 -234t197.5 -83q127 0 196.5 83zM241.5 31q-73.5 44 -112.5 128.5t-39 202.5t39 202.5t112.5 128.5t174.5 44t174 -44t112 -128.5t39 -202.5t-39 -202.5t-112 -128.5t-174 -44t-174.5 44z"/>
<glyph glyph-name="ordfeminine" horiz-adv-x="518" unicode="ª" d="M95 189h317v-65h-317v65zM246 358q54 0 93 15v133q-103 0 -147.5 -19t-44.5 -63q0 -66 99 -66zM370.5 695.5q42.5 -34.5 42.5 -95.5v-269q-36 -19 -80 -29t-87 -10q-82 0 -128 34t-46 96q0 76 62 109t205 34v25q0 35 -25 53.5t-72 18.5q-50 0 -109 -25l-20 60 q62 33 138 33q77 0 119.5 -34.5z"/>
<glyph glyph-name="guillemotleft" horiz-adv-x="583" unicode="«" d="M369 287l170 -196l-54 -51l-213 246l214 246l53 -52zM136 287l170 -196l-54 -51l-213 246l214 246l53 -52z"/>
<glyph glyph-name="logicalnot" horiz-adv-x="572" unicode="¬" d="M503 490v-77v-168h-79v168h-355v77h434z"/>
<glyph glyph-name="uni00AD" horiz-adv-x="406" unicode="­" d="M54 332h298v-71h-298v71z"/>
<glyph glyph-name="registered" horiz-adv-x="831" unicode="®" d="M366 354h58q24 0 36.5 16t12.5 47q0 32 -13.5 48.5t-39.5 16.5h-54v-128zM522 352.5q-16 -28.5 -46 -41.5l77 -127h-73l-64 116h-50v-116h-61v356h120q53 0 83 -31.5t30 -87.5q0 -40 -16 -68.5zM612.5 128q69.5 83 69.5 234t-69.5 234t-196.5 83q-128 0 -197.5 -83 t-69.5 -234t69.5 -234t197.5 -83q127 0 196.5 83zM590 693q73 -44 112 -128.5t39 -202.5t-39 -202.5t-112 -128.5t-174 -44t-174.5 44t-112.5 128.5t-39 202.5t39 202.5t112.5 128.5t174.5 44t174 -44z"/>
<glyph glyph-name="macron" horiz-adv-x="500" unicode="¯" d="M105 703h290v-63h-290v63z"/>
<glyph glyph-name="degree" horiz-adv-x="449" unicode="°" d="M292 491.5q26 27.5 26 71.5t-26 71.5t-67 27.5q-42 0 -68 -27.5t-26 -71.5t26 -71.5t68 -27.5q41 0 67 27.5zM101 438.5q-48 48.5 -48 124.5t48 124.5t124 48.5t123.5 -48t47.5 -125t-47.5 -125t-123.5 -48t-124 48.5z"/>
<glyph glyph-name="plusminus" horiz-adv-x="572" unicode="±" d="M55 160h462v-74h-462v74zM517 485v-76h-192v-182h-78v182h-192v76h192v182h78v-182h192z"/>
<glyph glyph-name="uni00B2" horiz-adv-x="376" unicode="²" d="M323 391v-61h-291v61l163 170q27 28 37 46.5t10 41.5q0 30 -17.5 46t-49.5 16q-54 0 -113 -39l-32 54q33 24 72.5 37.5t78.5 13.5q63 0 98.5 -32t35.5 -90q0 -34 -15.5 -63.5t-55.5 -70.5l-127 -130h206z"/>
<glyph glyph-name="uni00B3" horiz-adv-x="400" unicode="³" d="M301.5 562q35.5 -35 35.5 -96q0 -68 -44.5 -105.5t-123.5 -37.5q-40 0 -76 10.5t-63 29.5l27 59q51 -33 112 -33q93 0 93 77q0 74 -87 74q-26 0 -49 -6l-24 34l133 141h-195v61h276v-61l-114 -111q64 -1 99.5 -36z"/>
<glyph glyph-name="acute" horiz-adv-x="500" unicode="´" d="M197 625l102 159h92v-10l-132 -159h-62v10z"/>
<glyph glyph-name="uni00B5" horiz-adv-x="587" unicode="µ" d="M496 536v-536h-74v67q-58 -79 -159 -79q-61 0 -91 34v-229h-81v534v209h81v-363q0 -54 27.5 -81.5t80.5 -27.5q42 0 74.5 14.5t60.5 46.5v411h81z"/>
<glyph glyph-name="paragraph" horiz-adv-x="573" unicode="¶" d="M477 0h-70v654h-78v-654h-69v321h-2q-107 0 -166.5 53t-59.5 148t60.5 148.5t169.5 53.5h215v-724z"/>
<glyph glyph-name="periodcentered" horiz-adv-x="249" unicode="·" d="M80.5 290q-15.5 16 -15.5 44t15.5 43.5t43.5 15.5t43.5 -15t15.5 -43q0 -29 -15.5 -45t-43.5 -16t-43.5 16z"/>
<glyph glyph-name="cedilla" horiz-adv-x="500" unicode="¸" d="M335.5 -79.5q27.5 -21.5 27.5 -59.5q0 -43 -31 -66.5t-87 -23.5q-57 0 -102 24l16 46q49 -19 84 -19q26 0 39.5 9.5t13.5 28.5q0 38 -49 38q-22 0 -43 -9l-23 26l46 105l61 -6l-50 -75q11 3 21 3q49 0 76.5 -21.5z"/>
<glyph glyph-name="uni00B9" horiz-adv-x="334" unicode="¹" d="M212 770v-440h-70v367l-96 -33l-20 57l131 49h55z"/>
<glyph glyph-name="ordmasculine" horiz-adv-x="524" unicode="º" d="M104 189h317v-65h-317v65zM345 396q28 39 28 115t-28 115t-82 39q-55 0 -83.5 -39t-28.5 -115t28 -115t83 -39t83 39zM123 347q-49 56 -49 164t49.5 164t139.5 56q89 0 138 -56t49 -164t-49 -164t-139 -56t-139 56z"/>
<glyph glyph-name="guillemotright" horiz-adv-x="583" unicode="»" d="M544 286l-214 -246l-53 52l170 193l-170 196l54 51zM311 286l-214 -246l-53 52l170 193l-170 196l54 51z"/>
<glyph glyph-name="onequarter" horiz-adv-x="887" unicode="¼" d="M727 146v234l-133 -234h133zM853 146v-60h-57v-86h-69v86h-206v60l174 294h101v-294h57zM142 284v367l-96 -33l-20 57l131 49h55v-440h-70zM663 702l-424 -714l-58 34l423 714z"/>
<glyph glyph-name="onehalf" horiz-adv-x="924" unicode="½" d="M872 61v-61h-291v61l163 171q27 27 37 45.5t10 41.5q0 30 -17.5 46t-49.5 16q-54 0 -113 -39l-32 54q33 24 72.5 37.5t78.5 13.5q63 0 98.5 -32t35.5 -90q0 -33 -15.5 -62.5t-55.5 -71.5l-127 -130h206zM142 284v367l-96 -33l-20 57l131 49h55v-440h-70zM663 702 l-424 -714l-58 34l423 714z"/>
<glyph glyph-name="threequarters" horiz-adv-x="971" unicode="¾" d="M811 146v234l-133 -234h133zM937 146v-60h-57v-86h-69v86h-206v60l174 294h101v-294h57zM293 315q-44 -38 -124 -38q-40 0 -76 10.5t-63 29.5l27 59q51 -33 112 -33q46 0 69.5 19.5t23.5 57.5q0 75 -87 75q-26 0 -49 -6l-24 33l133 141h-195v61h276v-61l-114 -111 q64 -1 99.5 -36t35.5 -95q0 -68 -44 -106zM747 702l-424 -714l-58 34l423 714z"/>
<glyph glyph-name="questiondown" horiz-adv-x="465" unicode="¿" d="M330 276q0 -56 -23 -95t-87 -88q-40 -32 -54.5 -55t-14.5 -57q0 -105 116 -105q77 0 160 52l34 -70q-87 -61 -196 -61q-95 0 -148 47t-53 132q0 50 22.5 86.5t79.5 80.5q50 39 67 66t17 70q0 23 -3 57h80q3 -37 3 -60zM330 531.5q16 -15.5 16 -43.5t-15.5 -44t-44.5 -16 q-28 0 -43.5 15.5t-15.5 43.5t15.5 44t43.5 16t44 -15.5z"/>
<glyph glyph-name="Agrave" horiz-adv-x="667" unicode="À" d="M457 266l-125 370l-124 -370h249zM482 192h-299l-64 -192h-89l257 724h93l257 -724h-90zM325 781l-173 133v12h103l142 -133v-12h-72z"/>
<glyph glyph-name="Aacute" horiz-adv-x="667" unicode="Á" d="M457 266l-125 370l-124 -370h249zM482 192h-299l-64 -192h-89l257 724h93l257 -724h-90zM340 781h-72v12l152 133h102v-12z"/>
<glyph glyph-name="Acircumflex" horiz-adv-x="667" unicode="Â" d="M457 266l-125 370l-124 -370h249zM482 192h-299l-64 -192h-89l257 724h93l257 -724h-90zM235 781h-63v12l117 133h88l117 -133v-12h-66l-96 91z"/>
<glyph glyph-name="Atilde" horiz-adv-x="667" unicode="Ã" d="M457 266l-125 370l-124 -370h249zM482 192h-299l-64 -192h-89l257 724h93l257 -724h-90zM219 791h-52q2 61 26.5 95t69.5 34q26 0 45 -10t45 -29q18 -14 29 -20.5t23 -6.5q34 0 42 64h52q-2 -61 -26.5 -95t-69.5 -34q-26 0 -45 10t-45 29q-18 14 -29 20.5t-23 6.5 q-34 0 -42 -64z"/>
<glyph glyph-name="Adieresis" horiz-adv-x="667" unicode="Ä" d="M457 266l-125 370l-124 -370h249zM482 192h-299l-64 -192h-89l257 724h93l257 -724h-90zM391.5 810q-13.5 14 -13.5 40t13.5 40.5t38.5 14.5t39 -14.5t14 -39.5q0 -26 -14 -40.5t-39 -14.5t-38.5 14zM196.5 810q-13.5 14 -13.5 40t13.5 40.5t38.5 14.5t39 -14.5t14 -39.5 q0 -26 -14 -40.5t-39 -14.5t-38.5 14z"/>
<glyph glyph-name="Aring" horiz-adv-x="667" unicode="Å" d="M457 266l-125 370l-124 -370h249zM482 192h-299l-64 -192h-89l257 724h93l257 -724h-90zM273 876q0 -29 15.5 -44.5t44.5 -15.5t44.5 15.5t15.5 44.5q0 60 -60 60t-60 -60zM245.5 796.5q-31.5 28.5 -31.5 79.5q0 52 31.5 80t87.5 28t87.5 -28t31.5 -80q0 -51 -31.5 -79.5 t-87.5 -28.5t-87.5 28.5z"/>
<glyph glyph-name="AE" horiz-adv-x="903" unicode="Æ" d="M440 258v405l-215 -405h215zM859 75v-75h-419v184h-254l-98 -184h-91l390 724h85h375v-75h-327v-241h241v-76h-241v-257h339z"/>
<glyph glyph-name="Ccedilla" horiz-adv-x="600" unicode="Ç" d="M436.5 -79.5q27.5 -21.5 27.5 -59.5q0 -43 -31 -66.5t-87 -23.5q-57 0 -102 24l16 46q49 -19 84 -19q26 0 39.5 9.5t13.5 28.5q0 38 -49 38q-22 0 -43 -9l-23 26l34 77q-126 17 -195 110t-69 246q0 117 39 205t110.5 136t166.5 48q49 0 97.5 -13t88.5 -36l-31 -67 q-81 39 -157 39q-107 0 -167 -80t-60 -225q0 -143 61 -216t179 -73q89 0 150 35l31 -66q-31 -22 -80.5 -34.5t-106.5 -12.5h-1l-33 -49q10 3 21 3q49 0 76.5 -21.5z"/>
<glyph glyph-name="Egrave" horiz-adv-x="575" unicode="È" d="M531 75v-75h-436v724h424v-75h-341v-241h255v-76h-255v-257h353zM304 781l-173 133v12h103l142 -133v-12h-72z"/>
<glyph glyph-name="Eacute" horiz-adv-x="575" unicode="É" d="M531 75v-75h-436v724h424v-75h-341v-241h255v-76h-255v-257h353zM319 781h-72v12l152 133h102v-12z"/>
<glyph glyph-name="Ecircumflex" horiz-adv-x="575" unicode="Ê" d="M531 75v-75h-436v724h424v-75h-341v-241h255v-76h-255v-257h353zM214 781h-63v12l117 133h88l117 -133v-12h-66l-96 91z"/>
<glyph glyph-name="Edieresis" horiz-adv-x="575" unicode="Ë" d="M531 75v-75h-436v724h424v-75h-341v-241h255v-76h-255v-257h353zM370.5 810q-13.5 14 -13.5 40t13.5 40.5t38.5 14.5t39 -14.5t14 -39.5q0 -26 -14 -40.5t-39 -14.5t-38.5 14zM175.5 810q-13.5 14 -13.5 40t13.5 40.5t38.5 14.5t39 -14.5t14 -39.5q0 -26 -14 -40.5 t-39 -14.5t-38.5 14z"/>
<glyph glyph-name="Igrave" horiz-adv-x="277" unicode="Ì" d="M97 724h83v-724h-83v724zM-42 914v12h103l142 -133v-12h-72z"/>
<glyph glyph-name="Iacute" horiz-adv-x="277" unicode="Í" d="M97 724h83v-724h-83v724zM74 793l152 133h102v-12l-182 -133h-72v12z"/>
<glyph glyph-name="Icircumflex" horiz-adv-x="277" unicode="Î" d="M97 724h83v-724h-83v724zM300 793v-12h-66l-96 91l-97 -91h-63v12l117 133h88z"/>
<glyph glyph-name="Idieresis" horiz-adv-x="277" unicode="Ï" d="M97 724h83v-724h-83v724zM197.5 810q-13.5 14 -13.5 40t13.5 40.5t38.5 14.5t39 -14.5t14 -39.5q0 -26 -14 -40.5t-39 -14.5t-38.5 14zM2.5 810q-13.5 14 -13.5 40t13.5 40.5t38.5 14.5t39 -14.5t14 -39.5q0 -26 -14 -40.5t-39 -14.5t-38.5 14z"/>
<glyph glyph-name="Eth" horiz-adv-x="689" unicode="Ð" d="M478 147.5q62 72.5 62 214.5t-63 214.5t-187 72.5h-113v-247h186v-71h-186v-256h117q122 0 184 72.5zM541.5 632q85.5 -92 85.5 -270t-86 -270t-250 -92h-197v331h-67v71h67v322h200q162 0 247.5 -92z"/>
<glyph glyph-name="Ntilde" horiz-adv-x="723" unicode="Ñ" d="M627 724v-724h-78l-373 583v-583h-81v724h78l373 -582v582h81zM247 791h-52q2 61 26.5 95t69.5 34q26 0 45 -10t45 -29q18 -14 29 -20.5t23 -6.5q34 0 42 64h52q-2 -61 -26.5 -95t-69.5 -34q-26 0 -45 10t-45 29q-18 14 -29 20.5t-23 6.5q-34 0 -42 -64z"/>
<glyph glyph-name="Ograve" horiz-adv-x="713" unicode="Ò" d="M511.5 138q52.5 76 52.5 224t-52.5 224t-155.5 76t-155 -76t-52 -224t52 -224t155 -76t155.5 76zM137.5 82.5q-75.5 95.5 -75.5 279.5t75.5 279.5t218.5 95.5t219 -95.5t76 -279.5t-76 -279.5t-219 -95.5t-218.5 95.5zM175 914v12h103l142 -133v-12h-72z"/>
<glyph glyph-name="Oacute" horiz-adv-x="713" unicode="Ó" d="M511.5 138q52.5 76 52.5 224t-52.5 224t-155.5 76t-155 -76t-52 -224t52 -224t155 -76t155.5 76zM137.5 82.5q-75.5 95.5 -75.5 279.5t75.5 279.5t218.5 95.5t219 -95.5t76 -279.5t-76 -279.5t-219 -95.5t-218.5 95.5zM291 793l152 133h102v-12l-182 -133h-72v12z"/>
<glyph glyph-name="Ocircumflex" horiz-adv-x="713" unicode="Ô" d="M511.5 138q52.5 76 52.5 224t-52.5 224t-155.5 76t-155 -76t-52 -224t52 -224t155 -76t155.5 76zM575 641.5q76 -95.5 76 -279.5t-76 -279.5t-219 -95.5t-218.5 95.5t-75.5 279.5t75.5 279.5t218.5 95.5t219 -95.5zM258 781h-63v12l117 133h88l117 -133v-12h-66l-96 91z "/>
<glyph glyph-name="Otilde" horiz-adv-x="713" unicode="Õ" d="M511.5 138q52.5 76 52.5 224t-52.5 224t-155.5 76t-155 -76t-52 -224t52 -224t155 -76t155.5 76zM137.5 82.5q-75.5 95.5 -75.5 279.5t75.5 279.5t218.5 95.5t219 -95.5t76 -279.5t-76 -279.5t-219 -95.5t-218.5 95.5zM381 799q-19 10 -45 29q-18 14 -29 20.5t-23 6.5 q-34 0 -42 -64h-52q2 61 26.5 95t69.5 34q26 0 45 -10t45 -29q18 -14 29 -20.5t23 -6.5q34 0 42 64h52q-2 -61 -26.5 -95t-69.5 -34q-26 0 -45 10z"/>
<glyph glyph-name="Odieresis" horiz-adv-x="713" unicode="Ö" d="M511.5 138q52.5 76 52.5 224t-52.5 224t-155.5 76t-155 -76t-52 -224t52 -224t155 -76t155.5 76zM137.5 82.5q-75.5 95.5 -75.5 279.5t75.5 279.5t218.5 95.5t219 -95.5t76 -279.5t-76 -279.5t-219 -95.5t-218.5 95.5zM414.5 810q-13.5 14 -13.5 40t13.5 40.5t38.5 14.5 t39 -14.5t14 -39.5q0 -26 -14 -40.5t-39 -14.5t-38.5 14zM219.5 810q-13.5 14 -13.5 40t13.5 40.5t38.5 14.5t39 -14.5t14 -39.5q0 -26 -14 -40.5t-39 -14.5t-38.5 14z"/>
<glyph glyph-name="multiply" horiz-adv-x="572" unicode="×" d="M338 368l159 -167l-52 -54l-159 167l-158 -167l-53 54l159 167l-159 167l53 54l158 -167l159 167l52 -54z"/>
<glyph glyph-name="Oslash" horiz-adv-x="713" unicode="Ø" d="M513 136.5q53 76.5 53 225.5q0 113 -27 183l-333 -424q51 -61 150 -61q104 0 157 76.5zM199 587.5q-53 -76.5 -53 -225.5q0 -113 27 -183l333 424q-49 61 -150 61q-104 0 -157 -76.5zM681 722l-87 -108q57 -96 57 -252q0 -184 -76 -279.5t-219 -95.5q-122 0 -197 73 l-54 -70h-73v12l87 108q-57 93 -57 252q0 184 75.5 279.5t218.5 95.5q123 0 198 -73l53 70h74v-12z"/>
<glyph glyph-name="Ugrave" horiz-adv-x="685" unicode="Ù" d="M156 58q-66 71 -66 198v468h83v-467q0 -96 43 -145.5t126 -49.5q84 0 126.5 49.5t42.5 145.5v467h83v-468q0 -128 -66.5 -198.5t-186.5 -70.5q-119 0 -185 71zM161 914v12h103l142 -133v-12h-72z"/>
<glyph glyph-name="Uacute" horiz-adv-x="685" unicode="Ú" d="M156 58q-66 71 -66 198v468h83v-467q0 -96 43 -145.5t126 -49.5q84 0 126.5 49.5t42.5 145.5v467h83v-468q0 -128 -66.5 -198.5t-186.5 -70.5q-119 0 -185 71zM277 793l152 133h102v-12l-182 -133h-72v12z"/>
<glyph glyph-name="Ucircumflex" horiz-adv-x="685" unicode="Û" d="M594 724v-468q0 -128 -66.5 -198.5t-186.5 -70.5q-119 0 -185 71t-66 198v468h83v-467q0 -96 43 -145.5t126 -49.5q84 0 126.5 49.5t42.5 145.5v467h83zM244 781h-63v12l117 133h88l117 -133v-12h-66l-96 91z"/>
<glyph glyph-name="Udieresis" horiz-adv-x="685" unicode="Ü" d="M156 58q-66 71 -66 198v468h83v-467q0 -96 43 -145.5t126 -49.5q84 0 126.5 49.5t42.5 145.5v467h83v-468q0 -128 -66.5 -198.5t-186.5 -70.5q-119 0 -185 71zM400.5 810q-13.5 14 -13.5 40t13.5 40.5t38.5 14.5t39 -14.5t14 -39.5q0 -26 -14 -40.5t-39 -14.5t-38.5 14z M205.5 810q-13.5 14 -13.5 40t13.5 40.5t38.5 14.5t39 -14.5t14 -39.5q0 -26 -14 -40.5t-39 -14.5t-38.5 14z"/>
<glyph glyph-name="Yacute" horiz-adv-x="587" unicode="Ý" d="M561 724l-227 -467v-257h-83v257l-225 467h92l176 -372l176 372h91zM299 781h-72v12l152 133h102v-12z"/>
<glyph glyph-name="Thorn" horiz-adv-x="614" unicode="Þ" d="M444.5 254.5q35.5 39.5 35.5 116.5q0 76 -36 115t-106 39h-160v-310h162q69 0 104.5 39.5zM507 540q60 -60 60 -169t-60.5 -170t-168.5 -61h-160v-140h-83v724h83v-124h162q107 0 167 -60z"/>
<glyph glyph-name="germandbls" horiz-adv-x="597" unicode="ß" d="M502.5 342.5q50.5 -57.5 50.5 -148.5q0 -95 -55 -148t-153 -53q-57 0 -109 15l20 71q39 -14 89 -14q63 0 95.5 32t32.5 94q0 79 -52 122.5t-154 49.5v68q69 30 101 71t32 97q0 52 -26.5 78.5t-77.5 26.5q-61 0 -92.5 -36.5t-31.5 -107.5v-560h-81v560q0 103 53.5 160 t149.5 57q87 0 135.5 -46t48.5 -129q0 -128 -118 -185q92 -17 142.5 -74.5z"/>
<glyph glyph-name="agrave" horiz-adv-x="529" unicode="à" d="M365 125v147q-124 -1 -183 -29.5t-59 -87.5q0 -46 26.5 -69.5t78.5 -23.5q80 0 137 63zM392 505.5q53 -43.5 53 -127.5v-378h-74v67q-26 -39 -67 -58.5t-94 -19.5q-80 0 -124 42t-44 118q0 95 78.5 140.5t244.5 46.5v35q0 50 -31.5 76t-92.5 26q-67 0 -126 -28l-21 67 q73 37 157 37q88 0 141 -43.5zM124 774v10h92l94 -159v-10h-62z"/>
<glyph glyph-name="aacute" horiz-adv-x="529" unicode="á" d="M365 125v147q-124 -1 -183 -29.5t-59 -87.5q0 -46 26.5 -69.5t78.5 -23.5q80 0 137 63zM392 505.5q53 -43.5 53 -127.5v-378h-74v67q-26 -39 -67 -58.5t-94 -19.5q-80 0 -124 42t-44 118q0 95 78.5 140.5t244.5 46.5v35q0 50 -31.5 76t-92.5 26q-67 0 -126 -28l-21 67 q73 37 157 37q88 0 141 -43.5zM200 625l101 159h93v-10l-132 -159h-62v10z"/>
<glyph glyph-name="acircumflex" horiz-adv-x="529" unicode="â" d="M365 125v147q-124 -1 -183 -29.5t-59 -87.5q0 -46 26.5 -69.5t78.5 -23.5q80 0 137 63zM392 505.5q53 -43.5 53 -127.5v-378h-74v67q-26 -39 -67 -58.5t-94 -19.5q-80 0 -124 42t-44 118q0 95 78.5 140.5t244.5 46.5v35q0 50 -31.5 76t-92.5 26q-67 0 -126 -28l-21 67 q73 37 157 37q88 0 141 -43.5zM396 625v-10h-60l-85 109l-84 -109h-57v10l102 159h82z"/>
<glyph glyph-name="atilde" horiz-adv-x="529" unicode="ã" d="M365 125v147q-124 -1 -183 -29.5t-59 -87.5q0 -46 26.5 -69.5t78.5 -23.5q80 0 137 63zM392 505.5q53 -43.5 53 -127.5v-378h-74v67q-26 -39 -67 -58.5t-94 -19.5q-80 0 -124 42t-44 118q0 95 78.5 140.5t244.5 46.5v35q0 50 -31.5 76t-92.5 26q-67 0 -126 -28l-21 67 q73 37 157 37q88 0 141 -43.5zM278 629q-19 10 -45 29q-18 14 -29 20.5t-23 6.5q-34 0 -42 -64h-52q2 61 26.5 95t69.5 34q26 0 45 -10t45 -29q18 -14 29 -20.5t23 -6.5q34 0 42 64h52q-2 -61 -26.5 -95t-69.5 -34q-26 0 -45 10z"/>
<glyph glyph-name="adieresis" horiz-adv-x="529" unicode="ä" d="M365 125v147q-124 -1 -183 -29.5t-59 -87.5q0 -46 26.5 -69.5t78.5 -23.5q80 0 137 63zM392 505.5q53 -43.5 53 -127.5v-378h-74v67q-26 -39 -67 -58.5t-94 -19.5q-80 0 -124 42t-44 118q0 95 78.5 140.5t244.5 46.5v35q0 50 -31.5 76t-92.5 26q-67 0 -126 -28l-21 67 q73 37 157 37q88 0 141 -43.5zM307.5 641q-13.5 14 -13.5 40t13.5 40.5t38.5 14.5t39 -14.5t14 -39.5q0 -26 -14 -40.5t-39 -14.5t-38.5 14zM120.5 641q-13.5 14 -13.5 40t13.5 40.5t38.5 14.5t39 -14.5t14 -39.5q0 -26 -14 -40.5t-39 -14.5t-38.5 14z"/>
<glyph glyph-name="aring" horiz-adv-x="529" unicode="å" d="M365 125v147q-124 -1 -183 -29.5t-59 -87.5q0 -46 26.5 -69.5t78.5 -23.5q80 0 137 63zM392 505.5q53 -43.5 53 -127.5v-378h-74v67q-26 -39 -67 -58.5t-94 -19.5q-80 0 -124 42t-44 118q0 95 78.5 140.5t244.5 46.5v35q0 50 -31.5 76t-92.5 26q-67 0 -126 -28l-21 67 q73 37 157 37q88 0 141 -43.5zM297.5 665.5q15.5 15.5 15.5 45.5q0 61 -60 61t-60 -61q0 -30 15.5 -45.5t44.5 -15.5t44.5 15.5zM166 631.5q-31 28.5 -31 79.5q0 52 31 80t87 28t87 -28t31 -80q0 -51 -31 -79.5t-87 -28.5t-87 28.5z"/>
<glyph glyph-name="ae" horiz-adv-x="828" unicode="æ" d="M370 144q-17 54 -17 121q-118 -1 -174 -28t-56 -83q0 -45 25.5 -68.5t75.5 -23.5q83 0 146 82zM474 434.5q-33 -41.5 -40 -123.5h264q-1 78 -35.5 121.5t-96.5 43.5q-59 0 -92 -41.5zM776 245h-343q5 -89 45 -135t114 -46q70 0 132 40l30 -64q-31 -25 -75.5 -38.5 t-92.5 -13.5q-63 0 -111.5 25t-77.5 73q-41 -50 -88 -73.5t-104 -23.5q-77 0 -120 42t-43 117q0 92 76 136t237 45v42q0 50 -30 76t-89 26q-64 0 -121 -28l-21 67q39 20 79 28.5t74 8.5q57 0 98.5 -22t61.5 -63q25 41 66.5 63t94.5 22q100 0 156 -68t56 -190q0 -20 -4 -46z "/>
<glyph glyph-name="ccedilla" horiz-adv-x="480" unicode="ç" d="M350.5 -79.5q27.5 -21.5 27.5 -59.5q0 -43 -31 -66.5t-87 -23.5q-57 0 -102 24l16 46q49 -19 84 -19q26 0 39.5 9.5t13.5 28.5q0 38 -49 38q-22 0 -43 -9l-23 26l35 79q-87 19 -134 90t-47 184q0 84 29.5 147.5t83 98.5t123.5 35q40 0 80 -11.5t73 -32.5l-31 -66 q-65 35 -124 35q-71 0 -110.5 -52.5t-39.5 -146.5q0 -104 41.5 -157.5t121.5 -53.5q60 0 118 33l30 -64q-29 -22 -69 -33.5t-85 -11.5h-5l-33 -49q11 3 21 3q49 0 76.5 -21.5z"/>
<glyph glyph-name="egrave" horiz-adv-x="539" unicode="è" d="M136 311h273q-1 78 -37 121.5t-99 43.5q-123 0 -137 -165zM487 245h-352q4 -90 45.5 -135.5t117.5 -45.5q75 0 137 40l31 -64q-32 -25 -77.5 -38.5t-95.5 -13.5q-114 0 -177.5 74t-63.5 206q0 133 58.5 207t164.5 74q102 0 159 -68t57 -190q0 -29 -4 -46zM146 774v10h92 l94 -159v-10h-62z"/>
<glyph glyph-name="eacute" horiz-adv-x="539" unicode="é" d="M136 311h273q-1 78 -37 121.5t-99 43.5q-123 0 -137 -165zM487 245h-352q4 -90 45.5 -135.5t117.5 -45.5q75 0 137 40l31 -64q-32 -25 -77.5 -38.5t-95.5 -13.5q-114 0 -177.5 74t-63.5 206q0 133 58.5 207t164.5 74q102 0 159 -68t57 -190q0 -29 -4 -46zM222 625 l101 159h93v-10l-132 -159h-62v10z"/>
<glyph glyph-name="ecircumflex" horiz-adv-x="539" unicode="ê" d="M136 311h273q-1 78 -37 121.5t-99 43.5q-123 0 -137 -165zM487 245h-352q4 -90 45.5 -135.5t117.5 -45.5q75 0 137 40l31 -64q-32 -25 -77.5 -38.5t-95.5 -13.5q-114 0 -177.5 74t-63.5 206q0 133 58.5 207t164.5 74q102 0 159 -68t57 -190q0 -29 -4 -46zM418 625v-10 h-60l-85 109l-84 -109h-57v10l102 159h82z"/>
<glyph glyph-name="edieresis" horiz-adv-x="539" unicode="ë" d="M136 311h273q-1 78 -37 121.5t-99 43.5q-123 0 -137 -165zM487 245h-352q4 -90 45.5 -135.5t117.5 -45.5q75 0 137 40l31 -64q-32 -25 -77.5 -38.5t-95.5 -13.5q-114 0 -177.5 74t-63.5 206q0 133 58.5 207t164.5 74q102 0 159 -68t57 -190q0 -29 -4 -46zM329.5 641 q-13.5 14 -13.5 40t13.5 40.5t38.5 14.5t39 -14.5t14 -39.5q0 -26 -14 -40.5t-39 -14.5t-38.5 14zM142.5 641q-13.5 14 -13.5 40t13.5 40.5t38.5 14.5t39 -14.5t14 -39.5q0 -26 -14 -40.5t-39 -14.5t-38.5 14z"/>
<glyph glyph-name="igrave" horiz-adv-x="267" unicode="ì" d="M93 536h81v-536h-81v536zM4 774v10h92l94 -159v-10h-62z"/>
<glyph glyph-name="iacute" horiz-adv-x="267" unicode="í" d="M93 536h81v-536h-81v536zM80 625l101 159h93v-10l-132 -159h-62v10z"/>
<glyph glyph-name="icircumflex" horiz-adv-x="267" unicode="î" d="M93 536h81v-536h-81v536zM276 625v-10h-60l-85 109l-84 -109h-57v10l102 159h82z"/>
<glyph glyph-name="idieresis" horiz-adv-x="267" unicode="ï" d="M93 536h81v-536h-81v536zM177 641q-14 14 -14 40t14 40.5t39 14.5t38.5 -14.5t13.5 -39.5q0 -26 -13.5 -40.5t-38.5 -14.5t-39 14zM11 641q-14 14 -14 40t14 40.5t39 14.5t38.5 -14.5t13.5 -39.5q0 -26 -13.5 -40.5t-38.5 -14.5t-39 14z"/>
<glyph glyph-name="eth" horiz-adv-x="556" unicode="ð" d="M382.5 111q36.5 51 36.5 149q0 93 -38 145.5t-105 52.5q-70 0 -106.5 -50.5t-36.5 -148.5t36 -148.5t107 -50.5q70 0 106.5 51zM462 516.5q40 -96.5 40 -229.5q0 -148 -58 -224t-168 -76t-168.5 69.5t-58.5 202.5q0 131 56 200t160 69q47 0 84 -20t59 -58 q-36 120 -129 193l-121 -76l-29 48l104 60q-36 22 -85 39l-28 10l21 58l28 -10q68 -25 125 -60l100 63l28 -48l-82 -47q82 -67 122 -163.5z"/>
<glyph glyph-name="ntilde" horiz-adv-x="581" unicode="ñ" d="M451.5 503.5q43.5 -45.5 43.5 -125.5v-378h-81v371q0 49 -27.5 74.5t-80.5 25.5q-38 0 -70 -12.5t-64 -38.5v-420h-81v536h75v-59q66 72 164 72q78 0 121.5 -45.5zM319 629q-19 10 -45 29q-18 14 -29 20.5t-23 6.5q-34 0 -42 -64h-52q2 61 26.5 95t69.5 34q26 0 45 -10 t45 -29q18 -14 29 -20.5t23 -6.5q34 0 42 64h52q-2 -61 -26.5 -95t-69.5 -34q-26 0 -45 10z"/>
<glyph glyph-name="ograve" horiz-adv-x="556" unicode="ò" d="M382.5 112.5q35.5 52.5 35.5 155.5q0 102 -35.5 155t-103.5 53q-70 0 -105.5 -53t-35.5 -155q0 -103 35.5 -155.5t104.5 -52.5t104.5 52.5zM112 58.5q-58 71.5 -58 209.5t58.5 209.5t166.5 71.5q107 0 165 -71.5t58 -209.5q0 -137 -58 -209t-166 -72t-166 71.5zM150 774 v10h92l94 -159v-10h-62z"/>
<glyph glyph-name="oacute" horiz-adv-x="556" unicode="ó" d="M382.5 112.5q35.5 52.5 35.5 155.5q0 102 -35.5 155t-103.5 53q-70 0 -105.5 -53t-35.5 -155q0 -103 35.5 -155.5t104.5 -52.5t104.5 52.5zM112 58.5q-58 71.5 -58 209.5t58.5 209.5t166.5 71.5q107 0 165 -71.5t58 -209.5q0 -137 -58 -209t-166 -72t-166 71.5zM226 625 l101 159h93v-10l-132 -159h-62v10z"/>
<glyph glyph-name="ocircumflex" horiz-adv-x="556" unicode="ô" d="M382.5 112.5q35.5 52.5 35.5 155.5q0 102 -35.5 155t-103.5 53q-70 0 -105.5 -53t-35.5 -155q0 -103 35.5 -155.5t104.5 -52.5t104.5 52.5zM112 58.5q-58 71.5 -58 209.5t58.5 209.5t166.5 71.5q107 0 165 -71.5t58 -209.5q0 -137 -58 -209t-166 -72t-166 71.5zM422 625 v-10h-60l-85 109l-84 -109h-57v10l102 159h82z"/>
<glyph glyph-name="otilde" horiz-adv-x="556" unicode="õ" d="M382.5 112.5q35.5 52.5 35.5 155.5q0 102 -35.5 155t-103.5 53q-70 0 -105.5 -53t-35.5 -155q0 -103 35.5 -155.5t104.5 -52.5t104.5 52.5zM112 58.5q-58 71.5 -58 209.5t58.5 209.5t166.5 71.5q107 0 165 -71.5t58 -209.5q0 -137 -58 -209t-166 -72t-166 71.5zM304 629 q-19 10 -45 29q-18 14 -29 20.5t-23 6.5q-34 0 -42 -64h-52q2 61 26.5 95t69.5 34q26 0 45 -10t45 -29q18 -14 29 -20.5t23 -6.5q34 0 42 64h52q-2 -61 -26.5 -95t-69.5 -34q-26 0 -45 10z"/>
<glyph glyph-name="odieresis" horiz-adv-x="556" unicode="ö" d="M382.5 112.5q35.5 52.5 35.5 155.5q0 102 -35.5 155t-103.5 53q-70 0 -105.5 -53t-35.5 -155q0 -103 35.5 -155.5t104.5 -52.5t104.5 52.5zM112 58.5q-58 71.5 -58 209.5t58.5 209.5t166.5 71.5q107 0 165 -71.5t58 -209.5q0 -137 -58 -209t-166 -72t-166 71.5z M333.5 641q-13.5 14 -13.5 40t13.5 40.5t38.5 14.5t39 -14.5t14 -39.5q0 -26 -14 -40.5t-39 -14.5t-38.5 14zM146.5 641q-13.5 14 -13.5 40t13.5 40.5t38.5 14.5t39 -14.5t14 -39.5q0 -26 -14 -40.5t-39 -14.5t-38.5 14z"/>
<glyph glyph-name="divide" horiz-adv-x="572" unicode="÷" d="M246.5 146q-15.5 16 -15.5 41t15.5 40.5t40.5 15.5q24 0 39.5 -15.5t15.5 -40.5t-15.5 -41t-39.5 -16q-25 0 -40.5 16zM69 406h434v-75h-434v75zM246.5 508.5q-15.5 15.5 -15.5 40.5t15.5 41t40.5 16q24 0 39.5 -16t15.5 -41t-15.5 -40.5t-39.5 -15.5q-25 0 -40.5 15.5z "/>
<glyph glyph-name="oslash" horiz-adv-x="556" unicode="ø" d="M384 110.5q36 53.5 36 157.5q0 71 -13 114l-228 -285q34 -40 99 -40q70 0 106 53.5zM172 425q-36 -53 -36 -157q0 -71 13 -114l228 285q-33 39 -98 39q-71 0 -107 -53zM532 536l-71 -86q41 -70 41 -182q0 -137 -58 -209t-166 -72q-88 0 -145 52l-38 -49h-71v10l71 86 q-41 73 -41 181q0 138 58.5 210t166.5 72q88 0 145 -52l37 49h71v-10z"/>
<glyph glyph-name="ugrave" horiz-adv-x="573" unicode="ù" d="M482 536v-536h-75v66q-58 -79 -161 -79q-76 0 -119 45t-43 125v379h81v-371q0 -49 26.5 -74.5t78.5 -25.5q40 0 71.5 14.5t59.5 45.5v411h81zM155 774v10h92l94 -159v-10h-62z"/>
<glyph glyph-name="uacute" horiz-adv-x="573" unicode="ú" d="M482 536v-536h-75v66q-58 -79 -161 -79q-76 0 -119 45t-43 125v379h81v-371q0 -49 26.5 -74.5t78.5 -25.5q40 0 71.5 14.5t59.5 45.5v411h81zM231 625l101 159h93v-10l-132 -159h-62v10z"/>
<glyph glyph-name="ucircumflex" horiz-adv-x="573" unicode="û" d="M482 536v-536h-75v66q-58 -79 -161 -79q-76 0 -119 45t-43 125v379h81v-371q0 -49 26.5 -74.5t78.5 -25.5q40 0 71.5 14.5t59.5 45.5v411h81zM427 625v-10h-60l-85 109l-84 -109h-57v10l102 159h82z"/>
<glyph glyph-name="udieresis" horiz-adv-x="573" unicode="ü" d="M482 536v-536h-75v66q-58 -79 -161 -79q-76 0 -119 45t-43 125v379h81v-371q0 -49 26.5 -74.5t78.5 -25.5q40 0 71.5 14.5t59.5 45.5v411h81zM338.5 641q-13.5 14 -13.5 40t13.5 40.5t38.5 14.5t39 -14.5t14 -39.5q0 -26 -14 -40.5t-39 -14.5t-38.5 14zM151.5 641 q-13.5 14 -13.5 40t13.5 40.5t38.5 14.5t39 -14.5t14 -39.5q0 -26 -14 -40.5t-39 -14.5t-38.5 14z"/>
<glyph glyph-name="yacute" horiz-adv-x="516" unicode="ý" d="M487 536l-187 -539q-53 -150 -239 -216l-29 71q71 25 116 59.5t70 83.5l-189 541h88l142 -441l142 441h86zM207 625l101 159h93v-10l-132 -159h-62v10z"/>
<glyph glyph-name="thorn" horiz-adv-x="575" unicode="þ" d="M403.5 112q33.5 51 33.5 152q0 102 -35 154.5t-104 52.5q-37 0 -67.5 -15t-58.5 -47v-289q25 -28 59.5 -43.5t72.5 -15.5q66 0 99.5 51zM468 474q53 -75 53 -209q0 -131 -55.5 -204.5t-155.5 -73.5q-42 0 -77.5 16t-60.5 45v-255h-81v977h81v-296q27 37 64.5 56t83.5 19 q95 0 148 -75z"/>
<glyph glyph-name="dotlessi" horiz-adv-x="267" unicode="ı" d="M93 536h81v-536h-81v536z"/>
<glyph glyph-name="uni0237" horiz-adv-x="267" unicode="ȷ" d="M-45 -152q55 19 84 41t41.5 55t12.5 86v506h81v-507q0 -72 -17 -117t-58 -75.5t-116 -56.5z"/>
<glyph glyph-name="gravecomb" d="M-409 774v10h92l94 -159v-10h-62z" unicode="̀"/>
<glyph glyph-name="acutecomb" d="M-333 625l101 159h93v-10l-132 -159h-62v10z" unicode="́"/>
<glyph glyph-name="uni0302" d="M-137 625v-10h-60l-85 109l-84 -109h-57v10l102 159h82z" unicode="̂"/>
<glyph glyph-name="tildecomb" d="M-255 629q-19 10 -45 29q-18 14 -29 20.5t-23 6.5q-34 0 -42 -64h-52q2 61 26.5 95t69.5 34q26 0 45 -10t45 -29q18 -14 29 -20.5t23 -6.5q34 0 42 64h52q-2 -61 -26.5 -95t-69.5 -34q-26 0 -45 10z" unicode="̃"/>
<glyph glyph-name="uni0304" d="M-425 703h290v-63h-290v63z" unicode="̄"/>
<glyph glyph-name="uni0307" d="M-321.5 642q-14.5 15 -14.5 41q0 27 14.5 42t41.5 15t41.5 -15t14.5 -41q0 -27 -14.5 -42t-41.5 -15t-41.5 15z" unicode="̇"/>
<glyph glyph-name="uni030A" d="M-235.5 665.5q15.5 15.5 15.5 45.5q0 61 -60 61t-60 -61q0 -30 15.5 -45.5t44.5 -15.5t44.5 15.5zM-367 631.5q-31 28.5 -31 79.5q0 52 31 80t87 28t87 -28t31 -80q0 -51 -31 -79.5t-87 -28.5t-87 28.5z" unicode="̊"/>
<glyph glyph-name="uni030B" d="M-248 625l61 159h84v-10l-91 -159h-54v10zM-391 625l61 159h83v-10l-90 -159h-54v10z" unicode="̋"/>
<glyph glyph-name="uni030F" d="M-219 615l-82 159v10h83l53 -159v-10h-54zM-362 615l-83 159v10h84l53 -159v-10h-54z" unicode="̏"/>
<glyph glyph-name="uni0400" horiz-adv-x="570" unicode="Ѐ" d="M95 724h424v-75h-341v-241h255v-76h-255v-257h353v-75h-436v724zM131 914v12h103l142 -133v-12h-72z"/>
<glyph glyph-name="uni0401" horiz-adv-x="570" unicode="Ё" d="M95 724h424v-75h-341v-241h255v-76h-255v-257h353v-75h-436v724zM368.5 810q-13.5 14 -13.5 40t13.5 40.5t38.5 14.5t39 -14.5t14 -39.5q0 -26 -14 -40.5t-39 -14.5t-38.5 14zM173.5 810q-13.5 14 -13.5 40t13.5 40.5t38.5 14.5t39 -14.5t14 -39.5q0 -26 -14 -40.5 t-39 -14.5t-38.5 14z"/>
<glyph glyph-name="uni0402" horiz-adv-x="767" unicode="Ђ" d="M637 381q56 -60 56 -170v-57q0 -85 -21 -141.5t-69.5 -95.5t-132.5 -69l-28 72q67 24 103 54.5t50.5 74.5t14.5 112v41q0 81 -36 122.5t-117 41.5q-72 0 -152 -35v-331h-83v648h-192v76h467v-76h-192v-242q83 35 167 35q109 0 165 -60z"/>
<glyph glyph-name="uni0403" horiz-adv-x="524" unicode="Ѓ" d="M178 0h-83v724h406v-75h-323v-649zM216 793l152 133h102v-12l-182 -133h-72v12z"/>
<glyph glyph-name="uni0404" horiz-adv-x="599" unicode="Є" d="M560 35q-32 -22 -81 -34.5t-106 -12.5q-100 0 -172.5 44.5t-110.5 128.5t-38 201q0 112 40 197t112.5 131.5t168.5 46.5q105 0 181 -45l-29 -66q-70 35 -152 35q-103 0 -164 -66.5t-69 -186.5h305v-76h-305q8 -131 68 -198.5t171 -67.5q89 0 149 34z"/>
<glyph glyph-name="uni0405" horiz-adv-x="561" unicode="Ѕ" d="M148 3q-59 15 -104 43l29 71q94 -54 194 -54q75 0 116.5 32.5t41.5 90.5q0 49 -28 79.5t-86 45.5l-82 23q-92 25 -135 73.5t-43 126.5q0 93 61.5 147.5t167.5 54.5q53 0 108 -11.5t101 -33.5l-29 -71q-102 41 -182 41q-68 0 -105.5 -30.5t-37.5 -84.5q0 -49 27.5 -79.5 t85.5 -45.5l82 -23q92 -26 135.5 -74t43.5 -126q0 -97 -65 -153.5t-177 -56.5q-60 0 -119 15z"/>
<glyph glyph-name="uni0406" horiz-adv-x="277" unicode="І" d="M180 724v-724h-83v724h83z"/>
<glyph glyph-name="uni0407" horiz-adv-x="277" unicode="Ї" d="M180 724v-724h-83v724h83zM191 810q-14 14 -14 40t14 40.5t39 14.5t39 -14.5t14 -39.5q0 -26 -14 -40.5t-39 -14.5t-39 14zM8.5 810q-13.5 14 -13.5 40t13.5 40.5t38.5 14.5t39 -14.5t14 -39.5q0 -26 -14 -40.5t-39 -14.5t-38.5 14z"/>
<glyph glyph-name="uni0408" horiz-adv-x="438" unicode="Ј" d="M74 -1q-41 12 -69 34l31 67q62 -37 124 -37q58 0 88 30t30 89v542h83v-543q0 -92 -52.5 -143t-147.5 -51q-46 0 -87 12z"/>
<glyph glyph-name="uni0409" horiz-adv-x="1014" unicode="Љ" d="M581 75h148q73 0 112 37t39 112t-38 112.5t-108 37.5h-153v-299zM498 649h-225l-22 -313q-8 -104 -23 -162t-53.5 -101.5t-117.5 -82.5l-38 71q59 30 89 65.5t42 84t18 133.5l26 380h387v-275h149q113 0 175 -58t62 -167q0 -107 -62 -165.5t-171 -58.5h-236v649z"/>
<glyph glyph-name="uni040A" horiz-adv-x="1030" unicode="Њ" d="M896 216q0 140 -145 140h-153v-281h148q150 0 150 141zM921.5 377q61.5 -54 61.5 -161q0 -104 -62 -160t-171 -56h-235v356h-337v-356h-83v724h83v-293h337v293h83v-293h148q114 0 175.5 -54z"/>
<glyph glyph-name="uni040B" horiz-adv-x="756" unicode="Ћ" d="M630.5 381.5q52.5 -59.5 52.5 -170.5v-211h-83v202q0 82 -32.5 123t-112.5 41q-70 0 -150 -35v-331h-83v648h-192v76h467v-76h-192v-242q44 17 83 26t81 9q109 0 161.5 -59.5z"/>
<glyph glyph-name="uni040C" horiz-adv-x="650" unicode="Ќ" d="M523 0l-219 335l-42 -22l-84 -43v-270h-83v724h83v-372l66 34q88 45 131 78.5t72.5 92t51.5 167.5h86q-21 -104 -47.5 -168t-64.5 -104.5t-98 -77.5l249 -374h-101zM338 781h-72v12l152 133h102v-12z"/>
<glyph glyph-name="uni040D" horiz-adv-x="719" unicode="Ѝ" d="M178 145l365 579h81v-724h-84v580l-365 -580h-80v724h83v-579zM182 914v12h103l142 -133v-12h-72z"/>
<glyph glyph-name="uni040E" horiz-adv-x="601" unicode="Ў" d="M580 724l-192 -480q-36 -89 -67 -137t-76.5 -77t-122.5 -48l-21 76q72 18 111.5 47.5t68.5 84.5l-256 534h92l207 -437l172 437h84zM199 823q-41 36 -49 107h57q8 -38 33.5 -56.5t72.5 -18.5q90 0 107 75h55q-8 -70 -50.5 -106.5t-112.5 -36.5q-72 0 -113 36z"/>
<glyph glyph-name="uni040F" horiz-adv-x="705" unicode="Џ" d="M610 724v-724h-213l-11 -149h-62l-12 149h-217v724h83v-649h349v649h83z"/>
<glyph glyph-name="uni0410" horiz-adv-x="658" unicode="А" d="M203 266h249l-125 368zM477 192h-297l-65 -192h-89l257 724h92l257 -724h-90z"/>
<glyph glyph-name="uni0411" horiz-adv-x="618" unicode="Б" d="M446 108.5q39 33.5 39 102.5t-38 103t-108 34h-161v-273h156q73 0 112 33.5zM510 368q62 -54 62 -158q0 -101 -62.5 -155.5t-171.5 -54.5h-243v724h83h348v-76h-348v-226h156q114 0 176 -54z"/>
<glyph glyph-name="uni0412" horiz-adv-x="640" unicode="В" d="M478.5 302.5q-32.5 32.5 -96.5 32.5h-204v-260h209q61 0 92.5 33.5t31.5 97.5t-32.5 96.5zM438.5 617.5q-32.5 31.5 -96.5 31.5h-164v-241h169q61 0 92.5 29.5t31.5 87.5q0 61 -32.5 92.5zM542 52.5q-56 -52.5 -160 -52.5h-287v724h252q101 0 155.5 -51t54.5 -147 q0 -52 -23.5 -88t-68.5 -55q65 -18 99 -62.5t34 -114.5q0 -101 -56 -153.5z"/>
<glyph glyph-name="uni0413" horiz-adv-x="524" unicode="Г" d="M178 0h-83v724h406v-75h-323v-649z"/>
<glyph glyph-name="uni0414" horiz-adv-x="705" unicode="Д" d="M504 75v574h-215l-27 -313q-6 -71 -14 -115t-26.5 -80t-53.5 -66h336zM665 75v-224h-64l-15 149h-491l-15 -149h-64v224h43q45 28 68.5 63.5t33.5 81t17 124.5l32 380h377v-649h78z"/>
<glyph glyph-name="uni0415" horiz-adv-x="570" unicode="Е" d="M95 724h424v-75h-341v-241h255v-76h-255v-257h353v-75h-436v724z"/>
<glyph glyph-name="uni0416" horiz-adv-x="966" unicode="Ж" d="M845 0l-207 335l-52 -22l-60 -24v-289h-81v289l-60 24l-53 22l-212 -335h-95l237 369q-53 30 -87.5 71t-59.5 107t-48 177h83q26 -122 55.5 -183t72 -92.5t128.5 -66.5l39 -16v358h81v-358l40 16q86 35 128.5 66.5t71.5 92.5t55 183h82q-23 -110 -47.5 -176.5t-58.5 -107 t-87 -70.5l231 -370h-96z"/>
<glyph glyph-name="uni0417" horiz-adv-x="547" unicode="З" d="M500 208q0 -107 -76 -163.5t-201 -56.5t-211 50l34 68q85 -41 175 -41q92 0 142 36.5t50 107.5q0 68 -45 97.5t-120 29.5h-114v73h106q71 0 108.5 33t37.5 95q0 63 -42.5 94t-113.5 31q-74 0 -160 -38l-29 66q89 47 193 47q108 0 173 -49t65 -143q0 -117 -104 -164 q132 -41 132 -173z"/>
<glyph glyph-name="uni0418" horiz-adv-x="719" unicode="И" d="M178 145l365 579h81v-724h-84v580l-365 -580h-80v724h83v-579z"/>
<glyph glyph-name="uni0419" horiz-adv-x="719" unicode="Й" d="M178 145l365 579h81v-724h-84v580l-365 -580h-80v724h83v-579zM259 823q-41 36 -49 107h57q8 -38 33.5 -56.5t72.5 -18.5q90 0 107 75h55q-8 -70 -50.5 -106.5t-112.5 -36.5q-72 0 -113 36z"/>
<glyph glyph-name="uni041A" horiz-adv-x="650" unicode="К" d="M523 0l-219 335l-42 -22l-84 -43v-270h-83v724h83v-372l66 34q88 45 131 78.5t72.5 92t51.5 167.5h86q-21 -104 -47.5 -168t-64.5 -104.5t-98 -77.5l249 -374h-101z"/>
<glyph glyph-name="uni041B" horiz-adv-x="683" unicode="Л" d="M226 175.5q-15 -58.5 -54 -103.5t-116 -83l-37 68q59 29 88.5 65.5t41 86t17.5 135.5l26 380h395v-724h-83v649h-235l-21 -313q-7 -102 -22 -160.5z"/>
<glyph glyph-name="uni041C" horiz-adv-x="845" unicode="М" d="M669 592l-204 -442h-87l-203 442v-592h-80v724h100l228 -494l226 494h101v-724h-81v592z"/>
<glyph glyph-name="uni041D" horiz-adv-x="701" unicode="Н" d="M522 330h-344v-330h-83v724h83v-319h344v319h83v-724h-83v330z"/>
<glyph glyph-name="uni041E" horiz-adv-x="713" unicode="О" d="M511 138q53 76 53 224t-53 224t-155 76q-103 0 -155 -76t-52 -224t52 -224t155 -76q102 0 155 76zM137.5 82.5q-75.5 95.5 -75.5 279.5q0 185 75.5 280t218.5 95t219 -95t76 -280q0 -184 -76 -279.5t-219 -95.5t-218.5 95.5z"/>
<glyph glyph-name="uni041F" horiz-adv-x="706" unicode="П" d="M178 0h-83v724h516v-724h-83v649h-350v-649z"/>
<glyph glyph-name="uni0420" horiz-adv-x="596" unicode="Р" d="M448.5 608.5q-36.5 40.5 -107.5 40.5h-163v-317h167q69 0 104.5 40.5t35.5 118.5q0 77 -36.5 117.5zM511 319q-61 -62 -170 -62h-163v-257h-83v724h250q107 0 167 -61.5t60 -171.5t-61 -172z"/>
<glyph glyph-name="uni0421" horiz-adv-x="604" unicode="С" d="M205 32.5q-72 44.5 -110.5 128.5t-38.5 201q0 112 40 197t112.5 131.5t168.5 46.5q107 0 181 -45l-29 -66q-70 35 -152 35q-110 0 -172 -77t-62 -214q0 -150 61 -227t179 -77q89 0 149 34l32 -65q-31 -22 -80.5 -34.5t-106.5 -12.5q-100 0 -172 44.5z"/>
<glyph glyph-name="uni0422" horiz-adv-x="527" unicode="Т" d="M222 648h-192v76h467v-76h-192v-648h-83v648z"/>
<glyph glyph-name="uni0423" horiz-adv-x="601" unicode="У" d="M580 724l-192 -480q-36 -89 -67 -137t-76.5 -77t-122.5 -48l-21 76q72 18 111.5 47.5t68.5 84.5l-256 534h92l207 -437l172 437h84z"/>
<glyph glyph-name="uni0424" horiz-adv-x="755" unicode="Ф" d="M188 221.5q52 -51.5 148 -59.5v406q-96 -10 -148 -61.5t-52 -142.5t52 -142.5zM565 220.5q53 51.5 53 143.5q0 91 -53 143.5t-150 60.5v-407q97 8 150 59.5zM626.5 167.5q-74.5 -70.5 -211.5 -78.5v-99h-79v100q-136 9 -209 79t-73 196q0 125 73 195t209 80v94h79v-94 q137 -8 211.5 -78.5t74.5 -196.5q0 -127 -74.5 -197.5z"/>
<glyph glyph-name="uni0425" horiz-adv-x="604" unicode="Х" d="M298 294l-172 -294h-97l223 368l-216 356h99l169 -283l167 283h97l-216 -356l223 -368h-99z"/>
<glyph glyph-name="uni0426" horiz-adv-x="712" unicode="Ц" d="M672 75v-224h-64l-15 149h-498v724h83v-649h333v649h83v-649h78z"/>
<glyph glyph-name="uni0427" horiz-adv-x="671" unicode="Ч" d="M576 724v-724h-83v321q-49 -21 -95 -30.5t-96 -9.5q-113 0 -170.5 62.5t-57.5 173.5v207h83v-193q0 -86 37 -130.5t121 -44.5t178 41v327h83z"/>
<glyph glyph-name="uni0428" horiz-adv-x="1008" unicode="Ш" d="M95 724h83v-649h285v649h83v-649h284v649h83v-724h-818v724z"/>
<glyph glyph-name="uni0429" horiz-adv-x="1031" unicode="Щ" d="M991 75v-224h-64l-15 149h-817v724h83v-649h285v649h83v-649h284v649h83v-649h78z"/>
<glyph glyph-name="uni042A" horiz-adv-x="745" unicode="Ъ" d="M572 112q39 37 39 112t-38 112.5t-108 37.5h-160v-299h155q73 0 112 37zM636 391q62 -58 62 -167q0 -107 -62 -165.5t-171 -58.5h-243v648h-192v76h248h27v-275h156q113 0 175 -58z"/>
<glyph glyph-name="uni042B" horiz-adv-x="852" unicode="Ы" d="M178 75h156q73 0 112 37.5t39 111.5q0 75 -38 112.5t-108 37.5h-161v-299zM757 724v-724h-83v724h83zM95 724h83v-275h156q114 0 176 -58t62 -167q0 -107 -62.5 -165.5t-171.5 -58.5h-243v724z"/>
<glyph glyph-name="uni042C" horiz-adv-x="618" unicode="Ь" d="M178 75h156q73 0 112 37.5t39 111.5q0 75 -38 112.5t-108 37.5h-161v-299zM95 724h83v-275h156q114 0 176 -58t62 -167q0 -107 -62.5 -165.5t-171.5 -58.5h-243v724z"/>
<glyph glyph-name="uni042D" horiz-adv-x="604" unicode="Э" d="M407 695q70 -42 108 -123t38 -195q0 -121 -39.5 -208.5t-113 -134t-174.5 -46.5q-56 0 -105.5 12.5t-80.5 34.5l31 65q60 -34 149 -34q109 0 171.5 68.5t72.5 197.5h-304v76h305q-6 124 -63.5 188.5t-163.5 64.5q-85 0 -158 -35l-29 66q38 22 87.5 33.5t104.5 11.5 q94 0 164 -42z"/>
<glyph glyph-name="uni042E" horiz-adv-x="960" unicode="Ю" d="M761 138q49 76 49 224t-49 224t-144 76t-143.5 -76t-48.5 -224t48.5 -224t143.5 -76t144 76zM826 642q72 -95 72 -280q0 -184 -72 -279.5t-208 -95.5q-130 0 -201.5 87t-77.5 256h-161v-330h-83v724h83v-319h161q8 164 79.5 248t199.5 84q136 0 208 -95z"/>
<glyph glyph-name="uni042F" horiz-adv-x="630" unicode="Я" d="M296 649q-69 0 -105 -38t-36 -111t34.5 -111t102.5 -38h159v298h-155zM33 0l190 285q-74 19 -114.5 74.5t-40.5 141.5q0 105 59 164t165 59h242v-724h-83v277h-139l-178 -277h-101z"/>
<glyph glyph-name="uni0430" horiz-adv-x="526" unicode="а" d="M178.5 242.5q-58.5 -28.5 -58.5 -87.5q0 -46 26.5 -69.5t78.5 -23.5q41 0 74 15.5t62 47.5v147q-124 -1 -182.5 -29.5zM367 67q-52 -78 -161 -78q-79 0 -123 42t-44 118q0 95 78 140.5t244 46.5v35q0 50 -31.5 76t-91.5 26q-67 0 -127 -28l-21 67q74 37 158 37 q87 0 140.5 -44t53.5 -127v-378h-75v67z"/>
<glyph glyph-name="uni0431" horiz-adv-x="569" unicode="б" d="M389 110q40 50 40 144q0 88 -35.5 129t-106.5 41q-39 0 -72.5 -13t-67.5 -39q-2 -30 -2 -96q0 -216 136 -216q68 0 108 50zM458 435q55 -61 55 -181q0 -85 -29.5 -145t-81.5 -91t-121 -31q-108 0 -164.5 77t-56.5 213q0 124 17.5 208t55.5 139q43 61 119 85.5t212 35.5 l7 -76q-120 -11 -181 -28.5t-89 -58.5q-34 -47 -48 -143q67 57 152 57q98 0 153 -61z"/>
<glyph glyph-name="uni0432" horiz-adv-x="532" unicode="в" d="M380.5 91q23.5 23 23.5 64q0 42 -24 64t-67 22h-143v-173h146q41 0 64.5 23zM170 307h123q42 0 65 20.5t23 58.5q0 40 -24 61t-67 21h-120v-161zM461 238q27 -33 27 -84q0 -74 -46 -114t-124 -40h-227v536h201q77 0 121 -37.5t44 -107.5q0 -38 -19 -65t-53 -42 q49 -13 76 -46z"/>
<glyph glyph-name="uni0433" horiz-adv-x="438" unicode="г" d="M91 536h319v-70h-238v-466h-81v536z"/>
<glyph glyph-name="uni0434" horiz-adv-x="606" unicode="д" d="M407 69v397h-146l-20 -208q-7 -70 -24 -112t-57 -77h247zM566 69v-218h-63l-15 149h-391l-15 -149h-64v218h39q56 34 76.5 77t26.5 121l24 269h304v-467h78z"/>
<glyph glyph-name="uni0435" horiz-adv-x="538" unicode="е" d="M136 311h273q-1 78 -37 121.5t-99 43.5q-123 0 -137 -165zM388 1.5q-46 -13.5 -95 -13.5q-114 0 -177.5 73.5t-63.5 206.5t58.5 207t164.5 74q102 0 158.5 -68t56.5 -190q0 -29 -4 -46h-352q5 -89 46.5 -135t117.5 -46q73 0 136 40l31 -64q-31 -25 -77 -38.5z"/>
<glyph glyph-name="uni0436" horiz-adv-x="791" unicode="ж" d="M668 0l-153 241q-4 -1 -12 -5l-69 -27v-209h-77v209l-69 27q-7 4 -13 5l-153 -241h-93l177 275q-38 22 -62.5 53t-42.5 79t-37 129h80q18 -80 38 -124t50.5 -69t84.5 -45l40 -16v254h77v-254l40 16q54 20 84.5 45t50 68.5t37.5 124.5h81q-19 -81 -37 -129t-42.5 -79 t-62.5 -53l176 -275h-93z"/>
<glyph glyph-name="uni0437" horiz-adv-x="456" unicode="з" d="M383.5 237.5q27.5 -32.5 27.5 -84.5q0 -80 -60 -122.5t-159 -42.5q-47 0 -91.5 9t-77.5 29l29 64q27 -14 62.5 -22t68.5 -8q70 0 107 24.5t37 72.5q0 84 -129 84h-84v66h82q50 0 81 21.5t31 63.5q0 45 -32.5 65.5t-84.5 20.5t-122 -30l-23 66q31 16 73 26t82 10 q84 0 136.5 -36.5t52.5 -109.5q0 -84 -83 -120q49 -14 76.5 -46.5z"/>
<glyph glyph-name="uni0438" horiz-adv-x="606" unicode="и" d="M172 132l263 404h80v-536h-81v405l-263 -405h-80v536h81v-404z"/>
<glyph glyph-name="uni0439" horiz-adv-x="606" unicode="й" d="M172 132l263 404h80v-536h-81v405l-263 -405h-80v536h81v-404zM199 653q-41 36 -49 107h57q8 -38 33.5 -56.5t72.5 -18.5q90 0 107 75h55q-8 -70 -50.5 -106.5t-112.5 -36.5q-72 0 -113 36z"/>
<glyph glyph-name="uni043A" horiz-adv-x="550" unicode="к" d="M425 0l-163 242l-21 -11l-69 -33v-198h-81v536h81v-261l42 20q59 28 92 52t57.5 68t40.5 121h83q-25 -109 -60.5 -164.5t-95.5 -92.5l189 -279h-95z"/>
<glyph glyph-name="uni043B" horiz-adv-x="577" unicode="л" d="M205.5 138q-12.5 -44 -45 -79t-97.5 -67l-34 64q45 22 69 50t33.5 65t13.5 96l19 269h322v-536h-81v466h-165l-16 -208q-6 -76 -18.5 -120z"/>
<glyph glyph-name="uni043C" horiz-adv-x="714" unicode="м" d="M623 0h-76v416l-158 -319h-69l-154 319v-416h-75v536h97l168 -348l171 348h96v-536z"/>
<glyph glyph-name="uni043D" horiz-adv-x="590" unicode="н" d="M499 0h-81v237h-246v-237h-81v536h81v-227h246v227h81v-536z"/>
<glyph glyph-name="uni043E" horiz-adv-x="556" unicode="о" d="M382.5 112.5q35.5 52.5 35.5 155.5q0 102 -35.5 155t-103.5 53q-70 0 -105.5 -53t-35.5 -156q0 -102 35.5 -154.5t104.5 -52.5t104.5 52.5zM112.5 58.5q-58.5 71.5 -58.5 208.5q0 138 58.5 210t166.5 72q107 0 165 -71.5t58 -209.5q0 -137 -58 -209t-166 -72 q-107 0 -165.5 71.5z"/>
<glyph glyph-name="uni043F" horiz-adv-x="596" unicode="п" d="M172 0h-81v536h414v-536h-82v466h-251v-466z"/>
<glyph glyph-name="uni0440" horiz-adv-x="575" unicode="р" d="M402 418.5q-35 52.5 -104 52.5q-36 0 -67 -15t-59 -48v-288q25 -28 60 -43.5t72 -15.5q66 0 99.5 51t33.5 152q0 102 -35 154.5zM465.5 60q-55.5 -73 -155.5 -73q-42 0 -77 16t-61 45v-255h-81v743h75v-70q27 41 66 62t88 21q94 0 147.5 -75t53.5 -209q0 -132 -55.5 -205 z"/>
<glyph glyph-name="uni0441" horiz-adv-x="486" unicode="с" d="M112.5 62q-63.5 74 -63.5 206q0 84 29 147.5t82.5 98.5t123.5 35q40 0 80 -11.5t73 -32.5l-30 -64q-65 35 -125 35q-70 0 -109.5 -53.5t-39.5 -147.5q0 -104 41 -157.5t121 -53.5q61 0 119 33l29 -64q-28 -22 -68.5 -33.5t-85.5 -11.5q-113 0 -176.5 74z"/>
<glyph glyph-name="uni0442" horiz-adv-x="436" unicode="т" d="M257 0h-81v466h-149v70h380v-70h-150v-466z"/>
<glyph glyph-name="uni0443" horiz-adv-x="504" unicode="у" d="M55 -219l-29 71q72 26 117 60t69 83l-189 541h88l143 -441l141 441h86l-187 -539q-53 -150 -239 -216z"/>
<glyph glyph-name="uni0444" horiz-adv-x="723" unicode="ф" d="M180 122q48 -53 141 -63v417q-93 -10 -141 -63t-48 -146q0 -92 48 -145zM543.5 120.5q48.5 53.5 48.5 147.5t-48.5 147.5t-143.5 61.5v-418q95 8 143.5 61.5zM602 68.5q-71 -71.5 -202 -79.5v-196h-79v196q-130 10 -200.5 80.5t-70.5 197.5q0 128 70.5 199t200.5 80v195 h79v-194q131 -9 202 -80t71 -199t-71 -199.5z"/>
<glyph glyph-name="uni0445" horiz-adv-x="499" unicode="х" d="M248 208l-125 -208h-94l174 271l-167 265h96l119 -199l123 199h95l-173 -261l175 -275h-97z"/>
<glyph glyph-name="uni0446" horiz-adv-x="608" unicode="ц" d="M568 69v-218h-63l-15 149h-399v536h81v-467h238v467h81v-467h77z"/>
<glyph glyph-name="uni0447" horiz-adv-x="563" unicode="ч" d="M472 536v-536h-81v229q-76 -30 -148 -30q-85 0 -129 46.5t-44 129.5v161h81v-142q0 -58 25 -90t87 -32q60 0 128 28v236h81z"/>
<glyph glyph-name="uni0448" horiz-adv-x="833" unicode="ш" d="M376 536h81v-467h204v467h81v-536h-651v536h81v-467h204v467z"/>
<glyph glyph-name="uni0449" horiz-adv-x="859" unicode="щ" d="M820 69v-218h-64l-15 149h-650v536h81v-467h204v467h81v-467h204v467h81v-467h78z"/>
<glyph glyph-name="uni044A" horiz-adv-x="601" unicode="ъ" d="M444.5 95.5q31.5 26.5 31.5 80.5q0 102 -112 102h-106v-209h102q53 0 84.5 26.5zM560 176q0 -86 -56 -131t-141 -45h-186v466h-149v70h223h7v-189h103q199 0 199 -171z"/>
<glyph glyph-name="uni044B" horiz-adv-x="725" unicode="ы" d="M172 69h102q53 0 84.5 26.5t31.5 80.5q0 102 -112 102h-106v-209zM635 536v-536h-81v536h81zM91 536h81v-189h103q199 0 199 -171q0 -86 -56 -131t-141 -45h-186v536z"/>
<glyph glyph-name="uni044C" horiz-adv-x="515" unicode="ь" d="M172 69h102q53 0 84.5 26.5t31.5 80.5q0 102 -112 102h-106v-209zM91 536h81v-189h103q199 0 199 -171q0 -86 -56 -131t-141 -45h-186v536z"/>
<glyph glyph-name="uni044D" horiz-adv-x="495" unicode="э" d="M384 476.5q61 -72.5 61 -200.5q0 -88 -29 -153t-83.5 -100t-129.5 -35q-47 0 -89.5 11.5t-71.5 32.5l30 64q57 -34 124 -34q73 0 114.5 45.5t48.5 133.5h-217v66h218q-13 170 -155 170q-59 0 -120 -31l-29 62q67 41 152 41q115 0 176 -72.5z"/>
<glyph glyph-name="uni044E" horiz-adv-x="761" unicode="ю" d="M590 112.5q33 52.5 33 155.5q0 102 -33.5 155t-97.5 53q-65 0 -98.5 -53t-33.5 -156q0 -102 33.5 -154.5t98.5 -52.5t98 52.5zM651 477q56 -72 56 -209t-56 -209t-159 -72q-98 0 -154 64t-62 187h-104v-238h-81v536h81v-227h105q8 117 64 178.5t151 61.5q103 0 159 -72z "/>
<glyph glyph-name="uni044F" horiz-adv-x="536" unicode="я" d="M256 466q-48 0 -75 -25.5t-27 -73.5t26 -75.5t73 -27.5h112v202h-109zM31 0l142 209q-103 36 -103 160q0 78 48 122.5t128 44.5h199v-536h-80v198h-109l-131 -198h-94z"/>
<glyph glyph-name="uni0450" horiz-adv-x="538" unicode="ѐ" d="M136 311h273q-1 78 -37 121.5t-99 43.5q-123 0 -137 -165zM388 1.5q-46 -13.5 -95 -13.5q-114 0 -177.5 73.5t-63.5 206.5t58.5 207t164.5 74q102 0 158.5 -68t56.5 -190q0 -29 -4 -46h-352q5 -89 46.5 -135t117.5 -46q73 0 136 40l31 -64q-31 -25 -77 -38.5zM140 774v10 h92l94 -159v-10h-62z"/>
<glyph glyph-name="uni0451" horiz-adv-x="538" unicode="ё" d="M136 311h273q-1 78 -37 121.5t-99 43.5q-123 0 -137 -165zM388 1.5q-46 -13.5 -95 -13.5q-114 0 -177.5 73.5t-63.5 206.5t58.5 207t164.5 74q102 0 158.5 -68t56.5 -190q0 -29 -4 -46h-352q5 -89 46.5 -135t117.5 -46q73 0 136 40l31 -64q-31 -25 -77 -38.5zM329.5 641 q-13.5 14 -13.5 40t13.5 40.5t38.5 14.5t39 -14.5t14 -39.5q0 -26 -14 -40.5t-39 -14.5t-38.5 14zM142.5 641q-13.5 14 -13.5 40t13.5 40.5t38.5 14.5t39 -14.5t14 -39.5q0 -26 -14 -40.5t-39 -14.5t-38.5 14z"/>
<glyph glyph-name="uni0452" horiz-adv-x="579" unicode="ђ" d="M450 485q44 -45 44 -126v-245q0 -73 -17 -122t-57 -84t-112 -60l-27 68q52 18 80.5 43t40 62t11.5 94v237q0 100 -110 100q-39 0 -72 -12t-63 -39v-401h-81v620h-67v57h67v93h81v-93h225v-57h-225v-155q67 65 158 65q80 0 124 -45z"/>
<glyph glyph-name="uni0453" horiz-adv-x="438" unicode="ѓ" d="M91 536h319v-70h-238v-466h-81v536zM207 625l101 159h93v-10l-132 -159h-62v10z"/>
<glyph glyph-name="uni0454" horiz-adv-x="488" unicode="є" d="M445 32q-29 -21 -70 -32.5t-85 -11.5q-113 0 -176.5 74t-63.5 206q0 84 29.5 147.5t83 98.5t123.5 35q39 0 79.5 -12t73.5 -32l-29 -62q-64 34 -125 34q-65 0 -103.5 -44.5t-45.5 -125.5h213v-66h-213q6 -89 47 -134t115 -45q60 0 118 33z"/>
<glyph glyph-name="uni0455" horiz-adv-x="465" unicode="ѕ" d="M122.5 0.5q-47.5 12.5 -83.5 35.5l29 68q71 -43 153 -43q57 0 87 21t30 62q0 31 -18.5 50t-59.5 29l-72 18q-73 17 -107.5 53.5t-34.5 95.5q0 74 50 116t138 42q44 0 88 -11t79 -29l-31 -69q-68 35 -138 35q-52 0 -79 -19.5t-27 -57.5q0 -30 18.5 -48.5t59.5 -28.5 l71 -17q73 -17 108 -54.5t35 -98.5q0 -76 -52 -119t-145 -43q-51 0 -98.5 12.5z"/>
<glyph glyph-name="uni0456" horiz-adv-x="267" unicode="і" d="M174 536v-536h-81v536h81zM92 643q-15 15 -15 42t15 42t41 15q27 0 41.5 -15t14.5 -41q0 -28 -14.5 -43t-41.5 -15q-26 0 -41 15z"/>
<glyph glyph-name="uni0457" horiz-adv-x="267" unicode="ї" d="M174 536v-536h-81v536h81zM175.5 642q-13.5 14 -13.5 39q0 26 13.5 40.5t38.5 14.5t38.5 -14t13.5 -40t-13.5 -40t-38.5 -14t-38.5 14zM14.5 642q-13.5 14 -13.5 39q0 26 13.5 40.5t38.5 14.5t38.5 -14t13.5 -40t-13.5 -40t-38.5 -14t-38.5 14z"/>
<glyph glyph-name="uni0458" horiz-adv-x="267" unicode="ј" d="M39 -111q29 22 41.5 55t12.5 86v506h81v-507q0 -72 -17 -117t-58 -75.5t-116 -56.5l-28 68q55 19 84 41zM92 643q-15 15 -15 42t15 42t41 15q27 0 41.5 -15t14.5 -41q0 -28 -14.5 -43t-41.5 -15q-26 0 -41 15z"/>
<glyph glyph-name="uni0459" horiz-adv-x="818" unicode="љ" d="M480 69h98q53 0 84.5 26.5t31.5 80.5q0 102 -113 102h-101v-209zM400 466h-158l-16 -208q-6 -78 -18.5 -122t-45 -78t-98.5 -66l-35 67q45 23 69 50t34 63t14 95l19 269h315v-189h98q95 0 147 -42t52 -129q0 -86 -56 -131t-141 -45h-181z"/>
<glyph glyph-name="uni045A" horiz-adv-x="831" unicode="њ" d="M674.5 93q31.5 24 31.5 74q0 48 -29.5 69t-82.5 21h-101v-188h97q53 0 84.5 24zM790 167q0 -81 -56 -124t-141 -43h-181v255h-240v-255h-81v536h81v-209h240v209h81v-209h98q199 0 199 -160z"/>
<glyph glyph-name="uni045B" horiz-adv-x="581" unicode="ћ" d="M451 485q44 -45 44 -126v-359h-80v352q0 101 -111 101q-39 0 -72 -13t-64 -40v-400h-81v620h-67v57h67v93h81v-93h225v-57h-225v-155q65 65 160 65q79 0 123 -45z"/>
<glyph glyph-name="uni045C" horiz-adv-x="550" unicode="ќ" d="M425 0l-163 242l-21 -11l-69 -33v-198h-81v536h81v-261l42 20q59 28 92 52t57.5 68t40.5 121h83q-25 -109 -60.5 -164.5t-95.5 -92.5l189 -279h-95zM241 625l101 159h93v-10l-132 -159h-62v10z"/>
<glyph glyph-name="uni045D" horiz-adv-x="606" unicode="ѝ" d="M172 132l263 404h80v-536h-81v405l-263 -405h-80v536h81v-404zM167 774v10h92l94 -159v-10h-62z"/>
<glyph glyph-name="uni045E" horiz-adv-x="504" unicode="ў" d="M55 -219l-29 71q72 26 117 60t69 83l-189 541h88l143 -441l141 441h86l-187 -539q-53 -150 -239 -216zM139 653q-41 36 -49 107h57q8 -38 33.5 -56.5t72.5 -18.5q90 0 107 75h55q-8 -70 -50.5 -106.5t-112.5 -36.5q-72 0 -113 36z"/>
<glyph glyph-name="uni045F" horiz-adv-x="596" unicode="џ" d="M505 536v-536h-164l-13 -149h-58l-12 149h-167v536h82v-467h251v467h81z"/>
<glyph glyph-name="uni0460" horiz-adv-x="842" unicode="Ѡ" d="M115.5 75q-53.5 88 -53.5 245q0 110 25.5 217.5t70.5 186.5h95q-104 -160 -104 -405q0 -127 32.5 -192.5t94.5 -65.5q49 0 76 40t27 112v178h83v-177q0 -73 27.5 -113t76.5 -40q63 0 95 65.5t32 192.5q0 120 -26.5 222.5t-77.5 182.5h95q45 -79 70.5 -186.5t25.5 -217.5 q0 -157 -54 -245t-150 -88q-60 0 -101 28t-54 79q-14 -51 -55 -79t-101 -28q-96 0 -149.5 88z"/>
<glyph glyph-name="uni0461" horiz-adv-x="715" unicode="ѡ" d="M683 536q-1 -138 -37.5 -270t-110.5 -266h-90l-81 291l-87 -291h-89l-157 536h87l117 -452l97 322l-35 130h85l113 -458q55 117 79 224.5t24 233.5h85z"/>
<glyph glyph-name="uni0462" horiz-adv-x="618" unicode="Ѣ" d="M446 112q39 37 39 111q0 75 -38 112.5t-108 37.5h-161v-298h156q73 0 112 37zM510 390q62 -58 62 -167q0 -106 -62.5 -164.5t-171.5 -58.5h-243v590h-117v68h117v112h83v-112h296v-68h-296v-142h156q114 0 176 -58z"/>
<glyph glyph-name="uni0463" horiz-adv-x="530" unicode="ѣ" d="M373.5 95.5q31.5 26.5 31.5 80.5q0 102 -113 102h-106v-209h103q53 0 84.5 26.5zM437 305q52 -42 52 -129q0 -86 -56 -131t-141 -45h-187v456h-71v57h71v211h81v-211h229v-57h-229v-109h104q95 0 147 -42z"/>
<glyph glyph-name="uni0464" horiz-adv-x="876" unicode="Ѥ" d="M836 35q-31 -22 -80.5 -34.5t-106.5 -12.5q-144 0 -228 90t-92 252h-151v-330h-83v724h83v-319h152q7 100 48.5 175t111.5 116t160 41q106 0 180 -45l-29 -66q-70 35 -152 35q-102 0 -163.5 -67.5t-69.5 -188.5h305v-75h-305q8 -131 68.5 -197.5t170.5 -66.5q89 0 149 34 z"/>
<glyph glyph-name="uni0465" horiz-adv-x="703" unicode="ѥ" d="M660 32q-28 -21 -69 -32.5t-85 -11.5q-106 0 -168.5 65t-70.5 184h-95v-237h-81v536h81v-228h95q11 110 73.5 175.5t160.5 65.5q39 0 79.5 -12t73.5 -32l-29 -62q-64 34 -124 34q-66 0 -105 -45t-45 -126h213v-67h-213q7 -87 48 -132t114 -45q60 0 118 33z"/>
<glyph glyph-name="uni0466" horiz-adv-x="646" unicode="Ѧ" d="M432 296l-110 342l-109 -342h219zM455 224h-94v-224h-78v224h-93l-71 -224h-89l247 724h93l247 -724h-90z"/>
<glyph glyph-name="uni0467" horiz-adv-x="532" unicode="ѧ" d="M342 229l-78 220l-76 -220h154zM365 161h-62v-161h-75v161h-63l-56 -161h-86l198 536h89l199 -536h-87z"/>
<glyph glyph-name="uni0468" horiz-adv-x="869" unicode="Ѩ" d="M654 296l-110 342l-109 -342h219zM677 224h-94v-224h-77v224h-94l-71 -224h-89l76 224h-150v-224h-83v724h83v-428h175l146 428h93l247 -724h-90z"/>
<glyph glyph-name="uni0469" horiz-adv-x="732" unicode="ѩ" d="M542 229l-77 220l-76 -220h153zM566 161h-63v-161h-74v161h-64l-55 -161h-86l59 161h-111v-161h-81v536h81v-306h136l113 306h89l199 -536h-87z"/>
<glyph glyph-name="uni046A" horiz-adv-x="900" unicode="Ѫ" d="M290 652l161 -244l162 244h-323zM710 335q55 -38 84 -114.5t44 -220.5h-83q-11 120 -33 184t-65.5 94.5t-123.5 42.5l-43 7v-328h-81v328l-42 -7q-81 -12 -124.5 -42.5t-65.5 -94.5t-33 -184h-82q15 144 44 220.5t84 114.5t156 54l24 4l-219 331h92h467h40l-220 -331 l23 -4q102 -16 157 -54z"/>
<glyph glyph-name="uni046B" horiz-adv-x="712" unicode="ѫ" d="M246 467l112 -162l111 162h-223zM570 247.5q38 -29.5 58 -87.5t29 -160h-80q-3 83 -16 129.5t-42.5 69t-82.5 30.5l-42 5v-234h-76v234l-42 -5q-53 -8 -82.5 -30.5t-42.5 -69t-16 -129.5h-81q9 102 29.5 160t58.5 87.5t104 40.5l32 5l-169 243h89h369h38l-170 -243l31 -5 q66 -11 104 -40.5z"/>
<glyph glyph-name="uni046C" horiz-adv-x="1096" unicode="Ѭ" d="M486 652l161 -244l161 244h-322zM906 335q55 -38 84 -114.5t44 -220.5h-83q-11 120 -33 184t-65.5 94.5t-123.5 42.5l-43 7v-328h-81v328l-43 -7q-81 -12 -124 -42.5t-65 -94.5t-33 -184h-83q15 139 42 215t81 116h-202v-331h-83v724h83v-320h380l-211 320h92h467h40 l-220 -331l23 -4q102 -16 157 -54z"/>
<glyph glyph-name="uni046D" horiz-adv-x="880" unicode="ѭ" d="M415 467l111 -162l111 162h-222zM739 247.5q38 -29.5 58 -87.5t29 -160h-81q-3 83 -16 129.5t-42 69t-82 30.5l-42 6v-235h-77v235l-42 -6q-53 -8 -82 -30.5t-42 -69t-16 -129.5h-81q8 95 26 151.5t51 87.5h-128v-239h-81v536h81v-230h266l-160 230h89h368h38l-170 -243 l31 -5q67 -11 105 -40.5z"/>
<glyph glyph-name="uni046E" horiz-adv-x="547" unicode="Ѯ" d="M440 -125q27 -23 40 -67l-61 -22q-8 20 -20 29.5t-29 9.5q-11 0 -26 -4t-31 -9q-36 -12 -64.5 -18.5t-66.5 -6.5q-77 0 -117 33.5t-40 98.5q0 62 31.5 94t73 41.5t92.5 10.5q76 2 133.5 29.5t57.5 114.5q0 68 -45 97.5t-120 29.5h-114v73h106q71 0 108.5 33t37.5 95 q0 63 -42.5 94t-113.5 31q-74 0 -160 -38l-29 66q66 36 149 45l-90 171h72l76 -150l47 93q34 67 97 67q43 0 69 -38l-33 -36q-19 19 -35 19q-13 0 -22.5 -7.5t-19.5 -26.5l-50 -96q79 -13 125 -60.5t46 -125.5q0 -117 -104 -164q132 -41 132 -173q0 -206 -277 -220 q-38 -2 -61.5 -6.5t-39.5 -19t-16 -42.5q0 -29 20.5 -44.5t59.5 -15.5q26 0 49.5 5.5t56.5 15.5q27 8 46 12.5t37 4.5q38 0 65 -23z"/>
<glyph glyph-name="uni046F" horiz-adv-x="456" unicode="ѯ" d="M126.5 -25q-23.5 -11 -23.5 -48q0 -29 17 -44t51 -15q20 0 35 4.5t35 14.5q18 9 32.5 14t33.5 5q38 0 64 -22t38 -65l-59 -21q-16 39 -49 39q-12 0 -20.5 -3.5t-21.5 -10.5q-19 -11 -39.5 -17.5t-54.5 -6.5q-70 0 -105 31.5t-35 93.5q0 81 48 107.5t118 28.5 q55 2 95.5 21t40.5 76q0 84 -129 84h-84v66h82q50 0 81 21.5t31 63.5q0 45 -32.5 65.5t-84.5 20.5t-122 -30l-23 66q47 24 111 33l-87 166h68l75 -146l45 91q33 65 94 65q40 0 68 -37l-32 -35q-19 18 -35 18q-13 0 -22 -7.5t-19 -25.5l-49 -92q59 -12 93 -47t34 -93 q0 -84 -83 -120q49 -14 76.5 -46.5t27.5 -84.5q0 -153 -219 -165q-42 -2 -65.5 -13z"/>
<glyph glyph-name="uni0470" horiz-adv-x="705" unicode="Ѱ" d="M650 724v-276q0 -117 -64.5 -181.5t-191.5 -73.5v-193h-83v193q-127 9 -192 73.5t-65 181.5v276h83v-276q0 -84 42.5 -128t131.5 -52v456h83v-456q89 8 131 52t42 128v276h83z"/>
<glyph glyph-name="uni0471" horiz-adv-x="713" unicode="ѱ" d="M315 -13q-112 5 -171.5 57t-59.5 154v338h81v-326q0 -79 40 -113t110 -36v617h80v-618q84 7 127 62.5t43 151.5q0 86 -8 144.5t-23 117.5h84q31 -121 31 -260q0 -132 -63.5 -206t-190.5 -82v-195h-80v194z"/>
<glyph glyph-name="uni0472" horiz-adv-x="713" unicode="Ѳ" d="M505.5 129q52.5 67 58.5 198q-55 -20 -102 -20q-24 0 -47.5 4.5t-61.5 13.5q-43 10 -66 14.5t-49 4.5q-44 0 -90 -17q6 -131 58.5 -198t149.5 -67t149.5 67zM206.5 595q-52.5 -67 -58.5 -198q57 20 102 20q24 0 48.5 -4.5t61.5 -13.5q72 -19 114 -19q44 0 90 17 q-6 131 -58.5 198t-149.5 67t-149.5 -67zM575 641.5q76 -95.5 76 -279.5t-76 -279.5t-219 -95.5t-218.5 95.5t-75.5 279.5t75.5 279.5t218.5 95.5t219 -95.5z"/>
<glyph glyph-name="uni0473" horiz-adv-x="556" unicode="ѳ" d="M377.5 103.5q35.5 43.5 41.5 129.5q-36 -12 -67 -12q-25 0 -77 12q-48 13 -81 13q-28 0 -57 -9q11 -177 141 -177q64 0 99.5 43.5zM179 432.5q-36 -43.5 -42 -129.5q36 12 66 12q29 0 77 -13q20 -5 41.5 -9t39.5 -4q25 0 58 10q-11 177 -140 177q-64 0 -100 -43.5z M444 477.5q58 -71.5 58 -209.5q0 -137 -58 -209t-166 -72t-166 71.5t-58 209.5t58.5 209.5t166.5 71.5q107 0 165 -71.5z"/>
<glyph glyph-name="uni0474" horiz-adv-x="707" unicode="Ѵ" d="M668.5 723q27.5 -15 54.5 -46l-48 -56q-24 22 -39 31t-27 9q-18 0 -30.5 -16.5t-24.5 -54.5l-192 -590h-93l-235 724h90l193 -631l161 532q16 55 49.5 84t80.5 29q33 0 60.5 -15z"/>
<glyph glyph-name="uni0475" horiz-adv-x="594" unicode="ѵ" d="M561 535q27 -14 53 -45l-47 -54q-24 22 -38 30t-27 8q-17 0 -30 -15.5t-26 -51.5l-141 -407h-89l-187 536h88l145 -449l113 354q16 53 48.5 80.5t78.5 27.5q32 0 59 -14z"/>
<glyph glyph-name="uni0476" horiz-adv-x="707" unicode="Ѷ" d="M668.5 723q27.5 -15 54.5 -46l-48 -56q-24 22 -39 31t-27 9q-18 0 -30.5 -16.5t-24.5 -54.5l-192 -590h-93l-235 724h90l193 -631l161 532q16 55 49.5 84t80.5 29q33 0 60.5 -15zM394 781l-121 133v12h89l91 -133v-12h-59zM235 781l-120 133v12h90l90 -133v-12h-60z"/>
<glyph glyph-name="uni0477" horiz-adv-x="594" unicode="ѷ" d="M561 535q27 -14 53 -45l-47 -54q-24 22 -38 30t-27 8q-17 0 -30 -15.5t-26 -51.5l-141 -407h-89l-187 536h88l145 -449l113 354q16 53 48.5 80.5t78.5 27.5q32 0 59 -14zM323 615l-82 159v10h83l53 -159v-10h-54zM180 615l-83 159v10h84l53 -159v-10h-54z"/>
<glyph glyph-name="uni0478" horiz-adv-x="1194" unicode="Ѹ" d="M511.5 138q52.5 76 52.5 224t-52.5 224t-155.5 76t-155 -76t-52 -224t52 -224t155 -76t155.5 76zM137.5 82.5q-75.5 95.5 -75.5 279.5t75.5 279.5t218.5 95.5t219 -95.5t76 -279.5t-76 -279.5t-219 -95.5t-218.5 95.5zM1165 536l-187 -539q-53 -150 -239 -216l-29 71 q71 25 116 59.5t70 83.5l-189 541h88l142 -441l142 441h86z"/>
<glyph glyph-name="uni0479" horiz-adv-x="1032" unicode="ѹ" d="M382.5 112.5q35.5 52.5 35.5 155.5q0 102 -35.5 155t-103.5 53q-70 0 -105.5 -53t-35.5 -155q0 -103 35.5 -155.5t104.5 -52.5t104.5 52.5zM112 58.5q-58 71.5 -58 209.5t58.5 209.5t166.5 71.5q107 0 165 -71.5t58 -209.5q0 -137 -58 -209t-166 -72t-166 71.5zM1003 536 l-187 -539q-53 -150 -239 -216l-29 71q71 25 116 59.5t70 83.5l-189 541h88l142 -441l142 441h86z"/>
<glyph glyph-name="uni047A" horiz-adv-x="791" unicode="Ѻ" d="M599.5 158.5q42.5 70.5 42.5 203.5t-43 203.5t-128 81.5q-19 -45 -76 -45q-28 0 -47.5 11.5t-27.5 33.5q-86 -11 -128.5 -81t-42.5 -204q0 -133 42.5 -203.5t128.5 -81.5q8 22 27.5 33.5t47.5 11.5q58 0 77 -45q85 11 127.5 81.5zM663 102.5q-66 -89.5 -192 -100.5 q-8 -22 -27.5 -34t-48.5 -12q-58 0 -76 46q-126 11 -191.5 100.5t-65.5 259.5t65.5 259.5t191.5 100.5q18 46 76 46q29 0 49 -12t28 -34q126 -11 191.5 -100.5t65.5 -259.5t-66 -259.5z"/>
<glyph glyph-name="uni047B" horiz-adv-x="593" unicode="ѻ" d="M432.5 140.5q22.5 46.5 22.5 127.5q0 160 -91 189q-18 -37 -68 -37q-24 0 -41.5 9.5t-25.5 27.5q-91 -30 -91 -189q0 -160 90 -189q19 37 68 37q51 0 69 -37q45 15 67.5 61.5zM495 84q-44 -66 -128 -80q-17 -43 -71 -43q-26 0 -44 11t-26 32q-172 30 -172 264 q0 233 172 263q8 20 26 31.5t44 11.5q27 0 45 -11t26 -31q172 -29 172 -264q0 -118 -44 -184z"/>
<glyph glyph-name="uni047C" horiz-adv-x="842" unicode="Ѽ" d="M115.5 75q-53.5 88 -53.5 245q0 110 25.5 217.5t70.5 186.5h95q-104 -160 -104 -405q0 -127 32.5 -192.5t94.5 -65.5q49 0 76 40t27 113h83q0 -73 27.5 -113t76.5 -40q63 0 95 65.5t32 192.5q0 120 -26.5 222.5t-77.5 182.5h95q45 -79 70.5 -186.5t25.5 -217.5 q0 -157 -54 -245t-150 -88q-60 0 -101 28t-54 79q-14 -51 -55 -79t-101 -28q-96 0 -149.5 88zM350 618q24 18 33.5 37.5t9.5 51.5q0 27 -5 54h80q5 -27 5 -50q0 -44 -22.5 -74.5t-72.5 -56.5zM270 790q0 54 27.5 84t76.5 30q22 0 39 -5.5t43 -16.5q26 -12 44.5 -17.5 t41.5 -5.5h24v-68h-21q-34 0 -58.5 7t-49.5 20q-4 2 -16 6.5t-21 7t-18 2.5q-40 0 -43 -44h-69z"/>
<glyph glyph-name="uni047D" horiz-adv-x="763" unicode="ѽ" d="M108.5 52.5q-44.5 65.5 -44.5 172.5q0 195 85 311h90q-50 -69 -70.5 -153.5t-20.5 -157.5q0 -166 97 -166q49 0 72.5 36.5t23.5 96.5h81q0 -67 26.5 -100t70.5 -33q96 0 96 166q0 87 -25 170.5t-69 140.5h94q38 -55 61 -134t23 -177q0 -112 -46 -175t-131 -63 q-50 0 -87 25.5t-53 81.5q-15 -56 -52.5 -81.5t-86.5 -25.5q-90 0 -134.5 65.5zM310 428q24 18 33.5 37.5t9.5 51.5q0 27 -5 54h80q5 -27 5 -50q0 -44 -22.5 -74.5t-72.5 -56.5zM230 600q0 54 27.5 84t76.5 30q22 0 39 -5.5t43 -16.5q26 -12 44.5 -17.5t41.5 -5.5h24v-68 h-21q-34 0 -58.5 7t-49.5 20q-4 2 -16 6.5t-21 7t-18 2.5q-40 0 -43 -44h-69z"/>
<glyph glyph-name="uni047E" horiz-adv-x="842" unicode="Ѿ" d="M754.5 537.5q25.5 -107.5 25.5 -217.5q0 -157 -54 -245t-150 -88q-60 0 -101 28t-54 79q-14 -51 -55 -79t-101 -28q-96 0 -149.5 88t-53.5 245q0 110 25.5 217.5t70.5 186.5h95q-104 -160 -104 -405q0 -127 32.5 -192.5t94.5 -65.5q49 0 76 40t27 112v178h83v-177 q0 -73 27.5 -113t76.5 -40q63 0 95 65.5t32 192.5q0 120 -26.5 222.5t-77.5 182.5h95q45 -79 70.5 -186.5zM273 777l-15 117h326l-16 -117h-39l-8 63h-72l-8 -61h-41l-8 61h-71l-9 -63h-39z"/>
<glyph glyph-name="uni047F" horiz-adv-x="715" unicode="ѿ" d="M683 536q-1 -138 -37.5 -270t-110.5 -266h-90l-81 291l-87 -291h-89l-157 536h87l117 -452l97 322l-35 130h85l113 -458q55 117 79 224.5t24 233.5h85zM218 607l-15 117h326l-16 -117h-39l-8 63h-72l-8 -61h-41l-8 61h-72l-8 -63h-39z"/>
<glyph glyph-name="uni0480" horiz-adv-x="594" unicode="Ҁ" d="M199 580q-60 -80 -60 -225q0 -143 61 -216t179 -73q35 0 62 5v-79v-179h-83v175q-145 5 -225.5 99.5t-80.5 260.5q0 117 39 205t110.5 136t166.5 48q49 0 97.5 -13t88.5 -36l-31 -67q-81 39 -157 39q-107 0 -167 -80z"/>
<glyph glyph-name="uni0481" horiz-adv-x="474" unicode="ҁ" d="M173.5 421.5q-39.5 -52.5 -39.5 -146.5q0 -104 41.5 -157.5t121.5 -53.5q31 0 50 6v-77v-180h-81v176q-102 8 -159 81.5t-57 197.5q0 84 29.5 147.5t83 98.5t123.5 35q40 0 80 -11.5t73 -32.5l-31 -66q-65 35 -124 35q-71 0 -110.5 -52.5z"/>
<glyph glyph-name="uni0482" horiz-adv-x="608" unicode="҂" d="M380 409l-94 -187l171 -90l-31 -59l-170 90l-94 -187l-59 29l95 188l-170 90l31 59l169 -90l94 187l-170 91l30 58l170 -90l94 187l59 -29l-95 -188l170 -90l-31 -59z"/>
<glyph glyph-name="uni0483" d="M-97 733q14 -13 14 -37q0 -25 -14 -39t-39 -14h-237q-2 -22 -15.5 -33.5t-36.5 -11.5q-25 0 -38.5 13.5t-13.5 38.5t13.5 38.5t38.5 13.5h238q2 21 15 32.5t36 11.5q25 0 39 -13z" unicode="҃"/>
<glyph glyph-name="uni0484" d="M-247 682q-14 0 -27 -4.5t-34 -13.5q-31 -14 -57.5 -22t-63.5 -8h-23v76h27q25 0 45.5 6t49.5 19q26 12 47 18.5t45 6.5q54 0 84.5 -33.5t30.5 -93.5h-77q-3 49 -47 49z" unicode="҄"/>
<glyph glyph-name="uni0485" d="M-309.5 702.5q-22.5 30.5 -22.5 74.5q0 30 5 50h80q-5 -27 -5 -54q0 -32 9.5 -51.5t33.5 -37.5l-28 -38q-50 26 -72.5 56.5z" unicode="҅"/>
<glyph glyph-name="uni0486" d="M-351 684q24 18 33.5 37.5t9.5 51.5q0 27 -5 54h80q5 -20 5 -50q0 -44 -22.5 -74.5t-72.5 -56.5z" unicode="҆"/>
<glyph glyph-name="uni0488" d="M82 -119.5q30 -31.5 32 -87.5h-44q-9 65 -71 65q-61 0 -72 -65h-41q2 56 32 87.5t82 31.5t82 -31.5zM382 67.5q30 -31.5 32 -87.5h-44q-9 65 -71 65q-61 0 -72 -65h-41q2 56 32 87.5t82 31.5t82 -31.5zM-218 67.5q30 -31.5 32 -87.5h-44q-9 65 -71 65q-61 0 -72 -65h-41 q2 56 32 87.5t82 31.5t82 -31.5zM482 314.5q30 -31.5 32 -87.5h-44q-9 65 -71 65q-61 0 -72 -65h-41q2 56 32 87.5t82 31.5t82 -31.5zM-318 314.5q30 -31.5 32 -87.5h-44q-9 65 -71 65q-61 0 -72 -65h-41q2 56 32 87.5t82 31.5t82 -31.5zM382 561.5q30 -31.5 32 -87.5h-44 q-9 65 -71 65q-61 0 -72 -65h-41q2 56 32 87.5t82 31.5t82 -31.5zM-218 561.5q30 -31.5 32 -87.5h-44q-9 65 -71 65q-61 0 -72 -65h-41q2 56 32 87.5t82 31.5t82 -31.5zM82 748.5q30 -31.5 32 -87.5h-44q-9 65 -71 65q-61 0 -72 -65h-41q2 56 32 87.5t82 31.5t82 -31.5z" unicode="҈"/>
<glyph glyph-name="uni0489" d="M-76 -203q24 26 33.5 49.5t9.5 60.5q0 19 -3 31h72q2 -16 2 -30q0 -41 -20 -74t-65 -68zM-399 -7q34 1 58 12t50 36l21 24l50 -50q-5 -8 -20 -24q-23 -23 -50.5 -33t-64.5 -10q-21 0 -45 3zM291 -113q-2 35 -12 58.5t-36 48.5q-10 11 -24 21l51 51q4 -4 10 -9t13 -12 q23 -23 33 -49.5t10 -63.5q0 -22 -3 -47zM488 210q-26 23 -50 32.5t-60 9.5q-14 0 -32 -2v71q18 2 31 2q41 0 74 -19.5t67 -64.5zM-489 360q25 -24 49 -33t61 -9q23 0 32 2v-72q-18 -2 -32 -2q-40 0 -72.5 20t-68.5 65zM398 578q-35 -2 -58.5 -12.5t-48.5 -35.5 q-12 -11 -21 -25l-51 51q8 12 21 23q22 23 49.5 33.5t64.5 10.5q21 0 45 -3zM-293 683q2 -36 12 -59t36 -49q14 -14 24 -21l-51 -51q-14 12 -23 21q-23 23 -33 49.5t-10 63.5q0 22 3 47zM74 774q-23 -27 -32.5 -50.5t-9.5 -59.5q0 -19 3 -33h-72q-2 18 -2 32q0 40 19.5 73 t64.5 68z" unicode="҉"/>
<glyph glyph-name="uni048A" horiz-adv-x="738" unicode="Ҋ" d="M705 75v-10l-72 -214h-63v10l28 139h-58v580l-365 -580h-80v724h83v-579l365 579h81v-649h81zM258.5 823q-41.5 36 -49.5 107h58q9 -38 34 -56.5t72 -18.5q90 0 107 75h54q-8 -70 -50 -106.5t-112 -36.5q-72 0 -113.5 36z"/>
<glyph glyph-name="uni048B" horiz-adv-x="628" unicode="ҋ" d="M594 69v-10l-71 -208h-62v10l30 139h-58v404l-264 -404h-80v535h81v-403l264 403h80v-466h80zM197.5 653q-41.5 36 -49.5 107h58q9 -38 34 -56.5t72 -18.5q90 0 107 75h54q-8 -70 -50 -106.5t-112 -36.5q-72 0 -113.5 36z"/>
<glyph glyph-name="uni048C" horiz-adv-x="615" unicode="Ҍ" d="M446 112q39 37 39 110q0 74 -38 112t-108 38h-161v-297h156q73 0 112 37zM509.5 389q62.5 -58 62.5 -167q0 -105 -63 -163.5t-171 -58.5h-243v557h-67v68h67v99h83v-99h173v-68h-173v-110h156q113 0 175.5 -58z"/>
<glyph glyph-name="uni048D" horiz-adv-x="530" unicode="ҍ" d="M373.5 95.5q31.5 26.5 31.5 79.5q0 101 -113 101h-106v-207h103q53 0 84.5 26.5zM489 174q0 -85 -56 -129.5t-141 -44.5h-187v416h-71v57h71v63h81v-63h132v-57h-132v-72h104q199 0 199 -170z"/>
<glyph glyph-name="uni048E" horiz-adv-x="596" unicode="Ҏ" d="M485 491q0 77 -36.5 117.5t-107.5 40.5h-163v-317h158l-29 119l68 17l31 -126q79 32 79 149zM533.5 346.5q-38.5 -57.5 -109.5 -78.5l29 -117l-68 -17l-30 123h-14h-163v-257h-83v724h250q107 0 167 -61.5t60 -171.5q0 -87 -38.5 -144.5z"/>
<glyph glyph-name="uni048F" horiz-adv-x="575" unicode="ҏ" d="M437 264q0 102 -35 154.5t-104 52.5q-36 0 -67 -15t-59 -48v-288q25 -28 60 -43.5t72 -15.5h11l-34 104l57 18l34 -103q65 44 65 184zM489 99q-32 -67 -92 -94l29 -87l-58 -19l-30 90q-18 -2 -28 -2q-42 0 -77 16t-61 45v-255h-81v743h75v-70q27 41 66 62t88 21 q94 0 147.5 -75t53.5 -209q0 -99 -32 -166z"/>
<glyph glyph-name="uni0490" horiz-adv-x="520" unicode="Ґ" d="M95 724h323l15 152h65v-227h-320v-649h-83v724z"/>
<glyph glyph-name="uni0491" horiz-adv-x="438" unicode="ґ" d="M91 536h236l15 151h65v-221h-235v-466h-81v536z"/>
<glyph glyph-name="uni0492" horiz-adv-x="524" unicode="Ғ" d="M178 649v-247h187v-71h-187v-331h-83v331h-67v71h67v322h406v-75h-323z"/>
<glyph glyph-name="uni0493" horiz-adv-x="449" unicode="ғ" d="M183 466v-172h149v-58h-149v-236h-81v236h-68v58h68v242h319v-70h-238z"/>
<glyph glyph-name="uni0494" horiz-adv-x="633" unicode="Ҕ" d="M494 378.5q89 -59.5 89 -202.5v-16q0 -125 -54 -197t-176 -115l-29 70q61 22 98.5 51.5t57 75.5t19.5 116v9q0 77 -32 119.5t-91.5 58.5t-153.5 16h-44v-364h-83v724h406v-75h-323v-211h62q165 0 254 -59.5z"/>
<glyph glyph-name="uni0495" horiz-adv-x="540" unicode="ҕ" d="M419 256.5q73 -41.5 73 -156.5v-14q0 -88 -41 -145t-143 -93l-28 68q73 26 102 66t29 104v9q0 59 -27.5 88t-72 38t-113.5 9h-26v-230h-81v536h319v-70h-238v-168h43q131 0 204 -41.5z"/>
<glyph glyph-name="uni0496" horiz-adv-x="988" unicode="Җ" d="M954 75v-224h-65l-15 149h-29l-207 335l-52 -22l-60 -24v-289h-81v289l-60 24l-53 22l-212 -335h-95l237 369q-53 30 -87.5 71t-59.5 107t-48 177h83q26 -122 55.5 -183t72 -92.5t128.5 -66.5l39 -16v358h81v-358l40 16q86 35 128.5 66.5t71.5 92.5t55 183h82 q-23 -110 -47.5 -176.5t-58.5 -107t-87 -70.5l184 -295h60z"/>
<glyph glyph-name="uni0497" horiz-adv-x="806" unicode="җ" d="M771 69v-218h-63l-15 149h-25l-153 241q-4 -1 -12 -5l-69 -27v-209h-77v209l-69 27q-7 4 -13 5l-153 -241h-93l177 275q-38 22 -62.5 53t-42.5 79t-37 129h80q18 -80 38 -124t50.5 -69t84.5 -45l40 -16v254h77v-254l40 16q54 20 84.5 45t50 68.5t37.5 124.5h81 q-19 -81 -37 -129t-42.5 -79t-62.5 -53l131 -206h55z"/>
<glyph glyph-name="uni0498" horiz-adv-x="547" unicode="Ҙ" d="M441 59q-59 -55 -160 -68l-9 -140h-62l-10 137q-110 5 -188 50l34 68q85 -41 175 -41q92 0 142 36.5t50 107.5q0 68 -45 97.5t-120 29.5h-114v73h106q71 0 108.5 33t37.5 95q0 63 -42.5 94t-113.5 31q-74 0 -160 -38l-29 66q89 47 193 47q108 0 173 -49t65 -143 q0 -117 -104 -164q132 -41 132 -173q0 -94 -59 -149z"/>
<glyph glyph-name="uni0499" horiz-adv-x="456" unicode="ҙ" d="M366.5 43q-44.5 -41 -122.5 -52l-11 -140h-58l-11 138q-87 5 -141 37l29 64q27 -14 62.5 -22t68.5 -8q70 0 107 24.5t37 72.5q0 84 -129 84h-84v66h82q50 0 81 21.5t31 63.5q0 45 -32.5 65.5t-84.5 20.5t-122 -30l-23 66q31 16 73 26t82 10q84 0 136.5 -36.5t52.5 -109.5 q0 -84 -83 -120q49 -14 76.5 -46.5t27.5 -84.5q0 -69 -44.5 -110z"/>
<glyph glyph-name="uni049A" horiz-adv-x="666" unicode="Қ" d="M632 75v-224h-64l-15 149h-30l-219 335l-42 -22l-84 -43v-270h-83v724h83v-372l66 34q88 45 131 78.5t72.5 92t51.5 167.5h86q-21 -104 -47.5 -168t-64.5 -104.5t-98 -77.5l199 -299h58z"/>
<glyph glyph-name="uni049B" horiz-adv-x="562" unicode="қ" d="M527 69v-218h-63l-15 149h-24l-163 242l-21 -11l-69 -33v-198h-81v536h81v-261l42 20q59 28 92 52t57.5 68t40.5 121h83q-25 -109 -60.5 -164.5t-95.5 -92.5l142 -210h54z"/>
<glyph glyph-name="uni049C" horiz-adv-x="649" unicode="Ҝ" d="M331 310v-179h-68v185l-85 -44v-272h-83v724h83v-375l85 44v192h70v-154q47 31 76.5 64t52 87t40.5 142h83q-22 -101 -49 -163.5t-64.5 -103t-97.5 -79.5l250 -378h-99z"/>
<glyph glyph-name="uni049D" horiz-adv-x="549" unicode="ҝ" d="M289 220v-132h-56v141l-61 -30v-199h-81v536h81v-266l61 29v144h58v-112q43 30 69.5 75.5t43.5 129.5h83q-25 -107 -60.5 -161t-96.5 -93l190 -282h-95z"/>
<glyph glyph-name="uni049E" horiz-adv-x="650" unicode="Ҟ" d="M523 0l-219 335l-42 -22l-84 -43v-270h-83v553h-67v70h67v101h83v-101h141v-70h-141v-201l66 34q88 45 131 78.5t72.5 92t51.5 167.5h86q-21 -104 -47.5 -168t-64.5 -104.5t-98 -77.5l249 -374h-101z"/>
<glyph glyph-name="uni049F" horiz-adv-x="564" unicode="ҟ" d="M439 0l-162 242l-22 -11l-69 -33v-198h-81v416h-71v57h71v63h81v-63h103v-57h-103v-141l43 20q59 28 91.5 52t57 67.5t41.5 121.5h83q-26 -109 -61 -164.5t-95 -92.5l189 -279h-96z"/>
<glyph glyph-name="uni04A0" horiz-adv-x="776" unicode="Ҡ" d="M650 0l-219 335l-43 -22l-83 -43v-270h-83v648h-192v76h246h29v-372l65 34q88 45 131 78.5t73 92t51 167.5h86q-21 -104 -47.5 -168t-64 -105t-97.5 -77l249 -374h-101z"/>
<glyph glyph-name="uni04A1" horiz-adv-x="635" unicode="ҡ" d="M510 0l-163 242q-3 -2 -21 -11l-69 -33v-198h-81v466h-149v70h197h33v-261l43 20q59 28 91.5 52t57 67.5t41.5 121.5h83q-26 -109 -61 -164.5t-95 -92.5l189 -279h-96z"/>
<glyph glyph-name="uni04A2" horiz-adv-x="720" unicode="Ң" d="M680 75v-224h-64l-15 149h-82v330h-344v-330h-83v724h83v-319h344v319h83v-649h78z"/>
<glyph glyph-name="uni04A3" horiz-adv-x="617" unicode="ң" d="M577 69v-218h-63l-16 149h-80v237h-246v-237h-81v536h81v-227h246v227h81v-467h78z"/>
<glyph glyph-name="uni04A4" horiz-adv-x="935" unicode="Ҥ" d="M514 0v330h-336v-330h-83v724h83v-319h336v319h398v-75h-315v-649h-83z"/>
<glyph glyph-name="uni04A5" horiz-adv-x="756" unicode="ҥ" d="M414 0v237h-242v-237h-81v536h81v-227h242v227h314v-70h-233v-466h-81z"/>
<glyph glyph-name="uni04A6" horiz-adv-x="1056" unicode="Ҧ" d="M917.5 378.5q88.5 -59.5 88.5 -202.5v-16q0 -125 -54 -197t-176 -115l-29 70q61 22 98.5 51.5t57 75.5t19.5 116v9q0 77 -32 119.5t-91.5 58.5t-153.5 16h-43v-364h-83v649h-341v-649h-83v724h507v-286h61q166 0 254.5 -59.5z"/>
<glyph glyph-name="uni04A7" horiz-adv-x="869" unicode="ҧ" d="M746.5 282.5q74.5 -46.5 74.5 -167.5v-14q0 -97 -42 -157t-145 -96l-28 68q75 26 104.5 69t29.5 116v10q0 62 -28 95t-74 44t-113 11h-26v-261h-82v466h-245v-466h-81v536h408v-207h43q130 0 204.5 -46.5z"/>
<glyph glyph-name="uni04A8" horiz-adv-x="834" unicode="Ҩ" d="M417.5 216.5q41.5 -75.5 130.5 -118.5q62 41 95.5 119.5t33.5 185.5q0 84 -21 143t-57 89t-81 30q-70 0 -106 -66t-36 -184q0 -123 41.5 -198.5zM763 -43q-133 23 -222 59q-66 -29 -144 -29q-103 0 -179 46.5t-116 132.5t-40 202q0 117 34.5 200.5t127.5 166.5l54 -54 q-51 -51 -79.5 -94.5t-41.5 -94.5t-13 -121q0 -94 30.5 -165t87.5 -110.5t136 -39.5q27 0 57 5q-82 54 -122 139.5t-40 214.5q0 93 26 166t76.5 114.5t121.5 41.5q73 0 127.5 -40t84.5 -115t30 -176q0 -104 -35.5 -192.5t-101.5 -145.5q67 -22 155 -36z"/>
<glyph glyph-name="uni04A9" horiz-adv-x="680" unicode="ҩ" d="M354.5 168q24.5 -52 87.5 -85q49 29 74.5 84.5t25.5 133.5q0 84 -32 131.5t-81 47.5q-50 0 -74.5 -45t-24.5 -125q0 -90 24.5 -142zM620 -45q-114 19 -190 51q-52 -19 -105 -19q-84 0 -145 35t-93.5 98.5t-32.5 147.5q0 90 27.5 152t101.5 129l52 -49 q-55 -53 -77.5 -104.5t-22.5 -123.5q0 -99 51 -158t145 -59q9 0 14 1q-52 42 -73.5 103t-21.5 151q0 103 46.5 171t132.5 68q57 0 100.5 -29.5t68 -85t24.5 -131.5q0 -78 -29 -142.5t-80 -106.5q46 -14 120 -28z"/>
<glyph glyph-name="uni04AA" horiz-adv-x="599" unicode="Ҫ" d="M485 2q-45 -12 -96 -14l-8 -137h-62l-8 142q-123 20 -191 116t-68 253q0 112 40 197t112.5 131.5t168.5 46.5q105 0 181 -45l-29 -66q-70 35 -152 35q-110 0 -172 -77t-62 -214q0 -150 61 -227t179 -77q89 0 149 34l32 -65q-30 -21 -75 -33z"/>
<glyph glyph-name="uni04AB" horiz-adv-x="488" unicode="ҫ" d="M385.5 2.5q-34.5 -11.5 -73.5 -13.5l-8 -138h-61l-8 142q-88 17 -136.5 89t-48.5 186q0 84 29.5 147.5t83 98.5t123.5 35q40 0 80 -11.5t73 -32.5l-30 -64q-67 35 -125 35q-70 0 -110 -53.5t-40 -147.5q0 -104 41.5 -157.5t121.5 -53.5q60 0 118 33l30 -64 q-25 -19 -59.5 -30.5z"/>
<glyph glyph-name="uni04AC" horiz-adv-x="527" unicode="Ҭ" d="M305 648v-573h78v-224h-64l-16 149h-81v648h-192v76h467v-76h-192z"/>
<glyph glyph-name="uni04AD" horiz-adv-x="436" unicode="ҭ" d="M257 466v-397h78v-218h-63l-16 149h-80v466h-149v70h380v-70h-150z"/>
<glyph glyph-name="uni04AE" horiz-adv-x="579" unicode="Ү" d="M249 257l-227 467h92l177 -372l175 372h91l-225 -467v-257h-83v257z"/>
<glyph glyph-name="uni04AF" horiz-adv-x="531" unicode="ү" d="M225 58l-202 478h89l155 -386l153 386h87l-201 -478v-265h-81v265z"/>
<glyph glyph-name="uni04B0" horiz-adv-x="579" unicode="Ұ" d="M332 228h135v-68h-135v-160h-83v160h-135v68h135v29l-227 467h92l177 -372l175 372h91l-225 -467v-29z"/>
<glyph glyph-name="uni04B1" horiz-adv-x="531" unicode="ұ" d="M306 47h116v-57h-116v-197h-81v197h-115v57h115v11l-202 478h89l155 -386l153 386h87l-201 -478v-11z"/>
<glyph glyph-name="uni04B2" horiz-adv-x="630" unicode="Ҳ" d="M595 75v-224h-64l-15 149h-40l-178 294l-172 -294h-97l223 368l-216 356h99l169 -283l167 283h97l-216 -356l177 -293h66z"/>
<glyph glyph-name="uni04B3" horiz-adv-x="525" unicode="ҳ" d="M490 69v-218h-63l-15 149h-38l-126 208l-125 -208h-94l174 271l-167 265h96l119 -199l123 199h95l-173 -261l130 -206h64z"/>
<glyph glyph-name="uni04B4" horiz-adv-x="839" unicode="Ҵ" d="M799 75v-224h-64l-15 149h-506v648h-184v76h267h184v-76h-184v-573h341v649h83v-649h78z"/>
<glyph glyph-name="uni04B5" horiz-adv-x="692" unicode="ҵ" d="M650 69v-218h-63l-15 149h-412v466h-133v70h214h134v-70h-134v-397h251v467h81v-467h77z"/>
<glyph glyph-name="uni04B6" horiz-adv-x="694" unicode="Ҷ" d="M654 75v-224h-64l-15 149h-82v321q-49 -21 -95 -30.5t-96 -9.5q-113 0 -170.5 62.5t-57.5 173.5v207h83v-193q0 -86 37 -130.5t121 -44.5t178 41v327h83v-649h78z"/>
<glyph glyph-name="uni04B7" horiz-adv-x="589" unicode="ҷ" d="M549 69v-218h-63l-15 149h-80v229q-76 -30 -148 -30q-85 0 -129 46.5t-44 129.5v161h81v-142q0 -58 25 -90t87 -32q60 0 128 28v236h81v-467h77z"/>
<glyph glyph-name="uni04B8" horiz-adv-x="671" unicode="Ҹ" d="M576 724v-724h-83v323q-63 -27 -128 -36v-145h-74v142q-108 3 -162.5 63.5t-54.5 169.5v207h83v-193q0 -80 31.5 -124.5t102.5 -51.5v159h74v-157q56 7 128 38v329h83z"/>
<glyph glyph-name="uni04B9" horiz-adv-x="563" unicode="ҹ" d="M472 536v-536h-81v232q-44 -18 -88 -26v-111h-61v107q-85 0 -128.5 45.5t-43.5 128.5v160h81v-143q0 -53 20.5 -85t70.5 -38v135h61v-133q42 6 88 26v238h81z"/>
<glyph glyph-name="uni04BA" horiz-adv-x="645" unicode="Һ" d="M513.5 413.5q54.5 -59.5 54.5 -170.5v-243h-83v234q0 81 -35 123t-116 42q-72 0 -156 -36v-363h-83v724h83v-285q89 34 171 34q110 0 164.5 -59.5z"/>
<glyph glyph-name="uni04BB" horiz-adv-x="583" unicode="һ" d="M172 770v-287q66 66 158 66q79 0 123 -45t44 -126v-378h-81v371q0 100 -109 100q-75 0 -135 -51v-420h-81v770h81z"/>
<glyph glyph-name="uni04BC" horiz-adv-x="790" unicode="Ҽ" d="M656 414q-1 118 -51 183t-141 65q-90 0 -140 -62.5t-60 -185.5h392zM739 341h-476q6 -135 65 -205t163 -70q49 0 98.5 14t93.5 42l33 -67q-41 -32 -101.5 -49.5t-125.5 -17.5q-144 0 -226 92.5t-87 260.5h-16q-70 0 -108.5 33t-38.5 93q0 26 8 53.5t20 47.5l66 -24 q-8 -13 -13 -32t-5 -34q0 -30 17.5 -47.5t53.5 -17.5h17q11 154 87 240t203 86q131 0 203.5 -90t72.5 -251q0 -37 -4 -57z"/>
<glyph glyph-name="uni04BD" horiz-adv-x="631" unicode="ҽ" d="M502 311q-1 78 -37 121.5t-99 43.5q-123 0 -137 -165h273zM579 245h-351q4 -89 45 -135t118 -46q73 0 136 40l31 -64q-31 -25 -77 -38.5t-95 -13.5q-109 0 -172 67.5t-68 189.5h-14q-56 0 -86 26t-30 73q0 41 24 82l56 -22q-5 -9 -9 -22t-4 -24q0 -47 53 -47h11 q10 113 67.5 175.5t153.5 62.5q102 0 158.5 -68t56.5 -190q0 -29 -4 -46z"/>
<glyph glyph-name="uni04BE" horiz-adv-x="790" unicode="Ҿ" d="M656 414q-1 118 -51 183t-141 65q-90 0 -140 -62.5t-60 -185.5h392zM739 341h-476q6 -135 65 -205t163 -70q49 0 98.5 14t93.5 42l33 -67q-37 -28 -88.5 -45t-108.5 -21l-9 -138h-62l-10 140q-121 16 -189 107t-73 243h-16q-70 0 -108.5 33t-38.5 93q0 26 8 53.5t20 47.5 l66 -24q-8 -13 -13 -32t-5 -34q0 -30 17.5 -47.5t53.5 -17.5h17q11 154 87 240t203 86q131 0 203.5 -90t72.5 -251q0 -37 -4 -57z"/>
<glyph glyph-name="uni04BF" horiz-adv-x="631" unicode="ҿ" d="M502 311q-1 78 -37 121.5t-99 43.5q-123 0 -137 -165h273zM579 245h-351q4 -89 45 -135t118 -46q73 0 136 40l31 -64q-27 -21 -64.5 -34t-79.5 -17l-11 -138h-57l-12 141q-86 15 -135 81t-53 172h-14q-56 0 -86 26t-30 73q0 41 24 82l56 -22q-5 -9 -9 -22t-4 -24 q0 -47 53 -47h11q10 113 67.5 175.5t153.5 62.5q102 0 158.5 -68t56.5 -190q0 -29 -4 -46z"/>
<glyph glyph-name="uni04C0" horiz-adv-x="277" unicode="Ӏ" d="M179 724v-724h-82v724h82z"/>
<glyph glyph-name="uni04C1" horiz-adv-x="966" unicode="Ӂ" d="M845 0l-207 335l-52 -22l-60 -24v-289h-81v289l-60 24l-53 22l-212 -335h-95l237 369q-53 30 -87.5 71t-59.5 107t-48 177h83q26 -122 55.5 -183t72 -92.5t128.5 -66.5l39 -16v358h81v-358l40 16q86 35 128.5 66.5t71.5 92.5t55 183h82q-23 -110 -47.5 -176.5t-58.5 -107 t-87 -70.5l231 -370h-96zM375 823q-41 36 -49 107h57q8 -38 33.5 -56.5t72.5 -18.5q90 0 107 75h55q-8 -70 -50.5 -106.5t-112.5 -36.5q-72 0 -113 36z"/>
<glyph glyph-name="uni04C2" horiz-adv-x="791" unicode="ӂ" d="M668 0l-153 241q-4 -1 -12 -5l-69 -27v-209h-77v209l-69 27q-7 4 -13 5l-153 -241h-93l177 275q-38 22 -62.5 53t-42.5 79t-37 129h80q18 -80 38 -124t50.5 -69t84.5 -45l40 -16v254h77v-254l40 16q54 20 84.5 45t50 68.5t37.5 124.5h81q-19 -81 -37 -129t-42.5 -79 t-62.5 -53l176 -275h-93zM284 653q-41 36 -49 107h57q8 -38 33.5 -56.5t72.5 -18.5q90 0 107 75h55q-8 -70 -50.5 -106.5t-112.5 -36.5q-72 0 -113 36z"/>
<glyph glyph-name="uni04C3" horiz-adv-x="650" unicode="Ӄ" d="M603 -11q0 -48 -28 -80.5t-98 -60.5l-29 69q37 16 53.5 33t16.5 40q0 15 -6 28.5t-19 33.5l-188 283l-43 -22l-84 -43v-270h-83v724h83v-372l66 34q88 45 131 78.5t72.5 92t51.5 167.5h86q-21 -104 -47.5 -168t-64 -105t-98.5 -77l193 -282q35 -52 35 -103z"/>
<glyph glyph-name="uni04C4" horiz-adv-x="550" unicode="ӄ" d="M490 38.5q9 -23.5 9 -50.5q0 -50 -27 -81t-96 -59l-28 68q37 15 53.5 31.5t16.5 40.5q0 15 -5.5 28.5t-18.5 32.5l-132 193l-21 -11l-69 -33v-198h-81v536h81v-261l42 20q59 28 92 52t57.5 68t40.5 121h83q-25 -109 -60.5 -164.5t-95.5 -92.5l131 -189q19 -28 28 -51.5z "/>
<glyph glyph-name="uni04C5" horiz-adv-x="704" unicode="Ӆ" d="M670 75v-10l-72 -214h-63v10l28 139h-57v649h-233l-22 -313q-7 -104 -22 -162.5t-54 -102.5t-118 -82l-38 70q59 30 89 66t42 85t18 134l26 380h395v-649h81z"/>
<glyph glyph-name="uni04C6" horiz-adv-x="601" unicode="ӆ" d="M567 69v-10l-71 -208h-62v10l30 139h-59v466h-163l-16 -208q-6 -78 -18.5 -122t-45 -78t-98.5 -66l-35 67q45 23 69 50t34 63.5t14 94.5l19 269h321v-467h81z"/>
<glyph glyph-name="uni04C7" horiz-adv-x="701" unicode="Ӈ" d="M591 -35q-14 -38 -46.5 -65t-91.5 -52l-29 70q41 17 61.5 35t28.5 43t8 67v267h-344v-330h-83v724h83v-319h344v319h83v-661q0 -60 -14 -98z"/>
<glyph glyph-name="uni04C8" horiz-adv-x="590" unicode="ӈ" d="M485.5 -36q-13.5 -38 -45 -65t-91.5 -51l-27 68q40 17 60.5 35t28 43.5t7.5 68.5v174h-246v-237h-81v536h81v-227h246v227h81v-474q0 -60 -13.5 -98z"/>
<glyph glyph-name="uni04C9" horiz-adv-x="720" unicode="Ӊ" d="M686 75v-10l-72 -214h-63v10l28 139h-57v330h-344v-330h-83v724h83v-319h344v319h83v-649h81z"/>
<glyph glyph-name="uni04CA" horiz-adv-x="614" unicode="ӊ" d="M580 69v-10l-72 -208h-61v10l30 139h-59v237h-246v-237h-81v536h81v-227h246v227h81v-467h81z"/>
<glyph glyph-name="uni04CB" horiz-adv-x="671" unicode="Ӌ" d="M576 724v-724h-82l-15 -149h-64v224h78v262q-49 -21 -95 -30.5t-96 -9.5q-113 0 -170.5 62t-57.5 174v191h83v-178q0 -85 37 -129.5t121 -44.5t178 41v311h83z"/>
<glyph glyph-name="uni04CC" horiz-adv-x="563" unicode="ӌ" d="M472 536v-536h-80l-15 -149h-64v218h78v181q-73 -30 -148 -30q-85 0 -129 46.5t-44 129.5v140h81v-121q0 -58 25 -90t87 -32q64 0 128 28v215h81z"/>
<glyph glyph-name="uni04CD" horiz-adv-x="864" unicode="Ӎ" d="M830 75v-10l-71 -214h-64v10l29 139h-55v592l-204 -442h-87l-203 442v-592h-80v724h100l228 -494l226 494h101v-649h80z"/>
<glyph glyph-name="uni04CE" horiz-adv-x="738" unicode="ӎ" d="M704 69v-10l-72 -208h-61v10l30 139h-54v416l-158 -319h-69l-154 319v-416h-75v536h97l168 -348l171 348h96v-467h81z"/>
<glyph glyph-name="uni04CF" horiz-adv-x="263" unicode="ӏ" d="M172 770v-770h-81v770h81z"/>
<glyph glyph-name="uni04D0" horiz-adv-x="658" unicode="Ӑ" d="M203 266h249l-125 368zM477 192h-297l-65 -192h-89l257 724h92l257 -724h-90zM216 823q-41 36 -49 107h57q8 -38 33.5 -56.5t72.5 -18.5q90 0 107 75h55q-8 -70 -50.5 -106.5t-112.5 -36.5q-72 0 -113 36z"/>
<glyph glyph-name="uni04D1" horiz-adv-x="526" unicode="ӑ" d="M178.5 242.5q-58.5 -28.5 -58.5 -87.5q0 -46 26.5 -69.5t78.5 -23.5q41 0 74 15.5t62 47.5v147q-124 -1 -182.5 -29.5zM367 67q-52 -78 -161 -78q-79 0 -123 42t-44 118q0 95 78 140.5t244 46.5v35q0 50 -31.5 76t-91.5 26q-67 0 -127 -28l-21 67q74 37 158 37 q87 0 140.5 -44t53.5 -127v-378h-75v67zM146 653q-41 36 -49 107h57q8 -38 33.5 -56.5t72.5 -18.5q90 0 107 75h55q-8 -70 -50.5 -106.5t-112.5 -36.5q-72 0 -113 36z"/>
<glyph glyph-name="uni04D2" horiz-adv-x="658" unicode="Ӓ" d="M203 266h249l-125 368zM477 192h-297l-65 -192h-89l257 724h92l257 -724h-90zM385.5 810q-13.5 14 -13.5 40t13.5 40.5t38.5 14.5t39 -14.5t14 -39.5q0 -26 -14 -40.5t-39 -14.5t-38.5 14zM190.5 810q-13.5 14 -13.5 40t13.5 40.5t38.5 14.5t39 -14.5t14 -39.5 q0 -26 -14 -40.5t-39 -14.5t-38.5 14z"/>
<glyph glyph-name="uni04D3" horiz-adv-x="526" unicode="ӓ" d="M178.5 242.5q-58.5 -28.5 -58.5 -87.5q0 -46 26.5 -69.5t78.5 -23.5q41 0 74 15.5t62 47.5v147q-124 -1 -182.5 -29.5zM367 67q-52 -78 -161 -78q-79 0 -123 42t-44 118q0 95 78 140.5t244 46.5v35q0 50 -31.5 76t-91.5 26q-67 0 -127 -28l-21 67q74 37 158 37 q87 0 140.5 -44t53.5 -127v-378h-75v67zM309.5 641q-13.5 14 -13.5 40t13.5 40.5t38.5 14.5t39 -14.5t14 -39.5q0 -26 -14 -40.5t-39 -14.5t-38.5 14zM122.5 641q-13.5 14 -13.5 40t13.5 40.5t38.5 14.5t39 -14.5t14 -39.5q0 -26 -14 -40.5t-39 -14.5t-38.5 14z"/>
<glyph glyph-name="uni04D4" horiz-adv-x="903" unicode="Ӕ" d="M440 663l-215 -405h215v405zM859 0h-419v183h-254l-98 -183h-91l390 724h460v-75h-327v-241h241v-76h-241v-257h339v-75z"/>
<glyph glyph-name="uni04D5" horiz-adv-x="823" unicode="ӕ" d="M298.5 82q35.5 20 67.5 62q-17 54 -17 121q-117 -1 -173 -28t-56 -83q0 -45 25.5 -68.5t74.5 -23.5q43 0 78.5 20zM470 433q-33 -41 -40 -122h263q-1 78 -35.5 120.5t-95.5 42.5q-59 0 -92 -41zM771 246h-343q5 -89 45.5 -135.5t113.5 -46.5q69 0 132 40l30 -64 q-31 -25 -75.5 -38.5t-91.5 -13.5q-64 0 -112.5 25.5t-77.5 73.5q-40 -50 -87 -74t-104 -24q-76 0 -119 42t-43 117q0 92 75.5 136t236.5 45v42q0 50 -30 76t-89 26q-64 0 -121 -28l-21 67q74 37 153 37q55 0 97 -20t64 -58q58 78 160 78q99 0 154.5 -68t55.5 -190 q0 -27 -3 -45z"/>
<glyph glyph-name="uni04D6" horiz-adv-x="570" unicode="Ӗ" d="M95 724h424v-75h-341v-241h255v-76h-255v-257h353v-75h-436v724zM202 823q-41 36 -49 107h57q8 -38 33.5 -56.5t72.5 -18.5q90 0 107 75h55q-8 -70 -50.5 -106.5t-112.5 -36.5q-72 0 -113 36z"/>
<glyph glyph-name="uni04D7" horiz-adv-x="538" unicode="ӗ" d="M136 311h273q-1 78 -37 121.5t-99 43.5q-123 0 -137 -165zM388 1.5q-46 -13.5 -95 -13.5q-114 0 -177.5 73.5t-63.5 206.5t58.5 207t164.5 74q102 0 158.5 -68t56.5 -190q0 -29 -4 -46h-352q5 -89 46.5 -135t117.5 -46q73 0 136 40l31 -64q-31 -25 -77 -38.5zM171 653 q-41 36 -49 107h57q8 -38 33.5 -56.5t72.5 -18.5q90 0 107 75h55q-8 -70 -50.5 -106.5t-112.5 -36.5q-72 0 -113 36z"/>
<glyph glyph-name="uni04D8" horiz-adv-x="677" unicode="Ә" d="M463 128.5q54 63.5 64 183.5h-393q2 -118 49.5 -182.5t137.5 -64.5q88 0 142 63.5zM117 77.5q-70 89.5 -70 251.5q0 37 4 57h477q-4 135 -62 204.5t-165 69.5q-99 0 -194 -56l-33 67q43 31 103 49.5t126 18.5q152 0 232 -97.5t80 -277.5q0 -118 -36 -202.5t-103 -129 t-158 -44.5q-131 0 -201 89.5z"/>
<glyph glyph-name="uni04D9" horiz-adv-x="538" unicode="ә" d="M357.5 102.5q37.5 42.5 44.5 123.5h-273q1 -79 34 -122.5t96 -43.5q61 0 98.5 42.5zM102 55.5q-54 67.5 -54 190.5q0 19 4 45h352q-9 182 -164 182q-70 0 -136 -40l-31 64q33 24 78.5 38t94.5 14q117 0 178.5 -73.5t61.5 -206.5q0 -132 -61 -206.5t-168 -74.5 q-101 0 -155 67.5z"/>
<glyph glyph-name="uni04DA" horiz-adv-x="677" unicode="Ӛ" d="M463 128.5q54 63.5 64 183.5h-393q2 -118 49.5 -182.5t137.5 -64.5q88 0 142 63.5zM117 77.5q-70 89.5 -70 251.5q0 37 4 57h477q-4 135 -62 204.5t-165 69.5q-99 0 -194 -56l-33 67q43 31 103 49.5t126 18.5q152 0 232 -97.5t80 -277.5q0 -118 -36 -202.5t-103 -129 t-158 -44.5q-131 0 -201 89.5zM378.5 810q-13.5 14 -13.5 40t13.5 40.5t38.5 14.5t39 -14.5t14 -39.5q0 -26 -14 -40.5t-39 -14.5t-38.5 14zM183.5 810q-13.5 14 -13.5 40t13.5 40.5t38.5 14.5t39 -14.5t14 -39.5q0 -26 -14 -40.5t-39 -14.5t-38.5 14z"/>
<glyph glyph-name="uni04DB" horiz-adv-x="538" unicode="ӛ" d="M357.5 102.5q37.5 42.5 44.5 123.5h-273q1 -79 34 -122.5t96 -43.5q61 0 98.5 42.5zM102 55.5q-54 67.5 -54 190.5q0 19 4 45h352q-9 182 -164 182q-70 0 -136 -40l-31 64q33 24 78.5 38t94.5 14q117 0 178.5 -73.5t61.5 -206.5q0 -132 -61 -206.5t-168 -74.5 q-101 0 -155 67.5zM317.5 641q-13.5 14 -13.5 40t13.5 40.5t38.5 14.5t39 -14.5t14 -39.5q0 -26 -14 -40.5t-39 -14.5t-38.5 14zM130.5 641q-13.5 14 -13.5 40t13.5 40.5t38.5 14.5t39 -14.5t14 -39.5q0 -26 -14 -40.5t-39 -14.5t-38.5 14z"/>
<glyph glyph-name="uni04DC" horiz-adv-x="966" unicode="Ӝ" d="M845 0l-207 335l-52 -22l-60 -24v-289h-81v289l-60 24l-53 22l-212 -335h-95l237 369q-53 30 -87.5 71t-59.5 107t-48 177h83q26 -122 55.5 -183t72 -92.5t128.5 -66.5l39 -16v358h81v-358l40 16q86 35 128.5 66.5t71.5 92.5t55 183h82q-23 -110 -47.5 -176.5t-58.5 -107 t-87 -70.5l231 -370h-96zM544.5 810q-13.5 14 -13.5 40t13.5 40.5t38.5 14.5t39 -14.5t14 -39.5q0 -26 -14 -40.5t-39 -14.5t-38.5 14zM349.5 810q-13.5 14 -13.5 40t13.5 40.5t38.5 14.5t39 -14.5t14 -39.5q0 -26 -14 -40.5t-39 -14.5t-38.5 14z"/>
<glyph glyph-name="uni04DD" horiz-adv-x="791" unicode="ӝ" d="M668 0l-153 241q-4 -1 -12 -5l-69 -27v-209h-77v209l-69 27q-7 4 -13 5l-153 -241h-93l177 275q-38 22 -62.5 53t-42.5 79t-37 129h80q18 -80 38 -124t50.5 -69t84.5 -45l40 -16v254h77v-254l40 16q54 20 84.5 45t50 68.5t37.5 124.5h81q-19 -81 -37 -129t-42.5 -79 t-62.5 -53l176 -275h-93zM449.5 641q-13.5 14 -13.5 40t13.5 40.5t38.5 14.5t39 -14.5t14 -39.5q0 -26 -14 -40.5t-39 -14.5t-38.5 14zM262.5 641q-13.5 14 -13.5 40t13.5 40.5t38.5 14.5t39 -14.5t14 -39.5q0 -26 -14 -40.5t-39 -14.5t-38.5 14z"/>
<glyph glyph-name="uni04DE" horiz-adv-x="547" unicode="Ӟ" d="M500 208q0 -107 -76 -163.5t-201 -56.5t-211 50l34 68q85 -41 175 -41q92 0 142 36.5t50 107.5q0 68 -45 97.5t-120 29.5h-114v73h106q71 0 108.5 33t37.5 95q0 63 -42.5 94t-113.5 31q-74 0 -160 -38l-29 66q89 47 193 47q108 0 173 -49t65 -143q0 -117 -104 -164 q132 -41 132 -173zM301.5 810q-13.5 14 -13.5 40t13.5 40.5t38.5 14.5t39 -14.5t14 -39.5q0 -26 -14 -40.5t-39 -14.5t-38.5 14zM106.5 810q-13.5 14 -13.5 40t13.5 40.5t38.5 14.5t39 -14.5t14 -39.5q0 -26 -14 -40.5t-39 -14.5t-38.5 14z"/>
<glyph glyph-name="uni04DF" horiz-adv-x="456" unicode="ӟ" d="M383.5 237.5q27.5 -32.5 27.5 -84.5q0 -80 -60 -122.5t-159 -42.5q-47 0 -91.5 9t-77.5 29l29 64q27 -14 62.5 -22t68.5 -8q70 0 107 24.5t37 72.5q0 84 -129 84h-84v66h82q50 0 81 21.5t31 63.5q0 45 -32.5 65.5t-84.5 20.5t-122 -30l-23 66q31 16 73 26t82 10 q84 0 136.5 -36.5t52.5 -109.5q0 -84 -83 -120q49 -14 76.5 -46.5zM261.5 641q-13.5 14 -13.5 40t13.5 40.5t38.5 14.5t39 -14.5t14 -39.5q0 -26 -14 -40.5t-39 -14.5t-38.5 14zM74.5 641q-13.5 14 -13.5 40t13.5 40.5t38.5 14.5t39 -14.5t14 -39.5q0 -26 -14 -40.5 t-39 -14.5t-38.5 14z"/>
<glyph glyph-name="uni04E0" horiz-adv-x="569" unicode="Ӡ" d="M515 220q0 -113 -75.5 -172.5t-199.5 -59.5q-60 0 -119.5 13.5t-105.5 39.5l35 68q42 -20 92 -32t97 -12q92 0 140.5 39.5t48.5 116.5t-56.5 109.5t-164.5 32.5h-41v69l204 217h-317v75h418v-76l-204 -218q248 -16 248 -210z"/>
<glyph glyph-name="uni04E1" horiz-adv-x="503" unicode="ӡ" d="M394 158q64 -50 64 -151q0 -111 -68.5 -169t-177.5 -58q-115 0 -186 40l29 65q40 -18 75 -25.5t75 -7.5q81 0 125 40t44 114q0 145 -205 145h-44v66l201 249h-272v70h366v-71l-205 -250q115 -7 179 -57z"/>
<glyph glyph-name="uni04E2" horiz-adv-x="719" unicode="Ӣ" d="M178 145l365 579h81v-724h-84v580l-365 -580h-80v724h83v-579zM222 873h290v-63h-290v63z"/>
<glyph glyph-name="uni04E3" horiz-adv-x="606" unicode="ӣ" d="M172 132l263 404h80v-536h-81v405l-263 -405h-80v536h81v-404zM159 703h290v-63h-290v63z"/>
<glyph glyph-name="uni04E4" horiz-adv-x="719" unicode="Ӥ" d="M178 145l365 579h81v-724h-84v580l-365 -580h-80v724h83v-579zM426.5 810q-13.5 14 -13.5 40t13.5 40.5t38.5 14.5t39 -14.5t14 -39.5q0 -26 -14 -40.5t-39 -14.5t-38.5 14zM231.5 810q-13.5 14 -13.5 40t13.5 40.5t38.5 14.5t39 -14.5t14 -39.5q0 -26 -14 -40.5 t-39 -14.5t-38.5 14z"/>
<glyph glyph-name="uni04E5" horiz-adv-x="606" unicode="ӥ" d="M172 132l263 404h80v-536h-81v405l-263 -405h-80v536h81v-404zM358.5 641q-13.5 14 -13.5 40t13.5 40.5t38.5 14.5t39 -14.5t14 -39.5q0 -26 -14 -40.5t-39 -14.5t-38.5 14zM171.5 641q-13.5 14 -13.5 40t13.5 40.5t38.5 14.5t39 -14.5t14 -39.5q0 -26 -14 -40.5 t-39 -14.5t-38.5 14z"/>
<glyph glyph-name="uni04E6" horiz-adv-x="713" unicode="Ӧ" d="M511 138q53 76 53 224t-53 224t-155 76q-103 0 -155 -76t-52 -224t52 -224t155 -76q102 0 155 76zM137.5 82.5q-75.5 95.5 -75.5 279.5q0 185 75.5 280t218.5 95t219 -95t76 -280q0 -184 -76 -279.5t-219 -95.5t-218.5 95.5zM413.5 810q-13.5 14 -13.5 40t13.5 40.5 t38.5 14.5t39 -14.5t14 -39.5q0 -26 -14 -40.5t-39 -14.5t-38.5 14zM218.5 810q-13.5 14 -13.5 40t13.5 40.5t38.5 14.5t39 -14.5t14 -39.5q0 -26 -14 -40.5t-39 -14.5t-38.5 14z"/>
<glyph glyph-name="uni04E7" horiz-adv-x="556" unicode="ӧ" d="M382.5 112.5q35.5 52.5 35.5 155.5q0 102 -35.5 155t-103.5 53q-70 0 -105.5 -53t-35.5 -156q0 -102 35.5 -154.5t104.5 -52.5t104.5 52.5zM112.5 58.5q-58.5 71.5 -58.5 208.5q0 138 58.5 210t166.5 72q107 0 165 -71.5t58 -209.5q0 -137 -58 -209t-166 -72 q-107 0 -165.5 71.5zM333.5 641q-13.5 14 -13.5 40t13.5 40.5t38.5 14.5t39 -14.5t14 -39.5q0 -26 -14 -40.5t-39 -14.5t-38.5 14zM146.5 641q-13.5 14 -13.5 40t13.5 40.5t38.5 14.5t39 -14.5t14 -39.5q0 -26 -14 -40.5t-39 -14.5t-38.5 14z"/>
<glyph glyph-name="uni04E8" horiz-adv-x="713" unicode="Ө" d="M505.5 130.5q52.5 68.5 57.5 201.5h-414q5 -134 57.5 -202t149.5 -68t149.5 68.5zM210 597.5q-52 -64.5 -60 -190.5h412q-8 126 -60 190.5t-146 64.5t-146 -64.5zM575 642q76 -95 76 -280q0 -184 -76 -279.5t-219 -95.5t-218.5 95.5t-75.5 279.5q0 185 75.5 280t218.5 95 t219 -95z"/>
<glyph glyph-name="uni04E9" horiz-adv-x="556" unicode="ө" d="M377.5 104q35.5 45 39.5 133h-278q4 -88 39.5 -133t99.5 -45t99.5 45zM180.5 433q-35.5 -44 -41.5 -129h278q-6 86 -41 129.5t-97 43.5q-63 0 -98.5 -44zM444 477.5q58 -71.5 58 -209.5q0 -137 -58 -209t-166 -72q-107 0 -165.5 71.5t-58.5 208.5q0 138 58.5 210 t166.5 72q107 0 165 -71.5z"/>
<glyph glyph-name="uni04EA" horiz-adv-x="713" unicode="Ӫ" d="M505.5 130.5q52.5 68.5 57.5 201.5h-414q5 -134 57.5 -202t149.5 -68t149.5 68.5zM210 597.5q-52 -64.5 -60 -190.5h412q-8 126 -60 190.5t-146 64.5t-146 -64.5zM575 642q76 -95 76 -280q0 -184 -76 -279.5t-219 -95.5t-218.5 95.5t-75.5 279.5q0 185 75.5 280t218.5 95 t219 -95zM413.5 810q-13.5 14 -13.5 40t13.5 40.5t38.5 14.5t39 -14.5t14 -39.5q0 -26 -14 -40.5t-39 -14.5t-38.5 14zM218.5 810q-13.5 14 -13.5 40t13.5 40.5t38.5 14.5t39 -14.5t14 -39.5q0 -26 -14 -40.5t-39 -14.5t-38.5 14z"/>
<glyph glyph-name="uni04EB" horiz-adv-x="556" unicode="ӫ" d="M377.5 104q35.5 45 39.5 133h-278q4 -88 39.5 -133t99.5 -45t99.5 45zM180.5 433q-35.5 -44 -41.5 -129h278q-6 86 -41 129.5t-97 43.5q-63 0 -98.5 -44zM444 477.5q58 -71.5 58 -209.5q0 -137 -58 -209t-166 -72q-107 0 -165.5 71.5t-58.5 208.5q0 138 58.5 210 t166.5 72q107 0 165 -71.5zM331.5 641q-13.5 14 -13.5 40t13.5 40.5t38.5 14.5t39 -14.5t14 -39.5q0 -26 -14 -40.5t-39 -14.5t-38.5 14zM144.5 641q-13.5 14 -13.5 40t13.5 40.5t38.5 14.5t39 -14.5t14 -39.5q0 -26 -14 -40.5t-39 -14.5t-38.5 14z"/>
<glyph glyph-name="uni04EC" horiz-adv-x="604" unicode="Ӭ" d="M407 695q70 -42 108 -123t38 -195q0 -121 -39.5 -208.5t-113 -134t-174.5 -46.5q-56 0 -105.5 12.5t-80.5 34.5l31 65q60 -34 149 -34q109 0 171.5 68.5t72.5 197.5h-304v76h305q-6 124 -63.5 188.5t-163.5 64.5q-85 0 -158 -35l-29 66q38 22 87.5 33.5t104.5 11.5 q94 0 164 -42zM328.5 810q-13.5 14 -13.5 40t13.5 40.5t38.5 14.5t39 -14.5t14 -39.5q0 -26 -14 -40.5t-39 -14.5t-38.5 14zM133.5 810q-13.5 14 -13.5 40t13.5 40.5t38.5 14.5t39 -14.5t14 -39.5q0 -26 -14 -40.5t-39 -14.5t-38.5 14z"/>
<glyph glyph-name="uni04ED" horiz-adv-x="495" unicode="ӭ" d="M384 476.5q61 -72.5 61 -200.5q0 -88 -29 -153t-83.5 -100t-129.5 -35q-47 0 -89.5 11.5t-71.5 32.5l30 64q57 -34 124 -34q73 0 114.5 45.5t48.5 133.5h-217v66h218q-13 170 -155 170q-59 0 -120 -31l-29 62q67 41 152 41q115 0 176 -72.5zM287.5 641q-13.5 14 -13.5 40 t13.5 40.5t38.5 14.5t39 -14.5t14 -39.5q0 -26 -14 -40.5t-39 -14.5t-38.5 14zM100.5 641q-13.5 14 -13.5 40t13.5 40.5t38.5 14.5t39 -14.5t14 -39.5q0 -26 -14 -40.5t-39 -14.5t-38.5 14z"/>
<glyph glyph-name="uni04EE" horiz-adv-x="601" unicode="Ӯ" d="M580 724l-192 -480q-36 -89 -67 -137t-76.5 -77t-122.5 -48l-21 76q72 18 111.5 47.5t68.5 84.5l-256 534h92l207 -437l172 437h84zM458 810h-290v63h290v-63z"/>
<glyph glyph-name="uni04EF" horiz-adv-x="504" unicode="ӯ" d="M55 -219l-29 71q72 26 117 60t69 83l-189 541h88l143 -441l141 441h86l-187 -539q-53 -150 -239 -216zM109 703h290v-63h-290v63z"/>
<glyph glyph-name="uni04F0" horiz-adv-x="601" unicode="Ӱ" d="M580 724l-192 -480q-36 -89 -67 -137t-76.5 -77t-122.5 -48l-21 76q72 18 111.5 47.5t68.5 84.5l-256 534h92l207 -437l172 437h84zM371.5 810q-13.5 14 -13.5 40t13.5 40.5t38.5 14.5t39 -14.5t14 -39.5q0 -26 -14 -40.5t-39 -14.5t-38.5 14zM176.5 810 q-13.5 14 -13.5 40t13.5 40.5t38.5 14.5t39 -14.5t14 -39.5q0 -26 -14 -40.5t-39 -14.5t-38.5 14z"/>
<glyph glyph-name="uni04F1" horiz-adv-x="504" unicode="ӱ" d="M55 -219l-29 71q72 26 117 60t69 83l-189 541h88l143 -441l141 441h86l-187 -539q-53 -150 -239 -216zM308.5 641q-13.5 14 -13.5 40t13.5 40.5t38.5 14.5t39 -14.5t14 -39.5q0 -26 -14 -40.5t-39 -14.5t-38.5 14zM121.5 641q-13.5 14 -13.5 40t13.5 40.5t38.5 14.5 t39 -14.5t14 -39.5q0 -26 -14 -40.5t-39 -14.5t-38.5 14z"/>
<glyph glyph-name="uni04F2" horiz-adv-x="601" unicode="Ӳ" d="M580 724l-192 -480q-36 -89 -67 -137t-76.5 -77t-122.5 -48l-21 76q72 18 111.5 47.5t68.5 84.5l-256 534h92l207 -437l172 437h84zM341 793l99 133h90v-12l-129 -133h-60v12zM242 781h-59v12l100 133h89v-12z"/>
<glyph glyph-name="uni04F3" horiz-adv-x="504" unicode="ӳ" d="M55 -219l-29 71q72 26 117 60t69 83l-189 541h88l143 -441l141 441h86l-187 -539q-53 -150 -239 -216zM286 625l61 159h84v-10l-91 -159h-54v10zM143 625l61 159h83v-10l-90 -159h-54v10z"/>
<glyph glyph-name="uni04F4" horiz-adv-x="671" unicode="Ӵ" d="M576 724v-724h-83v321q-49 -21 -95 -30.5t-96 -9.5q-113 0 -170.5 62.5t-57.5 173.5v207h83v-193q0 -86 37 -130.5t121 -44.5t178 41v327h83zM396.5 810q-13.5 14 -13.5 40t13.5 40.5t38.5 14.5t39 -14.5t14 -39.5q0 -26 -14 -40.5t-39 -14.5t-38.5 14zM201.5 810 q-13.5 14 -13.5 40t13.5 40.5t38.5 14.5t39 -14.5t14 -39.5q0 -26 -14 -40.5t-39 -14.5t-38.5 14z"/>
<glyph glyph-name="uni04F5" horiz-adv-x="563" unicode="ӵ" d="M472 536v-536h-81v229q-76 -30 -148 -30q-85 0 -129 46.5t-44 129.5v161h81v-142q0 -58 25 -90t87 -32q60 0 128 28v236h81zM337.5 641q-13.5 14 -13.5 40t13.5 40.5t38.5 14.5t39 -14.5t14 -39.5q0 -26 -14 -40.5t-39 -14.5t-38.5 14zM150.5 641q-13.5 14 -13.5 40 t13.5 40.5t38.5 14.5t39 -14.5t14 -39.5q0 -26 -14 -40.5t-39 -14.5t-38.5 14z"/>
<glyph glyph-name="uni04F6" horiz-adv-x="524" unicode="Ӷ" d="M178 649v-574h78v-224h-64l-15 149h-82v724h406v-75h-323z"/>
<glyph glyph-name="uni04F7" horiz-adv-x="436" unicode="ӷ" d="M170 466v-397h78v-218h-64l-15 149h-80v536h319v-70h-238z"/>
<glyph glyph-name="uni04F8" horiz-adv-x="852" unicode="Ӹ" d="M178 75h156q73 0 112 37.5t39 111.5q0 75 -38 112.5t-108 37.5h-161v-299zM757 724v-724h-83v724h83zM95 724h83v-275h156q114 0 176 -58t62 -167q0 -107 -62.5 -165.5t-171.5 -58.5h-243v724zM492.5 810q-13.5 14 -13.5 40t13.5 40.5t38.5 14.5t39 -14.5t14 -39.5 q0 -26 -14 -40.5t-39 -14.5t-38.5 14zM297.5 810q-13.5 14 -13.5 40t13.5 40.5t38.5 14.5t39 -14.5t14 -39.5q0 -26 -14 -40.5t-39 -14.5t-38.5 14z"/>
<glyph glyph-name="uni04F9" horiz-adv-x="725" unicode="ӹ" d="M172 69h102q53 0 84.5 26.5t31.5 80.5q0 102 -112 102h-106v-209zM635 536v-536h-81v536h81zM91 536h81v-189h103q199 0 199 -171q0 -86 -56 -131t-141 -45h-186v536zM424.5 641q-13.5 14 -13.5 40t13.5 40.5t38.5 14.5t39 -14.5t14 -39.5q0 -26 -14 -40.5t-39 -14.5 t-38.5 14zM237.5 641q-13.5 14 -13.5 40t13.5 40.5t38.5 14.5t39 -14.5t14 -39.5q0 -26 -14 -40.5t-39 -14.5t-38.5 14z"/>
<glyph glyph-name="uni04FA" horiz-adv-x="524" unicode="Ӻ" d="M178 649v-246h187v-71h-187v-257h86v-36q0 -53 -11.5 -86.5t-40 -58t-81.5 -46.5l-29 68q45 19 63.5 37t19.5 47h-67h-23v332h-67v71h67v321h406v-75h-323z"/>
<glyph glyph-name="uni04FB" horiz-adv-x="449" unicode="ӻ" d="M183 466v-171h149v-57h-149v-169h84v-31q0 -53 -11.5 -86.5t-40 -57.5t-81.5 -46l-27 67q44 19 63.5 38t20.5 47h-69h-20v238h-68v57h68v241h319v-70h-238z"/>
<glyph glyph-name="uni04FC" horiz-adv-x="603" unicode="Ӽ" d="M532 -91.5q-28 -32.5 -98 -60.5l-29 69q38 15 54.5 32t16.5 41q0 14 -6 26.5t-20 35.5l-152 243l-172 -295h-97l223 368l-216 356h99l169 -284l168 284h97l-217 -356l172 -275q19 -30 27.5 -53.5t8.5 -50.5q0 -48 -28 -80.5z"/>
<glyph glyph-name="uni04FD" horiz-adv-x="499" unicode="ӽ" d="M432 -93q-27 -31 -96 -59l-28 67q37 15 54 32t17 41q0 15 -6 28t-20 34l-105 158l-125 -208h-94l174 271l-167 265h96l119 -199l123 199h95l-173 -261l125 -184q20 -28 29 -52t9 -51q0 -50 -27 -81z"/>
<glyph glyph-name="uni04FE" horiz-adv-x="604" unicode="Ӿ" d="M575 0h-97l-180 303l-174 -303h-95l207 335h-150v69h148l-198 320h97l171 -292l169 292h95l-199 -320h144v-69h-146z"/>
<glyph glyph-name="uni0500" horiz-adv-x="618" unicode="Ԁ" d="M172 336.5q-39 -37.5 -39 -112.5t38.5 -112t110.5 -37h158v299h-158q-71 0 -110 -37.5zM108 58.5q-62 58.5 -62 165.5q0 109 63 167t177 58h154v275h83v-724h-245q-108 0 -170 58.5z"/>
<glyph glyph-name="uni0501" horiz-adv-x="575" unicode="ԁ" d="M344 80q31 15 59 47v288q-25 28 -59.5 44t-72.5 16q-66 0 -99.5 -51.5t-33.5 -151.5q0 -102 35 -154.5t104 -52.5q36 0 67 15zM484 0h-75v69q-55 -82 -154 -82q-94 0 -147.5 75t-53.5 209q0 131 55.5 204.5t155.5 73.5q42 0 77.5 -16t61.5 -46v283h80v-770z"/>
<glyph glyph-name="uni0502" horiz-adv-x="898" unicode="Ԃ" d="M393 108q46 45 46 125v141h-153q-71 0 -112 -38.5t-41 -112.5q0 -77 37.5 -118.5t105.5 -41.5q71 0 117 45zM836 446v-246q0 -102 -55 -157.5t-151 -55.5q-64 0 -107 26.5t-64 74.5q-31 -48 -81.5 -74.5t-112.5 -26.5q-104 0 -161.5 63.5t-57.5 172.5t65 167.5t179 58.5 h149v275h83v-521q0 -141 109 -141q61 0 90.5 38.5t29.5 106.5v239h85z"/>
<glyph glyph-name="uni0503" horiz-adv-x="786" unicode="ԃ" d="M404 127q-1 7 -1 23v265q-25 28 -59.5 44t-72.5 16q-66 0 -99.5 -51.5t-33.5 -151.5q0 -102 35 -154.5t104 -52.5q73 0 127 62zM724 332v-179q0 -83 -46 -124.5t-119 -41.5q-53 0 -90 21.5t-54 65.5q-29 -42 -71.5 -64.5t-88.5 -22.5q-94 0 -147.5 75t-53.5 209 q0 131 55.5 204.5t155.5 73.5q43 0 78 -16t61 -46v283h80v-610q0 -49 17.5 -74.5t58.5 -25.5q42 0 62.5 26.5t20.5 73.5v172h81z"/>
<glyph glyph-name="uni0504" horiz-adv-x="814" unicode="Ԅ" d="M752 446v-246q0 -102 -51.5 -157.5t-141.5 -55.5q-84 0 -125.5 43.5t-55.5 136.5q-9 65 -27 101.5t-47 52t-75 15.5h-102v73h94q72 0 114 33.5t42 94.5q0 63 -42.5 94t-112.5 31q-73 0 -159 -38l-29 66q89 47 192 47q108 0 172.5 -49t64.5 -143q0 -58 -29.5 -99 t-84.5 -65q52 -18 75.5 -61t38.5 -137q8 -62 29 -91.5t69 -29.5q106 0 106 145v239h85z"/>
<glyph glyph-name="uni0505" horiz-adv-x="664" unicode="ԅ" d="M602 332v-179q0 -83 -43.5 -124.5t-113.5 -41.5q-72 0 -105.5 36t-46.5 110q-7 43 -18.5 66t-33 32.5t-60.5 9.5h-75v66h73q52 0 86.5 22t34.5 63q0 45 -32.5 65.5t-84.5 20.5t-122 -30l-23 66q31 16 73 26t82 10q84 0 136.5 -36.5t52.5 -109.5q0 -84 -93 -120 q39 -13 56.5 -42t28.5 -91q8 -50 24 -70.5t49 -20.5q38 0 56 26t18 74v172h81z"/>
<glyph glyph-name="uni0506" horiz-adv-x="597" unicode="Ԇ" d="M573 75v-224h-65l-15 148q-52 9 -77.5 48.5t-37.5 119.5q-9 65 -27 101.5t-47 52t-75 15.5h-102v73h94q72 0 114 33.5t42 94.5q0 63 -42.5 94t-112.5 31q-73 0 -159 -38l-29 66q89 47 192 47q108 0 172.5 -49t64.5 -143q0 -58 -29.5 -99t-84.5 -65q52 -18 75.5 -61 t38.5 -137q8 -57 25.5 -82.5t55.5 -25.5h29z"/>
<glyph glyph-name="uni0507" horiz-adv-x="489" unicode="ԇ" d="M465 69v-218h-63l-16 149q-46 8 -64 38t-29 95q-7 43 -18.5 66t-33 32.5t-60.5 9.5h-75v66h73q52 0 86.5 22t34.5 63q0 45 -32.5 65.5t-84.5 20.5t-122 -30l-23 66q31 16 73 26t82 10q84 0 136.5 -36.5t52.5 -109.5q0 -84 -93 -120q39 -13 56.5 -42t28.5 -91 q6 -35 12.5 -52t17 -23.5t30.5 -6.5h31z"/>
<glyph glyph-name="uni0508" horiz-adv-x="965" unicode="Ԉ" d="M554.5 42.5q-48.5 55.5 -48.5 145.5v461h-233l-22 -313q-7 -104 -22 -162.5t-54 -102.5t-118 -82l-38 70q59 30 89 66t42 85t18 134l26 380h395v-521q0 -141 109 -141q61 0 90.5 38.5t29.5 106.5v239h85v-246q0 -102 -55 -157.5t-151 -55.5q-94 0 -142.5 55.5z"/>
<glyph glyph-name="uni0509" horiz-adv-x="788" unicode="ԉ" d="M446.5 28q-41.5 41 -41.5 118v320h-163l-16 -208q-6 -78 -18.5 -122t-45 -78t-98.5 -66l-35 67q45 23 69 50t34 63.5t14 94.5l19 269h321v-376q0 -49 18 -74.5t59 -25.5t61.5 26.5t20.5 73.5v172h81v-179q0 -83 -46 -124.5t-119 -41.5t-114.5 41z"/>
<glyph glyph-name="uni050A" horiz-adv-x="981" unicode="Ԋ" d="M570.5 42.5q-48.5 55.5 -48.5 145.5v142h-344v-330h-83v724h83v-319h344v319h83v-521q0 -141 109 -141q61 0 90.5 38.5t29.5 106.5v239h85v-246q0 -102 -55 -157.5t-151 -55.5q-94 0 -142.5 55.5z"/>
<glyph glyph-name="uni050B" horiz-adv-x="801" unicode="ԋ" d="M459.5 28q-41.5 41 -41.5 118v91h-246v-237h-81v536h81v-227h246v227h81v-376q0 -49 18 -74.5t58 -25.5q42 0 62.5 26.5t20.5 73.5v172h81v-179q0 -83 -46 -124.5t-119 -41.5t-114.5 41z"/>
<glyph glyph-name="uni050C" horiz-adv-x="671" unicode="Ԍ" d="M197 32q-69 45 -107 129.5t-38 200.5q0 112 40 197t112.5 131.5t168.5 46.5q105 0 181 -45l-29 -66q-70 35 -152 35q-110 0 -172 -77t-62 -214q0 -99 28 -168t77.5 -104.5t115.5 -35.5q83 0 124 46t41 146v192h84v-200q0 -131 -66.5 -195t-186.5 -64q-90 0 -159 45z"/>
<glyph glyph-name="uni050D" horiz-adv-x="545" unicode="ԍ" d="M165.5 20.5q-54.5 33.5 -85 97.5t-30.5 150q0 84 29.5 147.5t83 98.5t123.5 35q39 0 79.5 -12t73.5 -32l-31 -65q-64 34 -124 34q-71 0 -110.5 -52.5t-39.5 -146.5q0 -104 42.5 -159.5t115.5 -55.5q53 0 81.5 33t28.5 99v140h81v-148q0 -103 -54.5 -150t-137.5 -47 q-71 0 -125.5 33.5z"/>
<glyph glyph-name="uni050E" horiz-adv-x="676" unicode="Ԏ" d="M265.5 42.5q-48.5 55.5 -48.5 145.5v460h-192v76h468v-76h-193v-445q0 -141 110 -141q61 0 90 38.5t29 106.5v239h85v-246q0 -102 -55 -157.5t-151 -55.5q-94 0 -142.5 55.5z"/>
<glyph glyph-name="uni050F" horiz-adv-x="555" unicode="ԏ" d="M213.5 28q-41.5 41 -41.5 118v320h-149v70h380v-70h-150v-306q0 -49 17.5 -74.5t58.5 -25.5q42 0 62.5 26.5t20.5 73.5v172h81v-179q0 -83 -46 -124.5t-119 -41.5t-114.5 41z"/>
<glyph glyph-name="uni0510" horiz-adv-x="549" unicode="Ԑ" d="M535 40q-45 -26 -103.5 -39t-119.5 -13q-122 0 -193.5 56.5t-71.5 163.5q0 132 131 173q-103 47 -103 164q0 94 67 143t175 49q52 0 101 -12.5t87 -34.5l-28 -66q-81 38 -156 38q-71 0 -115.5 -31.5t-44.5 -93.5t37.5 -95t108.5 -33h106v-73h-114q-75 0 -120 -29.5 t-45 -97.5q0 -71 48.5 -107.5t140.5 -36.5q45 0 91.5 11.5t86.5 31.5z"/>
<glyph glyph-name="uni0511" horiz-adv-x="456" unicode="ԑ" d="M433 27q-33 -19 -80.5 -29t-94.5 -10q-99 0 -155.5 42.5t-56.5 122.5q0 101 104 131q-84 36 -84 120q0 72 54 109t135 37q42 0 83 -10t72 -26l-22 -66q-34 14 -63 22t-63 8q-51 0 -82.5 -20t-31.5 -66q0 -42 31 -63.5t81 -21.5h83v-66h-84q-129 0 -129 -84q0 -97 137 -97 q35 0 72 9t66 23z"/>
<glyph glyph-name="uni0512" horiz-adv-x="684" unicode="Ԓ" d="M575 -35q-14 -38 -46.5 -65t-91.5 -52l-29 70q41 17 61.5 35t28.5 43t8 67v586h-233l-22 -313q-7 -104 -22 -162.5t-54 -102.5t-118 -82l-38 70q59 30 89 66t42 85t18 134l26 380h395v-661q0 -60 -14 -98z"/>
<glyph glyph-name="uni0513" horiz-adv-x="574" unicode="ԓ" d="M473 -36q-13 -38 -45 -65t-91 -51l-28 68q40 17 60.5 35t28 43.5t7.5 68.5v403h-163l-16 -208q-6 -78 -18.5 -122t-45 -78t-98.5 -66l-35 67q45 23 69 50t34 63.5t14 94.5l19 269h321v-474q0 -60 -13 -98z"/>
<glyph glyph-name="uni0514" horiz-adv-x="993" unicode="Ԕ" d="M965 0h-99l-178 295l-172 -295h-97l223 368l-171 281h-198l-22 -313q-7 -104 -22 -162.5t-54 -102.5t-118 -82l-38 70q59 30 89 66t42 85t18 134l26 380h281h50l169 -284l168 284h97l-217 -356z"/>
<glyph glyph-name="uni0515" horiz-adv-x="813" unicode="ԕ" d="M785 0h-97l-126 208l-125 -208h-94l174 271l-123 195h-152l-16 -208q-6 -78 -18.5 -122t-45 -78t-98.5 -66l-35 67q45 23 69 50t34 63.5t14 94.5l19 269h239h42l119 -199l123 199h95l-173 -261z"/>
<glyph glyph-name="uni0516" horiz-adv-x="861" unicode="Ԗ" d="M428.5 372.5q35.5 40.5 35.5 118.5q0 77 -36.5 117.5t-107.5 40.5h-142v-317h146q69 0 104.5 40.5zM736 0l-224 346q-29 -44 -78 -66.5t-114 -22.5h-142v-257h-83v724h229q107 0 167 -61.5t60 -171.5q0 -12 -1 -19l178 252h99l-247 -335l257 -389h-101z"/>
<glyph glyph-name="uni0517" horiz-adv-x="776" unicode="ԗ" d="M397 112.5q33 51.5 33 151.5q0 101 -34.5 154t-99.5 53q-36 0 -66 -15t-57 -48v-288q24 -28 58.5 -43.5t70.5 -15.5q62 0 95 51.5zM649 0l-137 223q-8 -113 -61.5 -174.5t-143.5 -61.5q-40 0 -74.5 15.5t-59.5 44.5v-254h-81v743h75v-70q26 41 64.5 62t86.5 21 q83 0 133.5 -61.5t60.5 -172.5l136 221h97l-174 -261l177 -275h-99z"/>
<glyph glyph-name="uni0518" horiz-adv-x="899" unicode="Ԙ" d="M304 649q-149 0 -149 -131t145 -131h138v262h-134zM438 312h-126l-178 -312h-101l190 321q-74 17 -114.5 66.5t-40.5 131.5q0 96 63.5 150.5t168.5 54.5h547v-75h-326v-262h241v-76h-241v-236h339v-75h-422v312z"/>
<glyph glyph-name="uni0519" horiz-adv-x="800" unicode="ԙ" d="M331 297q6 104 52 170h-135q-46 0 -70 -22t-24 -61q0 -43 24.5 -65t71.5 -22h81zM671 297q-1 86 -34.5 132.5t-93.5 46.5q-58 0 -92 -45t-41 -134h261zM748 232h-339q4 -88 43 -128t114 -40q68 0 131 40l30 -64q-31 -25 -75 -38.5t-91 -13.5q-102 0 -161.5 63t-67.5 179 h-78l-129 -230h-94l137 241q-98 34 -98 145q0 67 44.5 108.5t122.5 41.5h234q36 13 75 13q97 0 151.5 -71t54.5 -192q0 -37 -4 -54z"/>
<glyph glyph-name="uni051A" horiz-adv-x="713" unicode="Ԛ" d="M511.5 138q52.5 76 52.5 224t-52.5 224t-155.5 76q-102 0 -154.5 -76t-52.5 -224t52.5 -224t154.5 -76q103 0 155.5 76zM468 6q-54 -19 -112 -19q-142 0 -218 95.5t-76 279.5t76 279.5t218 95.5q143 0 219 -95t76 -280q0 -114 -29.5 -194t-86.5 -125l126 -138l-57 -59z "/>
<glyph glyph-name="uni051B" horiz-adv-x="575" unicode="ԛ" d="M344 80q31 15 59 47v288q-25 28 -59.5 44t-72.5 16q-66 0 -99.5 -51.5t-33.5 -151.5q0 -102 35 -154.5t104 -52.5q36 0 67 15zM403 -207v267q-26 -36 -64 -54.5t-84 -18.5q-94 0 -147.5 75t-53.5 209q0 131 55.5 204.5t155.5 73.5q44 0 81.5 -18t62.5 -51v56h75v-743h-81 z"/>
<glyph glyph-name="uni051C" horiz-adv-x="887" unicode="Ԝ" d="M671 0h-93l-135 578l-135 -578h-93l-183 724h89l141 -623l136 622h91l137 -620l140 621h89z"/>
<glyph glyph-name="uni051D" horiz-adv-x="768" unicode="ԝ" d="M585 0h-89l-112 422l-113 -422h-89l-157 536h87l116 -447l114 447h85l115 -446l114 446h86z"/>
<glyph glyph-name="uni051E" horiz-adv-x="650" unicode="Ԟ" d="M462.5 439.5q-34.5 -33.5 -87.5 -65.5l249 -374h-101l-219 335l-42 -22l-84 -43v-270h-83v724h83v-372l66 34q86 45 129 77.5t72 87.5l-113 41l25 65l114 -42q14 42 28 109h86q-16 -79 -36 -138l81 -30l-26 -65l-82 31q-25 -49 -59.5 -82.5z"/>
<glyph glyph-name="uni051F" horiz-adv-x="550" unicode="ԟ" d="M425 0l-163 242l-21 -11l-69 -33v-198h-81v536h81v-261l42 20q54 25 85.5 47t54.5 57l-85 36l23 52l87 -37q14 35 25 86h83q-16 -67 -36 -117l55 -23l-23 -52l-58 24q-36 -54 -94 -89l189 -279h-95z"/>
<glyph glyph-name="uni0520" horiz-adv-x="1035" unicode="Ԡ" d="M898 378.5q89 -59.5 89 -202.5v-16q0 -125 -54 -197t-176 -115l-29 70q61 22 98.5 51.5t57 75.5t19.5 116v9q0 77 -32 119.5t-91.5 58.5t-153.5 16h-44v-364h-83v649h-226l-22 -313q-7 -104 -22 -162.5t-54 -102.5t-118 -82l-38 70q59 30 89 66t42 85t18 134l26 380h388 v-286h62q165 0 254 -59.5z"/>
<glyph glyph-name="uni0521" horiz-adv-x="851" unicode="ԡ" d="M728.5 282.5q74.5 -46.5 74.5 -167.5v-14q0 -97 -42 -157t-145 -96l-27 68q74 26 103.5 69t29.5 116v10q0 62 -28 95t-74 44t-113 11h-26v-261h-81v466h-158l-16 -208q-6 -78 -18.5 -122t-45 -78t-98.5 -66l-35 67q45 23 69 50t34 63.5t14 94.5l19 269h316v-207h43 q130 0 204.5 -46.5z"/>
<glyph glyph-name="uni0522" horiz-adv-x="1050" unicode="Ԣ" d="M913.5 360.5q88.5 -56.5 88.5 -195.5v-16q0 -82 -24 -138t-74 -95t-132 -68l-29 70q61 22 98.5 50t57 71.5t19.5 110.5v9q0 76 -32 116t-91 53.5t-154 13.5h-44v-342h-83v342h-336v-342h-83v724h83v-307h336v307h83v-307h61q167 0 255.5 -56.5z"/>
<glyph glyph-name="uni0523" horiz-adv-x="864" unicode="ԣ" d="M741.5 272.5q74.5 -45.5 74.5 -163.5v-14q0 -94 -42 -152.5t-145 -94.5l-27 68q75 26 104 67.5t29 111.5v10q0 60 -28 91.5t-73.5 41t-113.5 9.5h-26v-247h-81v246h-241v-246h-81v536h81v-218h241v218h81v-218h43q130 0 204.5 -45.5z"/>
<glyph glyph-name="uni0524" horiz-adv-x="729" unicode="Ԥ" d="M689 75v-224h-65l-15 149h-81v649h-350v-649h-83v724h516v-649h78z"/>
<glyph glyph-name="uni0525" horiz-adv-x="623" unicode="ԥ" d="M583 69v-218h-64l-15 149h-81v466h-251v-466h-81v536h414v-467h78z"/>
<glyph glyph-name="uni0526" horiz-adv-x="676" unicode="Ԧ" d="M646 75v-224h-64l-15 149h-82v234q0 81 -35 123t-116 42q-72 0 -156 -36v-363h-83v724h83v-285q89 34 171 34q110 0 164.5 -59.5t54.5 -170.5v-168h78z"/>
<glyph glyph-name="uni0527" horiz-adv-x="615" unicode="ԧ" d="M575 70v-219h-64l-15 149h-80v371q0 100 -109 100q-75 0 -135 -51v-420h-81v770h81v-287q66 66 158 66q79 0 123 -45t44 -126v-308h78z"/>
<glyph glyph-name="uni0528" horiz-adv-x="710" unicode="Ԩ" d="M173 -35q-14 -38 -46.5 -65t-91.5 -52l-29 70q41 17 61.5 35t28.5 43t8 67v661h83v-319h345v319h83v-724h-83v330h-345v-267q0 -60 -14 -98z"/>
<glyph glyph-name="uni0529" horiz-adv-x="601" unicode="ԩ" d="M168.5 -36q-13.5 -38 -45 -65t-91.5 -51l-28 68q41 17 61.5 35t28 43.5t7.5 68.5v473h81v-227h247v227h81v-536h-81v237h-247v-175q0 -60 -13.5 -98z"/>
<glyph glyph-name="uni052A" horiz-adv-x="1286" unicode="Ԫ" d="M494 75v574h-205l-27 -313q-6 -71 -14 -115t-26.5 -80t-53.5 -66h326zM1164 0l-200 333l-27 -12q-4 -1 -20 -8l-59 -24v-289h-82v289l-201 78v-292h78v-224h-64l-15 149h-479l-15 -149h-64v224h43q45 28 68.5 63.5t33.5 81t17 124.5l32 380h365v-280l201 -79v359h82v-358 l38 16q81 34 121.5 65t68.5 92.5t54 184.5h83q-23 -110 -47.5 -176.5t-57 -107.5t-82.5 -71l225 -369h-97z"/>
<glyph glyph-name="uni052B" horiz-adv-x="1050" unicode="ԫ" d="M399 69v397h-140l-20 -208q-7 -71 -23.5 -113t-55.5 -76h239zM928 0l-147 241q-8 -4 -12 -5l-63 -26v-210h-77v209l-153 61v-201h78v-218h-63l-15 149h-379l-15 -149h-64v218h39q56 34 77 77t27 121l24 269h291v-194l153 -59v253h77v-253l34 14q53 22 82 47t47.5 68 t36.5 124h81q-19 -82 -36.5 -129.5t-40.5 -78t-60 -53.5l171 -275h-93z"/>
<glyph glyph-name="uni052C" horiz-adv-x="707" unicode="Ԭ" d="M511 75v265q-84 -37 -166 -41q-15 -83 -42.5 -133.5t-84.5 -90.5h293zM392 649l-36 -280q76 6 155 42v238h-119zM667 75v-224h-64l-15 149h-463l-15 -149h-64v224h45q79 41 118.5 91t57.5 135q-90 12 -136 72t-46 158v193h79v-179q0 -148 114 -172l45 351h266v-649h78z "/>
<glyph glyph-name="uni052D" horiz-adv-x="609" unicode="ԭ" d="M418 69v178q-62 -26 -116 -32q-11 -48 -35 -82t-66 -64h217zM328 466l-17 -186q52 6 107 30v156h-90zM569 69v-218h-63l-15 149h-368l-15 -149h-63v218h40q60 32 93.5 65t48.5 82q-68 9 -103.5 53t-35.5 118v149h74v-133q0 -48 18 -78.5t59 -40.5l26 252h226v-467h78z "/>
<glyph glyph-name="uni052E" horiz-adv-x="707" unicode="Ԯ" d="M667 75v-224h-64l-15 149h-82v649h-233l-22 -313q-7 -104 -22 -162.5t-54 -102.5t-118 -82l-38 70q59 30 89 66t42 85t18 134l26 380h395v-649h78z"/>
<glyph glyph-name="guilsinglleft" horiz-adv-x="350" unicode="‹" d="M136 287l170 -196l-54 -51l-213 246l214 246l53 -52z"/>
<glyph glyph-name="uni2081" horiz-adv-x="334" unicode="₁" d="M212 367v-440h-70v367l-96 -33l-20 57l131 49h55z"/>
<glyph glyph-name="breveCyr" d="M142 653q-41 36 -49 107h57q8 -38 33.5 -56.5t72.5 -18.5q90 0 107 75h55q-8 -70 -50.5 -106.5t-112.5 -36.5q-72 0 -113 36z" horiz-adv-x="510"/>
<glyph glyph-name="breveCyr.case" d="M142 823q-41 36 -49 107h57q8 -38 33.5 -56.5t72.5 -18.5q90 0 107 75h55q-8 -70 -50.5 -106.5t-112.5 -36.5q-72 0 -113 36z" horiz-adv-x="510"/>
</font>
</defs>
</svg>
